SplineFontDB: 3.0
FontName: Jost-Semi
FullName: Jost* 600 Semi
FamilyName: Jost*
Weight: Semi
Copyright: Copyright (c) 2018, Owen Earl,,,
UComments: "2018-6-8: Created with FontForge (http://fontforge.org)"
Version: 003.400
ItalicAngle: 0
UnderlinePosition: -100
UnderlineWidth: 50
Ascent: 800
Descent: 200
InvalidEm: 0
LayerCount: 2
Layer: 0 0 "Back" 1
Layer: 1 0 "Fore" 0
XUID: [1021 69 1495626776 9435324]
FSType: 0
OS2Version: 0
OS2_WeightWidthSlopeOnly: 0
OS2_UseTypoMetrics: 0
CreationTime: 1528479894
ModificationTime: 1562964826
PfmFamily: 17
TTFWeight: 600
TTFWidth: 5
LineGap: 100
VLineGap: 0
OS2TypoAscent: 825
OS2TypoAOffset: 0
OS2TypoDescent: -225
OS2TypoDOffset: 0
OS2TypoLinegap: 100
OS2WinAscent: 900
OS2WinAOffset: 0
OS2WinDescent: 300
OS2WinDOffset: 0
HheadAscent: 1030
HheadAOffset: 0
HheadDescent: -350
HheadDOffset: 0
OS2CapHeight: 700
OS2XHeight: 460
OS2Vendor: 'PfEd'
Lookup: 1 0 0 "alt a" { "alt a"  } ['ss01' ('DFLT' <'dflt' > 'latn' <'dflt' > ) ]
Lookup: 1 0 0 "Tabular Numbers lookup" { "Tabular Numbers lookup"  } ['tnum' ('DFLT' <'dflt' > 'grek' <'dflt' > 'latn' <'dflt' > ) ]
Lookup: 258 0 0 "Lets get our kern on" { "kernin like nobodys business" [150,0,0] } ['kern' ('DFLT' <'dflt' > 'latn' <'dflt' > ) ]
MarkAttachClasses: 1
DEI: 91125
KernClass2: 16 14 "kernin like nobodys business"
 43 slash seven V W Wcircumflex uni040E uni0423
 175 quotedbl quotesingle asterisk grave dieresis ordfeminine macron degree acute ordmasculine circumflex breve dotaccent ring tilde quoteleft quoteright quotedblleft quotedblright
 25 nine question F P uni0420
 131 A L backslash Agrave Aacute Acircumflex Atilde Adieresis Aring Amacron Abreve Aogonek Lacute uni013B Lslash uni0410 uni0414 uni041C
 58 three eight B C germandbls uni0411 uni0412 uni0417 uni0421
 29 K X Z uni0416 uni041A uni0425
 157 at D G O Ograve Oacute Ocircumflex Otilde Odieresis Oslash Dcaron Dcroat Gcircumflex Gbreve Gdotaccent uni0122 Omacron Obreve uni041E uni0424 uni042D uni042E

StartChar: H
Encoding: 72 72 0
Width: 764
VWidth: 0
Flags: HMW
LayerCount: 2
Fore
SplineSet
123 308 m 1
 123 437 l 1
 637 437 l 1
 637 308 l 1
 123 308 l 1
546 700 m 1
 689 700 l 1
 689 0 l 1
 546 0 l 1
 546 700 l 1
76 700 m 1
 219 700 l 1
 219 0 l 1
 76 0 l 1
 76 700 l 1
EndSplineSet
EndChar

StartChar: O
Encoding: 79 79 1
Width: 811
VWidth: 0
Flags: HMW
LayerCount: 2
Fore
SplineSet
188 350 m 0
 188 216 277 120 406 120 c 0
 535 120 624 216 624 350 c 0
 624 484 537 580 406 580 c 0
 277 580 188 484 188 350 c 0
36 350 m 0
 36 563 196 714 406 714 c 0
 619 714 776 563 776 350 c 0
 776 137 621 -19 406 -19 c 0
 191 -19 36 137 36 350 c 0
EndSplineSet
EndChar

StartChar: I
Encoding: 73 73 2
Width: 296
VWidth: 0
Flags: HMW
LayerCount: 2
Fore
SplineSet
76 700 m 1
 221 700 l 1
 221 0 l 1
 76 0 l 1
 76 700 l 1
EndSplineSet
EndChar

StartChar: C
Encoding: 67 67 3
Width: 695
VWidth: 0
Flags: HMW
LayerCount: 2
Fore
SplineSet
191 350 m 0
 191 211 295 123 416 123 c 0
 515 123 583 167 630 220 c 1
 630 58 l 1
 573 12 511 -14 409 -14 c 0
 193 -14 36 135 36 350 c 0
 36 565 193 714 409 714 c 0
 511 714 573 688 630 642 c 1
 630 480 l 1
 583 533 515 577 416 577 c 0
 295 577 191 489 191 350 c 0
EndSplineSet
EndChar

StartChar: E
Encoding: 69 69 4
Width: 586
VWidth: 0
Flags: HMW
LayerCount: 2
Fore
SplineSet
168 0 m 1
 168 121 l 1
 521 121 l 1
 521 0 l 1
 168 0 l 1
168 579 m 1
 168 700 l 1
 521 700 l 1
 521 579 l 1
 168 579 l 1
168 312 m 1
 168 431 l 1
 501 431 l 1
 501 312 l 1
 168 312 l 1
76 700 m 1
 215 700 l 1
 215 0 l 1
 76 0 l 1
 76 700 l 1
EndSplineSet
EndChar

StartChar: F
Encoding: 70 70 6
Width: 536
VWidth: 0
Flags: HMW
LayerCount: 2
Fore
SplineSet
168 575 m 1
 168 700 l 1
 481 700 l 1
 481 575 l 1
 168 575 l 1
168 299 m 1
 168 418 l 1
 471 418 l 1
 471 299 l 1
 168 299 l 1
76 700 m 1
 215 700 l 1
 215 0 l 1
 76 0 l 1
 76 700 l 1
EndSplineSet
EndChar

StartChar: G
Encoding: 71 71 7
Width: 802
VWidth: 0
Flags: HMW
LayerCount: 2
Fore
SplineSet
416 260 m 1
 416 374 l 1
 761 374 l 1
 770 161 641 -19 410 -19 c 0
 193 -19 36 132 36 350 c 0
 36 568 197 714 414 714 c 0
 556 714 659 651 723 554 c 1
 600 483 l 1
 565 544 504 586 414 586 c 0
 288 586 186 496 186 350 c 0
 186 204 283 110 414 110 c 0
 528 110 593 176 616 260 c 1
 416 260 l 1
EndSplineSet
EndChar

StartChar: T
Encoding: 84 84 8
Width: 532
VWidth: 0
Flags: HMW
LayerCount: 2
Fore
SplineSet
6 570 m 1
 6 700 l 1
 526 700 l 1
 526 570 l 1
 338 570 l 1
 338 0 l 1
 194 0 l 1
 194 570 l 1
 6 570 l 1
EndSplineSet
EndChar

StartChar: L
Encoding: 76 76 9
Width: 504
VWidth: 0
Flags: HMW
LayerCount: 2
Fore
SplineSet
76 700 m 1
 219 700 l 1
 219 125 l 1
 498 125 l 1
 498 0 l 1
 76 0 l 1
 76 700 l 1
EndSplineSet
EndChar

StartChar: D
Encoding: 68 68 10
Width: 716
VWidth: 0
Flags: HMW
LayerCount: 2
Fore
SplineSet
76 700 m 1
 223 700 l 1
 223 0 l 1
 76 0 l 1
 76 700 l 1
314 0 m 2
 168 0 l 1
 168 130 l 1
 309 130 l 2
 432 130 533 196 533 350 c 0
 533 504 432 570 309 570 c 2
 168 570 l 1
 168 700 l 1
 314 700 l 2
 535 700 681 563 681 350 c 0
 681 137 535 0 314 0 c 2
EndSplineSet
EndChar

StartChar: Q
Encoding: 81 81 11
Width: 841
VWidth: 0
Flags: HMW
LayerCount: 2
Fore
SplineSet
188 350 m 0
 188 207 288 111 417 111 c 0
 546 111 637 203 637 337 c 0
 637 471 548 580 408 580 c 0
 279 580 188 484 188 350 c 0
36 350 m 0
 36 563 198 714 408 714 c 0
 621 714 776 563 776 350 c 0
 776 137 623 -19 408 -19 c 0
 193 -19 36 137 36 350 c 0
363 300 m 1
 519 300 l 1
 845 -9 l 1
 685 -9 l 1
 363 300 l 1
EndSplineSet
EndChar

StartChar: A
Encoding: 65 65 12
Width: 711
VWidth: 0
Flags: HMW
LayerCount: 2
Fore
SplineSet
173 158 m 1
 190 272 l 1
 526 272 l 1
 543 158 l 1
 173 158 l 1
356 473 m 1
 252 232 l 1
 255 200 l 1
 163 0 l 1
 1 0 l 1
 356 741 l 1
 711 0 l 1
 549 0 l 1
 459 193 l 1
 461 229 l 1
 356 473 l 1
EndSplineSet
EndChar

StartChar: R
Encoding: 82 82 13
Width: 620
VWidth: 0
Flags: HMW
LayerCount: 2
Fore
SplineSet
235 326 m 1
 387 326 l 1
 615 0 l 1
 445 0 l 1
 235 326 l 1
76 700 m 1
 219 700 l 1
 219 0 l 1
 76 0 l 1
 76 700 l 1
164 577 m 1
 164 700 l 1
 311 700 l 2
 476 700 573 610 573 477 c 0
 573 344 476 254 311 254 c 2
 164 254 l 1
 164 368 l 1
 302 368 l 2
 377 368 425 406 425 473 c 0
 425 540 377 577 302 577 c 2
 164 577 l 1
EndSplineSet
EndChar

StartChar: V
Encoding: 86 86 14
Width: 711
VWidth: 0
Flags: HMW
LayerCount: 2
Fore
SplineSet
356 245 m 1
 545 700 l 1
 711 700 l 1
 356 -41 l 1
 1 700 l 1
 167 700 l 1
 356 245 l 1
EndSplineSet
EndChar

StartChar: M
Encoding: 77 77 15
Width: 866
VWidth: 0
Flags: HMW
LayerCount: 2
Fore
SplineSet
231 392 m 1
 186 0 l 1
 36 0 l 1
 140 735 l 1
 433 284 l 1
 726 735 l 1
 831 0 l 1
 681 0 l 1
 636 392 l 1
 433 65 l 1
 231 392 l 1
EndSplineSet
EndChar

StartChar: W
Encoding: 87 87 16
Width: 1041
VWidth: 0
Flags: HMW
LayerCount: 2
Fore
SplineSet
720 251 m 1
 868 700 l 1
 1036 700 l 1
 742 -39 l 1
 521 420 l 1
 300 -39 l 1
 6 700 l 1
 174 700 l 1
 322 251 l 1
 521 735 l 1
 720 251 l 1
EndSplineSet
EndChar

StartChar: N
Encoding: 78 78 17
Width: 787
VWidth: 0
Flags: HMW
LayerCount: 2
Fore
SplineSet
573 700 m 1
 712 700 l 1
 712 -35 l 1
 215 432 l 1
 215 0 l 1
 76 0 l 1
 76 735 l 1
 573 268 l 1
 573 700 l 1
EndSplineSet
EndChar

StartChar: a
Encoding: 97 97 18
Width: 526
VWidth: 0
Flags: HMW
LayerCount: 2
Fore
SplineSet
156 137 m 0
 156 99 191 80 232 80 c 0
 295 80 345 107 345 184 c 1
 361 130 l 1
 361 41 285 -10 190 -10 c 0
 95 -10 26 39 26 131 c 0
 26 224 103 281 224 281 c 0
 299 281 360 248 378 228 c 1
 378 165 l 1
 340 193 303 206 249 206 c 0
 188 206 156 179 156 137 c 0
115 329 m 1
 68 418 l 1
 115 443 184 472 267 472 c 0
 385 472 470 419 470 326 c 2
 470 0 l 1
 345 0 l 1
 345 305 l 2
 345 346 309 371 259 371 c 0
 193 371 137 343 115 329 c 1
EndSplineSet
Substitution2: "alt a" a.alt
EndChar

StartChar: X
Encoding: 88 88 19
Width: 645
VWidth: 0
Flags: HMW
LayerCount: 2
Fore
SplineSet
449 700 m 1
 625 700 l 1
 410 361 l 1
 640 0 l 1
 464 0 l 1
 325 251 l 1
 181 0 l 1
 6 0 l 1
 242 361 l 1
 31 700 l 1
 206 700 l 1
 326 480 l 1
 449 700 l 1
EndSplineSet
EndChar

StartChar: K
Encoding: 75 75 20
Width: 658
VWidth: 0
Flags: HMW
LayerCount: 2
Fore
SplineSet
76 700 m 1
 223 700 l 1
 223 0 l 1
 76 0 l 1
 76 700 l 1
472 700 m 1
 643 700 l 1
 353 372 l 1
 658 0 l 1
 483 0 l 1
 181 368 l 1
 472 700 l 1
EndSplineSet
EndChar

StartChar: Y
Encoding: 89 89 21
Width: 629
VWidth: 0
Flags: HMW
LayerCount: 2
Fore
SplineSet
465 700 m 1
 629 700 l 1
 388 290 l 1
 388 0 l 1
 242 0 l 1
 242 289 l 1
 1 700 l 1
 165 700 l 1
 315 418 l 1
 465 700 l 1
EndSplineSet
EndChar

StartChar: B
Encoding: 66 66 22
Width: 631
VWidth: 0
Flags: HMW
LayerCount: 2
Fore
SplineSet
184 355 m 1
 184 420 l 1
 297 420 l 2
 358 420 398 451 398 504 c 0
 398 557 358 586 297 586 c 2
 219 586 l 1
 219 114 l 1
 311 114 l 2
 384 114 438 144 438 217 c 0
 438 286 384 316 311 316 c 2
 184 316 l 1
 184 394 l 1
 324 394 l 2
 459 394 586 337 586 199 c 0
 586 60 481 0 324 0 c 2
 76 0 l 1
 76 700 l 1
 310 700 l 2
 448 700 546 642 546 523 c 0
 546 415 448 355 310 355 c 2
 184 355 l 1
EndSplineSet
EndChar

StartChar: Z
Encoding: 90 90 23
Width: 596
VWidth: 0
Flags: HMW
LayerCount: 2
Fore
SplineSet
50 570 m 1
 50 700 l 1
 581 700 l 1
 239 125 l 1
 550 125 l 1
 550 0 l 1
 11 0 l 1
 350 570 l 1
 50 570 l 1
EndSplineSet
EndChar

StartChar: o
Encoding: 111 111 24
Width: 576
VWidth: 0
Flags: HMW
LayerCount: 2
Fore
SplineSet
33 230 m 0
 33 373 142 470 288 470 c 0
 434 470 543 373 543 230 c 0
 543 87 434 -10 288 -10 c 0
 142 -10 33 87 33 230 c 0
166 230 m 0
 166 151 220 100 288 100 c 0
 356 100 411 151 411 230 c 0
 411 309 356 361 288 361 c 0
 220 361 166 309 166 230 c 0
EndSplineSet
EndChar

StartChar: J
Encoding: 74 74 25
Width: 302
VWidth: 0
Flags: HMW
LayerCount: 2
Fore
SplineSet
-70 -76 m 1
 -52 -96 -22 -110 10 -110 c 0
 40 -110 76 -88 76 -26 c 2
 76 700 l 1
 227 700 l 1
 227 -56 l 2
 227 -182 136 -233 20 -233 c 0
 -50 -233 -116 -203 -148 -179 c 1
 -70 -76 l 1
EndSplineSet
EndChar

StartChar: t
Encoding: 116 116 26
Width: 294
VWidth: 0
Flags: HMW
LayerCount: 2
Fore
SplineSet
5 460 m 1
 289 460 l 1
 289 350 l 1
 5 350 l 1
 5 460 l 1
84 620 m 1
 210 620 l 1
 210 0 l 1
 84 0 l 1
 84 620 l 1
EndSplineSet
EndChar

StartChar: d
Encoding: 100 100 27
Width: 602
VWidth: 0
Flags: HMW
LayerCount: 2
Fore
SplineSet
411 780 m 1
 541 780 l 1
 541 0 l 1
 411 0 l 1
 411 780 l 1
33 230 m 0
 33 383 138 470 254 470 c 0
 369 470 452 379 452 230 c 0
 452 81 369 -10 254 -10 c 0
 138 -10 33 77 33 230 c 0
168 230 m 0
 168 148 224 97 292 97 c 0
 349 97 411 146 411 230 c 0
 411 314 349 363 292 363 c 0
 224 363 168 312 168 230 c 0
EndSplineSet
EndChar

StartChar: l
Encoding: 108 108 28
Width: 258
VWidth: 0
Flags: HMW
LayerCount: 2
Fore
SplineSet
64 780 m 1
 194 780 l 1
 194 0 l 1
 64 0 l 1
 64 780 l 1
EndSplineSet
EndChar

StartChar: i
Encoding: 105 105 29
Width: 271
VWidth: 0
Flags: HMW
LayerCount: 2
Fore
SplineSet
58 638 m 0
 58 681 93 711 136 711 c 0
 179 711 214 681 214 638 c 0
 214 595 179 564 136 564 c 0
 93 564 58 595 58 638 c 0
72 460 m 1
 199 460 l 1
 199 0 l 1
 72 0 l 1
 72 460 l 1
EndSplineSet
EndChar

StartChar: r
Encoding: 114 114 30
Width: 390
VWidth: 0
Flags: HMW
LayerCount: 2
Fore
SplineSet
192 460 m 1
 192 0 l 1
 64 0 l 1
 64 460 l 1
 192 460 l 1
326 324 m 1
 308 340 293 350 267 350 c 0
 218 350 192 309 192 243 c 1
 156 280 l 1
 156 389 228 471 302 471 c 0
 335 471 367 459 386 435 c 1
 326 324 l 1
EndSplineSet
EndChar

StartChar: c
Encoding: 99 99 31
Width: 488
VWidth: 0
Flags: HMW
LayerCount: 2
Fore
SplineSet
163 230 m 0
 163 149 221 97 296 97 c 0
 357 97 414 126 439 170 c 1
 439 37 l 1
 407 8 354 -10 287 -10 c 0
 139 -10 30 87 30 230 c 0
 30 373 139 470 287 470 c 0
 354 470 407 451 439 424 c 1
 439 291 l 1
 414 335 353 363 296 363 c 0
 221 363 163 307 163 230 c 0
EndSplineSet
EndChar

StartChar: b
Encoding: 98 98 32
Width: 602
VWidth: 0
Flags: HMW
LayerCount: 2
Fore
SplineSet
191 780 m 1
 191 0 l 1
 61 0 l 1
 61 780 l 1
 191 780 l 1
570 230 m 0
 570 77 464 -10 348 -10 c 0
 233 -10 151 81 151 230 c 0
 151 379 233 470 348 470 c 0
 464 470 570 383 570 230 c 0
435 230 m 0
 435 312 378 363 310 363 c 0
 253 363 191 314 191 230 c 0
 191 146 253 97 310 97 c 0
 378 97 435 148 435 230 c 0
EndSplineSet
EndChar

StartChar: p
Encoding: 112 112 33
Width: 602
VWidth: 0
Flags: HMW
LayerCount: 2
Fore
SplineSet
191 -220 m 1
 61 -220 l 1
 61 460 l 1
 191 460 l 1
 191 -220 l 1
570 230 m 0
 570 72 464 -14 348 -14 c 0
 229 -14 155 81 155 230 c 0
 155 379 229 474 348 474 c 0
 464 474 570 388 570 230 c 0
435 230 m 0
 435 312 378 358 310 358 c 0
 253 358 191 314 191 230 c 0
 191 146 253 102 310 102 c 0
 378 102 435 148 435 230 c 0
EndSplineSet
EndChar

StartChar: q
Encoding: 113 113 34
Width: 602
VWidth: 0
Flags: HMW
LayerCount: 2
Fore
SplineSet
411 -220 m 1
 411 460 l 1
 541 460 l 1
 541 -220 l 1
 411 -220 l 1
33 230 m 0
 33 388 138 474 254 474 c 0
 373 474 447 379 447 230 c 0
 447 81 373 -14 254 -14 c 0
 138 -14 33 72 33 230 c 0
168 230 m 0
 168 148 224 102 292 102 c 0
 349 102 411 146 411 230 c 0
 411 314 349 358 292 358 c 0
 224 358 168 312 168 230 c 0
EndSplineSet
EndChar

StartChar: h
Encoding: 104 104 35
Width: 555
VWidth: 0
Flags: HMW
LayerCount: 2
Fore
SplineSet
194 780 m 1
 194 0 l 1
 64 0 l 1
 64 780 l 1
 194 780 l 1
361 280 m 2
 361 341 339 374 285 374 c 0
 230 374 194 337 194 280 c 1
 168 280 l 1
 168 389 225 475 333 475 c 0
 441 475 491 414 491 299 c 2
 491 0 l 1
 361 0 l 1
 361 280 l 2
EndSplineSet
EndChar

StartChar: n
Encoding: 110 110 36
Width: 559
VWidth: 0
Flags: HMW
LayerCount: 2
Fore
SplineSet
194 460 m 1
 194 0 l 1
 64 0 l 1
 64 460 l 1
 194 460 l 1
361 280 m 2
 361 341 339 374 285 374 c 0
 230 374 194 337 194 280 c 1
 168 276 l 1
 168 385 225 470 333 470 c 0
 441 470 495 409 495 294 c 2
 495 0 l 1
 361 0 l 1
 361 280 l 2
EndSplineSet
EndChar

StartChar: m
Encoding: 109 109 37
Width: 808
VWidth: 0
Flags: HMW
LayerCount: 2
Fore
SplineSet
337 280 m 2
 337 341 319 374 269 374 c 0
 218 374 190 337 190 280 c 1
 164 276 l 1
 164 385 217 470 321 470 c 0
 425 470 467 414 467 299 c 2
 467 0 l 1
 337 0 l 1
 337 280 l 2
190 460 m 1
 190 0 l 1
 64 0 l 1
 64 460 l 1
 190 460 l 1
744 294 m 2
 744 0 l 1
 614 0 l 1
 614 280 l 2
 614 341 597 374 547 374 c 0
 496 374 467 337 467 280 c 1
 419 276 l 1
 419 385 494 470 598 470 c 0
 702 470 744 409 744 294 c 2
EndSplineSet
EndChar

StartChar: k
Encoding: 107 107 38
Width: 535
VWidth: 0
Flags: HMW
LayerCount: 2
Fore
SplineSet
61 780 m 1
 187 780 l 1
 187 0 l 1
 61 0 l 1
 61 780 l 1
355 460 m 1
 511 460 l 1
 313 270 l 1
 531 0 l 1
 377 0 l 1
 157 270 l 1
 355 460 l 1
EndSplineSet
EndChar

StartChar: u
Encoding: 117 117 39
Width: 559
VWidth: 0
Flags: HMW
LayerCount: 2
Fore
SplineSet
366 0 m 1
 366 460 l 1
 495 460 l 1
 495 0 l 1
 366 0 l 1
198 180 m 2
 198 119 221 86 275 86 c 0
 330 86 366 123 366 180 c 1
 392 184 l 1
 392 75 335 -10 227 -10 c 0
 119 -10 64 51 64 166 c 2
 64 460 l 1
 198 460 l 1
 198 180 l 2
EndSplineSet
EndChar

StartChar: e
Encoding: 101 101 40
Width: 555
VWidth: 0
Flags: HMW
LayerCount: 2
Fore
SplineSet
108 201 m 1
 108 281 l 1
 382 281 l 1
 375 341 342 378 280 378 c 0
 213 378 166 333 166 256 c 1
 164 230 l 1
 164 133 214 89 282 89 c 0
 340 89 381 114 406 155 c 1
 520 120 l 1
 474 41 409 -10 281 -10 c 0
 126 -10 33 91 33 230 c 0
 33 247 34 263 37 279 c 0
 56 392 141 470 282 470 c 0
 434 470 521 381 521 236 c 0
 521 228 521 215 520 201 c 1
 108 201 l 1
EndSplineSet
EndChar

StartChar: g
Encoding: 103 103 41
Width: 598
VWidth: 0
Flags: HMW
LayerCount: 2
Fore
SplineSet
42 -32 m 1
 169 -32 l 1
 172 -92 219 -129 287 -129 c 0
 353 -129 411 -84 411 10 c 2
 411 460 l 1
 537 460 l 1
 537 10 l 2
 537 -162 423 -236 291 -236 c 0
 130 -236 50 -153 42 -32 c 1
33 234 m 0
 33 387 138 470 254 470 c 0
 369 470 452 383 452 234 c 0
 452 85 369 -1 254 -1 c 0
 138 -1 33 81 33 234 c 0
168 234 m 0
 168 152 224 106 292 106 c 0
 349 106 411 150 411 234 c 0
 411 318 349 363 292 363 c 0
 224 363 168 316 168 234 c 0
EndSplineSet
EndChar

StartChar: f
Encoding: 102 102 42
Width: 326
VWidth: 0
Flags: HMW
LayerCount: 2
Fore
SplineSet
25 460 m 1
 313 460 l 1
 313 350 l 1
 25 350 l 1
 25 460 l 1
299 650 m 1
 285 670 269 675 252 675 c 0
 222 675 204 654 204 601 c 2
 204 0 l 1
 79 0 l 1
 79 630 l 2
 79 735 134 794 240 794 c 0
 300 794 336 767 355 747 c 1
 299 650 l 1
EndSplineSet
EndChar

StartChar: s
Encoding: 115 115 43
Width: 439
VWidth: 0
Flags: HMW
LayerCount: 2
Fore
SplineSet
84 171 m 1
 146 108 198 84 230 84 c 0
 261 84 284 98 284 126 c 0
 284 165 236 181 184 200 c 0
 119 224 53 252 53 341 c 0
 53 427 127 470 218 470 c 0
 295 470 361 437 406 395 c 1
 349 314 l 1
 317 348 267 375 230 375 c 0
 196 375 174 363 174 339 c 0
 174 301 231 292 287 270 c 0
 352 244 414 211 414 130 c 0
 414 27 347 -16 245 -16 c 0
 151 -16 77 28 21 90 c 1
 84 171 l 1
EndSplineSet
EndChar

StartChar: y
Encoding: 121 121 44
Width: 496
VWidth: 0
Flags: HMW
LayerCount: 2
Fore
SplineSet
503 460 m 1
 203 -220 l 1
 69 -220 l 1
 186 46 l 1
 -6 460 l 1
 138 460 l 1
 286 94 l 1
 222 96 l 1
 367 460 l 1
 503 460 l 1
EndSplineSet
EndChar

StartChar: w
Encoding: 119 119 45
Width: 736
VWidth: 0
Flags: HMW
LayerCount: 2
Fore
SplineSet
-4 460 m 1
 134 460 l 1
 236 205 l 1
 365 495 l 1
 500 204 l 1
 602 460 l 1
 740 460 l 1
 514 -31 l 1
 366 261 l 1
 222 -31 l 1
 -4 460 l 1
EndSplineSet
EndChar

StartChar: v
Encoding: 118 118 46
Width: 500
VWidth: 0
Flags: HMW
LayerCount: 2
Fore
SplineSet
-2 460 m 1
 138 460 l 1
 250 183 l 1
 363 460 l 1
 503 460 l 1
 250 -48 l 1
 -2 460 l 1
EndSplineSet
EndChar

StartChar: x
Encoding: 120 120 47
Width: 497
VWidth: 0
Flags: HMW
LayerCount: 2
Fore
SplineSet
344 460 m 1
 488 460 l 1
 318 237 l 1
 498 0 l 1
 354 0 l 1
 251 146 l 1
 148 0 l 1
 0 0 l 1
 182 237 l 1
 10 460 l 1
 158 460 l 1
 251 327 l 1
 344 460 l 1
EndSplineSet
EndChar

StartChar: z
Encoding: 122 122 48
Width: 503
VWidth: 0
Flags: HMW
LayerCount: 2
Fore
SplineSet
270 342 m 1
 54 342 l 1
 54 460 l 1
 488 460 l 1
 242 118 l 1
 460 118 l 1
 460 0 l 1
 15 0 l 1
 270 342 l 1
EndSplineSet
EndChar

StartChar: j
Encoding: 106 106 49
Width: 265
VWidth: 0
Flags: HMW
LayerCount: 2
Fore
SplineSet
52 638 m 0
 52 681 87 711 130 711 c 0
 173 711 208 681 208 638 c 0
 208 595 173 564 130 564 c 0
 87 564 52 595 52 638 c 0
-28 -88 m 1
 -14 -108 2 -114 19 -114 c 0
 49 -114 67 -92 67 -39 c 2
 67 460 l 1
 192 460 l 1
 192 -69 l 2
 192 -174 137 -233 31 -233 c 0
 -29 -233 -65 -206 -84 -186 c 1
 -28 -88 l 1
EndSplineSet
EndChar

StartChar: P
Encoding: 80 80 50
Width: 599
VWidth: 0
Flags: HMW
LayerCount: 2
Fore
SplineSet
76 700 m 1
 219 700 l 1
 219 0 l 1
 76 0 l 1
 76 700 l 1
164 579 m 1
 164 700 l 1
 302 700 l 2
 467 700 564 615 564 477 c 0
 564 339 467 254 302 254 c 2
 164 254 l 1
 164 375 l 1
 302 375 l 2
 377 375 425 410 425 477 c 0
 425 544 377 579 302 579 c 2
 164 579 l 1
EndSplineSet
EndChar

StartChar: U
Encoding: 85 85 51
Width: 677
VWidth: 0
Flags: HMW
LayerCount: 2
Fore
SplineSet
71 700 m 1
 214 700 l 1
 214 239 l 2
 214 160 256 107 339 107 c 0
 422 107 464 160 464 239 c 2
 464 700 l 1
 607 700 l 1
 607 230 l 2
 607 65 493 -23 339 -23 c 0
 185 -23 71 65 71 230 c 2
 71 700 l 1
EndSplineSet
EndChar

StartChar: S
Encoding: 83 83 52
Width: 601
VWidth: 0
Flags: HMW
LayerCount: 2
Fore
SplineSet
141 243 m 1
 187 156 236 108 314 108 c 0
 377 108 410 137 410 190 c 0
 410 258 340 282 260 313 c 0
 191 339 75 384 75 521 c 0
 75 636 171 714 312 714 c 0
 442 714 515 639 552 562 c 1
 442 497 l 1
 412 551 369 590 308 590 c 0
 253 590 222 562 222 518 c 0
 222 464 299 439 383 408 c 0
 473 376 561 317 561 194 c 0
 561 59 456 -19 314 -19 c 0
 190 -19 80 61 36 172 c 1
 141 243 l 1
EndSplineSet
EndChar

StartChar: at
Encoding: 64 64 53
Width: 770
VWidth: 0
Flags: HMW
LayerCount: 2
Fore
SplineSet
301 320 m 0
 301 273 320 245 357 245 c 0
 396 245 444 286 444 366 c 0
 444 416 420 441 385 441 c 0
 341 441 301 389 301 320 c 0
194 314 m 0
 194 453 284 530 365 530 c 0
 441 530 488 453 488 370 c 0
 488 231 414 156 328 156 c 0
 250 156 194 215 194 314 c 0
24 320 m 0
 24 543 187 719 415 719 c 0
 629 719 746 553 746 390 c 0
 746 213 646 146 558 146 c 0
 493 146 443 200 453 266 c 1
 442 287 l 1
 469 520 l 1
 573 520 l 1
 542 302 l 2
 541 295 540 283 540 275 c 0
 540 251 546 233 570 233 c 0
 596 233 648 268 648 390 c 0
 648 519 570 630 415 630 c 0
 236 630 122 499 122 320 c 0
 122 166 212 68 374 68 c 0
 444 68 502 82 563 115 c 1
 600 35 l 1
 540 1 470 -21 365 -21 c 0
 142 -21 24 121 24 320 c 0
EndSplineSet
EndChar

StartChar: period
Encoding: 46 46 54
Width: 315
VWidth: 0
Flags: HMW
LayerCount: 2
Fore
SplineSet
76 59 m 0
 76 103 111 140 158 140 c 0
 205 140 240 103 240 59 c 0
 240 15 205 -21 158 -21 c 0
 111 -21 76 15 76 59 c 0
EndSplineSet
EndChar

StartChar: comma
Encoding: 44 44 55
Width: 318
VWidth: 0
Flags: HMW
LayerCount: 2
Fore
SplineSet
129 110 m 1
 258 78 l 1
 137 -172 l 1
 41 -149 l 1
 129 110 l 1
EndSplineSet
EndChar

StartChar: colon
Encoding: 58 58 56
Width: 315
VWidth: 0
Flags: HMW
LayerCount: 2
Fore
SplineSet
76 59 m 0
 76 103 111 140 158 140 c 0
 205 140 240 103 240 59 c 0
 240 15 205 -21 158 -21 c 0
 111 -21 76 15 76 59 c 0
76 435 m 0
 76 479 111 516 158 516 c 0
 205 516 240 479 240 435 c 0
 240 391 205 354 158 354 c 0
 111 354 76 391 76 435 c 0
EndSplineSet
EndChar

StartChar: semicolon
Encoding: 59 59 57
Width: 373
VWidth: 0
Flags: HMW
LayerCount: 2
Fore
SplineSet
121 431 m 0
 121 475 156 512 203 512 c 0
 250 512 285 475 285 431 c 0
 285 387 250 350 203 350 c 0
 156 350 121 387 121 431 c 0
144 110 m 1
 273 78 l 1
 153 -172 l 1
 56 -149 l 1
 144 110 l 1
EndSplineSet
EndChar

StartChar: quotedbl
Encoding: 34 34 58
Width: 501
VWidth: 0
Flags: HMW
LayerCount: 2
Fore
SplineSet
113 700 m 1
 253 700 l 1
 152 387 l 1
 67 387 l 1
 113 700 l 1
314 700 m 1
 455 700 l 1
 354 387 l 1
 269 387 l 1
 314 700 l 1
EndSplineSet
EndChar

StartChar: exclam
Encoding: 33 33 59
Width: 330
VWidth: 0
Flags: HMW
LayerCount: 2
Fore
SplineSet
85 700 m 1
 245 700 l 1
 217 222 l 1
 114 222 l 1
 85 700 l 1
83 55 m 0
 83 99 118 132 165 132 c 0
 212 132 247 99 247 55 c 0
 247 11 212 -21 165 -21 c 0
 118 -21 83 11 83 55 c 0
EndSplineSet
EndChar

StartChar: quotesingle
Encoding: 39 39 60
Width: 300
VWidth: 0
Flags: HMW
LayerCount: 2
Fore
SplineSet
113 700 m 1
 253 700 l 1
 152 387 l 1
 67 387 l 1
 113 700 l 1
EndSplineSet
EndChar

StartChar: numbersign
Encoding: 35 35 61
Width: 648
VWidth: 0
Flags: HMW
LayerCount: 2
Fore
SplineSet
75 421 m 1
 75 524 l 1
 613 524 l 1
 613 421 l 1
 463 421 l 0
 439 425 l 0
 238 425 l 0
 215 421 l 0
 75 421 l 1
35 181 m 1
 35 284 l 1
 173 284 l 0
 200 280 l 0
 421 280 l 0
 448 284 l 0
 573 284 l 1
 573 181 l 1
 35 181 l 1
468 700 m 1
 582 700 l 1
 412 0 l 1
 298 0 l 1
 353 225 l 0
 363 249 l 0
 413 458 l 0
 415 484 l 0
 468 700 l 1
236 700 m 1
 350 700 l 1
 298 486 l 0
 287 459 l 0
 236 249 l 0
 235 226 l 0
 180 0 l 1
 66 0 l 1
 236 700 l 1
EndSplineSet
EndChar

StartChar: hyphen
Encoding: 45 45 62
Width: 218
VWidth: 0
Flags: HMW
LayerCount: 2
Fore
SplineSet
5 181 m 1
 5 294 l 1
 214 294 l 1
 214 181 l 1
 5 181 l 1
EndSplineSet
EndChar

StartChar: dollar
Encoding: 36 36 63
Width: 609
VWidth: 0
Flags: HMW
LayerCount: 2
Fore
SplineSet
261 818 m 1
 370 818 l 1
 365 646 l 1
 265 646 l 1
 261 818 l 1
265 58 m 1
 365 58 l 1
 369 -112 l 1
 261 -112 l 1
 265 58 l 1
446 497 m 1
 416 555 377 599 317 599 c 0
 254 599 227 569 227 525 c 0
 227 461 302 440 387 408 c 0
 475 376 565 317 565 194 c 0
 565 66 470 -10 314 -10 c 0
 190 -10 84 70 40 172 c 1
 145 243 l 1
 191 156 241 108 319 108 c 0
 384 108 414 138 414 191 c 0
 414 257 345 282 264 313 c 0
 194 339 79 394 79 527 c 0
 79 627 176 710 312 710 c 0
 447 710 518 636 556 562 c 1
 446 497 l 1
EndSplineSet
EndChar

StartChar: bar
Encoding: 124 124 64
Width: 328
VWidth: 0
Flags: HMW
LayerCount: 2
Fore
SplineSet
100 785 m 1
 229 785 l 1
 229 -215 l 1
 100 -215 l 1
 100 785 l 1
EndSplineSet
EndChar

StartChar: zero
Encoding: 48 48 65
Width: 643
VWidth: 0
Flags: HMW
LayerCount: 2
Fore
SplineSet
179 350 m 0
 179 209 236 113 322 113 c 0
 408 113 464 209 464 350 c 0
 464 491 408 587 322 587 c 0
 236 587 179 491 179 350 c 0
40 350 m 0
 40 572 155 712 322 712 c 0
 493 712 603 572 603 350 c 0
 603 128 493 -12 322 -12 c 0
 155 -12 40 128 40 350 c 0
EndSplineSet
Substitution2: "Tabular Numbers lookup" uniFF10
EndChar

StartChar: one
Encoding: 49 49 66
Width: 491
VWidth: 0
Flags: HMW
LayerCount: 2
Fore
SplineSet
71 517 m 1
 71 647 l 1
 378 712 l 1
 378 0 l 1
 239 0 l 1
 239 561 l 1
 71 517 l 1
EndSplineSet
Substitution2: "Tabular Numbers lookup" uniFF11
EndChar

StartChar: two
Encoding: 50 50 67
Width: 629
VWidth: 0
Flags: HMW
LayerCount: 2
Fore
SplineSet
20 0 m 1
 338 332 l 2
 391 389 423 432 423 488 c 0
 423 538 385 588 315 588 c 0
 242 588 197 531 197 447 c 1
 56 447 l 1
 56 596 147 713 318 713 c 0
 485 713 571 596 571 497 c 0
 571 423 531 356 472 303 c 2
 291 132 l 1
 583 132 l 1
 583 0 l 1
 20 0 l 1
EndSplineSet
Substitution2: "Tabular Numbers lookup" uniFF12
EndChar

StartChar: four
Encoding: 52 52 68
Width: 663
VWidth: 0
Flags: HMW
LayerCount: 2
Fore
SplineSet
16 129 m 1
 417 700 l 1
 514 700 l 1
 514 0 l 1
 367 0 l 1
 367 176 l 1
 380 187 l 1
 380 472 l 1
 214 237 l 1
 464 237 l 1
 481 252 l 1
 624 252 l 1
 624 129 l 1
 16 129 l 1
EndSplineSet
Substitution2: "Tabular Numbers lookup" uniFF14
EndChar

StartChar: slash
Encoding: 47 47 69
Width: 579
VWidth: 0
Flags: HMW
LayerCount: 2
Fore
SplineSet
439 700 m 1
 565 700 l 1
 145 -150 l 1
 15 -150 l 1
 439 700 l 1
EndSplineSet
EndChar

StartChar: backslash
Encoding: 92 92 70
Width: 536
VWidth: 0
Flags: HMW
LayerCount: 2
Fore
SplineSet
15 700 m 1
 143 700 l 1
 522 0 l 1
 393 0 l 1
 15 700 l 1
EndSplineSet
EndChar

StartChar: eight
Encoding: 56 56 71
Width: 602
VWidth: 0
Flags: HMW
LayerCount: 2
Fore
SplineSet
78 531 m 0
 78 643 178 714 301 714 c 0
 424 714 524 643 524 531 c 0
 524 409 416 346 301 346 c 0
 186 346 78 409 78 531 c 0
213 517 m 0
 213 464 252 427 301 427 c 0
 350 427 389 464 389 517 c 0
 389 570 353 607 301 607 c 0
 249 607 213 570 213 517 c 0
53 190 m 0
 53 332 186 394 301 394 c 0
 416 394 549 332 549 190 c 0
 549 68 435 -14 301 -14 c 0
 167 -14 53 68 53 190 c 0
194 211 m 0
 194 142 244 104 301 104 c 0
 358 104 408 142 408 211 c 0
 408 270 358 316 301 316 c 0
 244 316 194 270 194 211 c 0
EndSplineSet
Substitution2: "Tabular Numbers lookup" uniFF18
EndChar

StartChar: nine
Encoding: 57 57 72
Width: 640
VWidth: 0
Flags: HMW
LayerCount: 2
Fore
SplineSet
450 459 m 0
 450 538 394 591 320 591 c 0
 246 591 191 538 191 459 c 0
 191 380 246 326 320 326 c 0
 394 326 450 380 450 459 c 0
309 2 m 1
 127 2 l 1
 352 266 l 1
 377 275 l 1
 343 240 311 232 263 232 c 0
 155 232 50 321 50 459 c 0
 50 622 170 714 320 714 c 0
 470 714 591 622 591 459 c 0
 591 389 561 330 521 280 c 2
 309 2 l 1
EndSplineSet
Substitution2: "Tabular Numbers lookup" uniFF19
EndChar

StartChar: three
Encoding: 51 51 73
Width: 597
VWidth: 0
Flags: HMW
LayerCount: 2
Fore
SplineSet
268 341 m 1
 268 410 l 1
 349 410 401 457 401 512 c 0
 401 561 372 595 314 595 c 0
 258 595 214 556 214 504 c 1
 81 504 l 1
 81 624 174 712 313 712 c 0
 459 712 544 626 544 521 c 0
 544 407 425 341 268 341 c 1
307 -14 m 0
 148 -14 51 91 51 211 c 1
 194 211 l 1
 194 143 246 105 311 105 c 0
 376 105 421 139 421 204 c 0
 421 271 367 312 268 312 c 1
 268 388 l 1
 438 388 564 330 564 189 c 0
 564 68 464 -14 307 -14 c 0
EndSplineSet
Substitution2: "Tabular Numbers lookup" uniFF13
EndChar

StartChar: five
Encoding: 53 53 74
Width: 620
VWidth: 0
Flags: HMW
LayerCount: 2
Fore
SplineSet
580 226 m 0
 580 63 444 -12 309 -12 c 0
 180 -12 98 38 39 96 c 1
 106 208 l 1
 154 157 223 120 283 120 c 0
 372 120 425 162 425 239 c 0
 425 316 358 355 283 355 c 0
 225 355 163 345 92 305 c 1
 188 700 l 1
 570 700 l 1
 570 575 l 1
 294 575 l 1
 252 432 l 1
 288 450 328 457 369 457 c 0
 483 457 580 369 580 226 c 0
EndSplineSet
Substitution2: "Tabular Numbers lookup" uniFF15
EndChar

StartChar: six
Encoding: 54 54 75
Width: 640
VWidth: 0
Flags: HMW
LayerCount: 2
Fore
SplineSet
191 241 m 0
 191 162 246 109 320 109 c 0
 394 109 450 162 450 241 c 0
 450 320 394 374 320 374 c 0
 246 374 191 320 191 241 c 0
332 698 m 1
 514 698 l 1
 289 434 l 1
 264 425 l 1
 298 460 329 468 377 468 c 0
 485 468 591 379 591 241 c 0
 591 78 470 -14 320 -14 c 0
 170 -14 50 78 50 241 c 0
 50 311 80 370 120 420 c 2
 332 698 l 1
EndSplineSet
Substitution2: "Tabular Numbers lookup" uniFF16
EndChar

StartChar: seven
Encoding: 55 55 76
Width: 579
VWidth: 0
Flags: HMW
LayerCount: 2
Fore
SplineSet
30 566 m 1
 30 700 l 1
 576 700 l 1
 239 0 l 1
 85 0 l 1
 365 566 l 1
 30 566 l 1
EndSplineSet
Substitution2: "Tabular Numbers lookup" uniFF17
EndChar

StartChar: plus
Encoding: 43 43 77
Width: 656
VWidth: 0
Flags: HMW
LayerCount: 2
Fore
SplineSet
65 202 m 1
 65 327 l 1
 591 327 l 1
 591 202 l 1
 65 202 l 1
261 528 m 1
 395 528 l 1
 395 1 l 1
 261 1 l 1
 261 528 l 1
EndSplineSet
EndChar

StartChar: equal
Encoding: 61 61 78
Width: 622
VWidth: 0
Flags: HMW
LayerCount: 2
Fore
SplineSet
59 101 m 1
 59 215 l 1
 564 215 l 1
 564 101 l 1
 59 101 l 1
59 290 m 1
 59 404 l 1
 564 404 l 1
 564 290 l 1
 59 290 l 1
EndSplineSet
EndChar

StartChar: percent
Encoding: 37 37 79
Width: 867
VWidth: 0
Flags: HMW
LayerCount: 2
Fore
SplineSet
26 539 m 0
 26 637 102 716 206 716 c 0
 310 716 386 637 386 539 c 0
 386 441 310 362 206 362 c 0
 102 362 26 441 26 539 c 0
135 539 m 0
 135 498 163 464 206 464 c 0
 249 464 277 498 277 539 c 0
 277 580 249 614 206 614 c 0
 163 614 135 580 135 539 c 0
482 161 m 0
 482 259 558 339 662 339 c 0
 766 339 842 259 842 161 c 0
 842 63 766 -16 662 -16 c 0
 558 -16 482 63 482 161 c 0
591 161 m 0
 591 120 619 86 662 86 c 0
 705 86 733 120 733 161 c 0
 733 202 705 236 662 236 c 0
 619 236 591 202 591 161 c 0
624 700 m 1
 755 700 l 1
 244 0 l 1
 113 0 l 1
 624 700 l 1
EndSplineSet
EndChar

StartChar: ampersand
Encoding: 38 38 80
Width: 728
VWidth: 0
Flags: HMW
LayerCount: 2
Fore
SplineSet
223 375 m 2
 180 422 123 474 123 547 c 0
 123 637 201 715 325 715 c 0
 448 715 517 634 517 550 c 0
 517 466 458 420 352 352 c 0
 280 307 176 284 176 197 c 0
 176 140 223 99 294 99 c 0
 412 99 521 207 606 333 c 1
 695 267 l 1
 602 136 470 -12 278 -12 c 0
 150 -12 40 63 40 186 c 0
 40 342 210 384 280 419 c 0
 355 457 397 500 397 540 c 0
 397 578 369 610 324 610 c 0
 275 610 251 579 251 541 c 0
 251 499 291 463 341 408 c 2
 711 0 l 1
 561 0 l 1
 223 375 l 2
EndSplineSet
EndChar

StartChar: question
Encoding: 63 63 81
Width: 605
VWidth: 0
Flags: HMW
LayerCount: 2
Fore
SplineSet
419 500 m 0
 419 567 373 605 296 605 c 0
 233 605 177 573 142 519 c 1
 51 590 l 1
 114 669 187 716 306 716 c 0
 435 716 550 632 550 500 c 0
 550 380 444 301 336 287 c 1
 331 192 l 1
 228 192 l 1
 208 369 l 1
 238 369 l 2
 358 369 419 441 419 500 c 0
198 53 m 0
 198 93 233 127 280 127 c 0
 327 127 363 93 363 53 c 0
 363 13 327 -21 280 -21 c 0
 233 -21 198 13 198 53 c 0
EndSplineSet
EndChar

StartChar: parenleft
Encoding: 40 40 82
Width: 331
VWidth: 0
Flags: HMW
LayerCount: 2
Fore
SplineSet
194 780 m 1
 312 780 l 1
 242 630 206 460 206 290 c 0
 206 120 242 -50 312 -200 c 1
 194 -200 l 1
 114 -50 75 120 75 290 c 0
 75 460 114 630 194 780 c 1
EndSplineSet
EndChar

StartChar: parenright
Encoding: 41 41 83
Width: 331
VWidth: 0
Flags: HMW
LayerCount: 2
Fore
SplineSet
137 -200 m 1
 19 -200 l 1
 89 -50 126 120 126 290 c 0
 126 460 89 630 19 780 c 1
 137 780 l 1
 217 630 257 460 257 290 c 0
 257 120 217 -50 137 -200 c 1
EndSplineSet
EndChar

StartChar: asterisk
Encoding: 42 42 84
Width: 592
VWidth: 0
Flags: HMW
LayerCount: 2
Fore
SplineSet
490 602 m 1
 526 490 l 1
 307 445 l 1
 285 509 l 1
 490 602 l 1
475 331 m 1
 379 262 l 1
 269 457 l 1
 323 497 l 1
 475 331 l 1
213 262 m 1
 117 331 l 1
 269 497 l 1
 323 457 l 1
 213 262 l 1
66 490 m 1
 102 602 l 1
 307 509 l 1
 285 445 l 1
 66 490 l 1
237 700 m 1
 355 700 l 1
 330 477 l 1
 262 477 l 1
 237 700 l 1
EndSplineSet
EndChar

StartChar: less
Encoding: 60 60 85
Width: 640
VWidth: 0
Flags: HMW
LayerCount: 2
Fore
SplineSet
255 266 m 1
 575 132 l 1
 575 4 l 1
 65 220 l 1
 65 304 l 1
 575 519 l 1
 575 392 l 1
 255 266 l 1
EndSplineSet
EndChar

StartChar: greater
Encoding: 62 62 86
Width: 640
VWidth: 0
Flags: HMW
LayerCount: 2
Fore
SplineSet
385 258 m 1
 65 392 l 1
 65 519 l 1
 575 304 l 1
 575 220 l 1
 65 4 l 1
 65 132 l 1
 385 258 l 1
EndSplineSet
EndChar

StartChar: bracketleft
Encoding: 91 91 87
Width: 343
VWidth: 0
Flags: HMW
LayerCount: 2
Fore
SplineSet
222 666 m 1
 222 -106 l 1
 323 -106 l 1
 323 -220 l 1
 94 -220 l 1
 94 780 l 1
 323 780 l 1
 323 666 l 1
 222 666 l 1
EndSplineSet
EndChar

StartChar: bracketright
Encoding: 93 93 88
Width: 343
VWidth: 0
Flags: HMW
LayerCount: 2
Fore
SplineSet
121 -106 m 1
 121 666 l 1
 20 666 l 1
 20 780 l 1
 250 780 l 1
 250 -220 l 1
 20 -220 l 1
 20 -106 l 1
 121 -106 l 1
EndSplineSet
EndChar

StartChar: asciicircum
Encoding: 94 94 89
Width: 510
VWidth: 0
Flags: HMW
LayerCount: 2
Fore
SplineSet
255 593 m 1
 167 451 l 1
 48 451 l 1
 218 710 l 1
 292 710 l 1
 462 451 l 1
 343 451 l 1
 255 593 l 1
EndSplineSet
EndChar

StartChar: underscore
Encoding: 95 95 90
Width: 521
VWidth: 0
Flags: HMW
LayerCount: 2
Fore
SplineSet
0 -147 m 1
 0 -64 l 1
 522 -64 l 1
 522 -147 l 1
 0 -147 l 1
EndSplineSet
EndChar

StartChar: grave
Encoding: 96 96 91
Width: 375
VWidth: 0
Flags: HMW
LayerCount: 2
Fore
SplineSet
60 656 m 1
 163 704 l 1
 313 544 l 1
 240 506 l 1
 60 656 l 1
EndSplineSet
EndChar

StartChar: braceleft
Encoding: 123 123 92
Width: 371
VWidth: 0
Flags: HMW
LayerCount: 2
Fore
SplineSet
239 625 m 2
 239 490 l 2
 239 401 235 280 104 280 c 1
 104 300 l 1
 235 300 239 179 239 90 c 2
 239 -45 l 2
 239 -71 257 -95 287 -95 c 2
 322 -95 l 1
 322 -200 l 1
 240 -200 l 2
 170 -200 98 -159 98 -60 c 2
 98 133 l 2
 98 209 80 233 41 243 c 1
 41 337 l 1
 80 347 98 371 98 447 c 2
 98 640 l 2
 98 739 170 780 240 780 c 2
 322 780 l 1
 322 675 l 1
 287 675 l 2
 257 675 239 651 239 625 c 2
EndSplineSet
EndChar

StartChar: braceright
Encoding: 125 125 93
Width: 371
VWidth: 0
Flags: HMW
LayerCount: 2
Fore
SplineSet
138 -45 m 2
 138 90 l 2
 138 179 142 300 273 300 c 1
 273 280 l 1
 142 280 138 401 138 490 c 2
 138 625 l 2
 138 651 120 675 90 675 c 2
 55 675 l 1
 55 780 l 1
 137 780 l 2
 207 780 279 739 279 640 c 2
 279 447 l 2
 279 371 296 347 335 337 c 1
 335 243 l 1
 296 233 279 209 279 133 c 2
 279 -60 l 2
 279 -159 207 -200 137 -200 c 2
 55 -200 l 1
 55 -95 l 1
 90 -95 l 2
 120 -95 138 -71 138 -45 c 2
EndSplineSet
EndChar

StartChar: asciitilde
Encoding: 126 126 94
Width: 575
VWidth: 0
Flags: HMW
LayerCount: 2
Fore
SplineSet
152 167 m 1
 46 172 l 1
 44 179 43 187 43 196 c 0
 43 226 51 256 73 284 c 0
 100 319 135 340 194 340 c 0
 237 340 272 324 318 292 c 0
 349 270 372 258 390 258 c 0
 414 258 426 275 426 300 c 0
 426 310 423 322 419 332 c 1
 528 327 l 1
 530 319 532 309 532 299 c 0
 532 270 526 237 505 210 c 0
 479 176 447 159 398 159 c 0
 360 159 324 176 277 208 c 0
 246 230 218 242 193 242 c 0
 160 242 147 220 147 194 c 0
 147 183 149 175 152 167 c 1
EndSplineSet
EndChar

StartChar: exclamdown
Encoding: 161 161 95
Width: 330
VWidth: 0
Flags: HMW
LayerCount: 2
Fore
SplineSet
245 -234 m 1
 85 -234 l 1
 114 244 l 1
 217 244 l 1
 245 -234 l 1
247 411 m 0
 247 367 212 334 165 334 c 0
 118 334 83 367 83 411 c 0
 83 455 118 487 165 487 c 0
 212 487 247 455 247 411 c 0
EndSplineSet
EndChar

StartChar: cent
Encoding: 162 162 96
Width: 580
VWidth: 0
Flags: HMW
LayerCount: 2
Fore
SplineSet
250 38 m 1
 346 38 l 1
 353 -112 l 1
 243 -112 l 1
 250 38 l 1
192 230 m 0
 192 147 252 97 325 97 c 0
 390 97 443 130 468 171 c 1
 468 36 l 1
 436 7 380 -10 317 -10 c 0
 169 -10 59 87 59 230 c 0
 59 373 169 470 317 470 c 0
 380 470 436 452 468 424 c 1
 468 289 l 1
 443 330 390 363 325 363 c 0
 252 363 192 309 192 230 c 0
243 578 m 1
 353 578 l 1
 346 428 l 1
 250 428 l 1
 243 578 l 1
EndSplineSet
EndChar

StartChar: sterling
Encoding: 163 163 97
Width: 601
VWidth: 0
Flags: HMW
LayerCount: 2
Fore
SplineSet
67 370 m 1
 440 370 l 1
 440 278 l 1
 67 278 l 1
 67 370 l 1
439 470 m 1
 435 530 407 591 330 591 c 0
 279 591 231 566 231 503 c 0
 231 409 324 380 324 268 c 0
 324 162 217 70 143 50 c 1
 180 121 l 1
 532 121 l 1
 532 0 l 1
 55 0 l 1
 153 102 198 178 198 275 c 0
 198 369 94 397 94 520 c 0
 94 639 197 710 325 710 c 0
 471 710 551 598 556 514 c 1
 439 470 l 1
EndSplineSet
EndChar

StartChar: currency
Encoding: 164 164 98
Width: 577
VWidth: 0
Flags: HMW
LayerCount: 2
Fore
SplineSet
27 503 m 1
 86 562 l 1
 183 463 l 1
 126 406 l 1
 27 503 l 1
86 38 m 1
 27 97 l 1
 126 194 l 1
 183 137 l 1
 86 38 l 1
452 406 m 1
 394 463 l 1
 492 562 l 1
 550 503 l 1
 452 406 l 1
394 137 m 1
 452 194 l 1
 550 97 l 1
 492 38 l 1
 394 137 l 1
51 300 m 0
 51 439 154 540 289 540 c 0
 424 540 527 439 527 300 c 0
 527 161 424 60 289 60 c 0
 154 60 51 161 51 300 c 0
171 300 m 0
 171 228 221 178 289 178 c 0
 357 178 407 228 407 300 c 0
 407 372 357 422 289 422 c 0
 221 422 171 372 171 300 c 0
EndSplineSet
EndChar

StartChar: yen
Encoding: 165 165 99
Width: 641
VWidth: 0
Flags: HMW
LayerCount: 2
Fore
SplineSet
45 273 m 1
 45 365 l 1
 593 365 l 1
 593 273 l 1
 45 273 l 1
45 123 m 1
 45 215 l 1
 593 215 l 1
 593 123 l 1
 45 123 l 1
471 700 m 1
 634 700 l 1
 395 293 l 1
 395 0 l 1
 248 0 l 1
 248 290 l 1
 6 700 l 1
 171 700 l 1
 320 418 l 1
 471 700 l 1
EndSplineSet
EndChar

StartChar: brokenbar
Encoding: 166 166 100
Width: 328
VWidth: 0
Flags: HMW
LayerCount: 2
Fore
SplineSet
100 695 m 1
 229 695 l 1
 229 438 l 1
 100 438 l 1
 100 695 l 1
229 262 m 1
 229 5 l 1
 100 5 l 1
 100 262 l 1
 229 262 l 1
EndSplineSet
EndChar

StartChar: section
Encoding: 167 167 101
Width: 525
VWidth: 0
Flags: HMW
LayerCount: 2
Fore
SplineSet
373 558 m 1
 348 591 301 609 268 609 c 0
 232 609 211 597 211 575 c 0
 211 546 263 532 316 515 c 0
 389 492 449 447 449 376 c 0
 449 274 355 232 250 232 c 1
 250 272 l 1
 291 276 328 310 328 350 c 0
 328 403 265 421 212 442 c 0
 152 465 87 501 87 582 c 0
 87 672 176 720 261 720 c 0
 339 720 417 683 442 639 c 1
 373 558 l 1
118 170 m 1
 156 118 215 91 259 91 c 0
 300 91 321 106 321 133 c 0
 321 170 276 184 222 201 c 0
 150 223 77 265 77 342 c 0
 77 431 166 480 280 480 c 1
 280 445 l 1
 233 429 200 410 200 369 c 0
 200 307 274 296 325 275 c 0
 390 248 452 206 452 130 c 0
 452 27 361 -19 262 -19 c 0
 160 -19 84 28 48 90 c 1
 118 170 l 1
EndSplineSet
EndChar

StartChar: dieresis
Encoding: 168 168 102
Width: 498
VWidth: 0
Flags: HMW
LayerCount: 2
Fore
SplineSet
286 641 m 0
 286 684 321 714 364 714 c 0
 407 714 442 684 442 641 c 0
 442 598 407 567 364 567 c 0
 321 567 286 598 286 641 c 0
56 641 m 0
 56 684 91 714 134 714 c 0
 177 714 212 684 212 641 c 0
 212 598 177 567 134 567 c 0
 91 567 56 598 56 641 c 0
EndSplineSet
EndChar

StartChar: copyright
Encoding: 169 169 103
Width: 800
VWidth: 0
Flags: HMW
LayerCount: 2
Fore
SplineSet
274 350 m 0
 274 266 333 214 409 214 c 0
 468 214 509 240 537 272 c 1
 537 175 l 1
 503 147 466 131 405 131 c 0
 276 131 180 221 180 350 c 0
 180 479 276 569 405 569 c 0
 466 569 503 553 537 525 c 1
 537 428 l 1
 509 460 468 486 409 486 c 0
 333 486 274 434 274 350 c 0
95 350 m 0
 95 172 227 40 400 40 c 0
 573 40 705 172 705 350 c 0
 705 528 573 660 400 660 c 0
 227 660 95 528 95 350 c 0
40 350 m 0
 40 559 196 710 400 710 c 0
 604 710 760 559 760 350 c 0
 760 141 604 -10 400 -10 c 0
 196 -10 40 141 40 350 c 0
EndSplineSet
EndChar

StartChar: registered
Encoding: 174 174 104
Width: 800
VWidth: 0
Flags: HMW
LayerCount: 2
Fore
SplineSet
368 337 m 1
 451 337 l 1
 579 150 l 1
 477 150 l 1
 368 337 l 1
260 570 m 1
 346 570 l 1
 346 150 l 1
 260 150 l 1
 260 570 l 1
312 496 m 1
 312 570 l 1
 401 570 l 2
 500 570 558 516 558 441 c 0
 558 361 500 307 401 307 c 2
 312 307 l 1
 312 375 l 1
 396 375 l 2
 441 375 470 396 470 436 c 0
 470 476 441 497 396 497 c 2
 312 496 l 1
95 350 m 0
 95 172 227 40 400 40 c 0
 573 40 705 172 705 350 c 0
 705 528 573 660 400 660 c 0
 227 660 95 528 95 350 c 0
40 350 m 0
 40 559 196 710 400 710 c 0
 604 710 760 559 760 350 c 0
 760 141 604 -10 400 -10 c 0
 196 -10 40 141 40 350 c 0
EndSplineSet
EndChar

StartChar: ordfeminine
Encoding: 170 170 105
Width: 260
VWidth: 0
Flags: HMW
LayerCount: 2
Fore
SplineSet
84 531 m 0
 84 513 96 501 122 501 c 0
 151 501 178 513 178 552 c 1
 186 525 l 1
 186 481 149 455 101 455 c 0
 55 455 18 482 18 529 c 0
 18 575 63 606 117 606 c 0
 155 606 185 590 194 580 c 1
 194 548 l 1
 175 562 157 569 130 569 c 0
 102 569 84 552 84 531 c 0
63 631 m 1
 39 678 l 1
 62 690 98 705 140 705 c 0
 199 705 241 679 241 632 c 2
 241 460 l 1
 178 460 l 1
 178 618 l 2
 178 639 160 653 135 653 c 0
 102 653 74 638 63 631 c 1
EndSplineSet
EndChar

StartChar: ordmasculine
Encoding: 186 186 106
Width: 278
VWidth: 0
Flags: HMW
LayerCount: 2
Fore
SplineSet
19 580 m 0
 19 652 73 700 146 700 c 0
 219 700 274 652 274 580 c 0
 274 508 219 460 146 460 c 0
 73 460 19 508 19 580 c 0
85 580 m 0
 85 541 112 515 146 515 c 0
 180 515 208 541 208 580 c 0
 208 619 180 645 146 645 c 0
 112 645 85 619 85 580 c 0
EndSplineSet
EndChar

StartChar: guillemotleft
Encoding: 171 171 107
Width: 531
VWidth: 0
Flags: HMW
LayerCount: 2
Fore
SplineSet
333 259 m 1
 483 65 l 1
 403 7 l 1
 222 255 l 1
 403 503 l 1
 483 445 l 1
 333 259 l 1
143 259 m 1
 293 65 l 1
 213 7 l 1
 31 255 l 1
 213 503 l 1
 293 445 l 1
 143 259 l 1
EndSplineSet
EndChar

StartChar: guillemotright
Encoding: 187 187 108
Width: 531
VWidth: 0
Flags: HMW
LayerCount: 2
Fore
SplineSet
198 251 m 1
 48 445 l 1
 129 503 l 1
 310 255 l 1
 129 7 l 1
 48 65 l 1
 198 251 l 1
389 251 m 1
 239 445 l 1
 319 503 l 1
 500 255 l 1
 319 7 l 1
 239 65 l 1
 389 251 l 1
EndSplineSet
EndChar

StartChar: uni00AD
Encoding: 173 173 109
Width: 210
VWidth: 0
Flags: HMW
LayerCount: 2
Fore
SplineSet
5 200 m 1
 5 275 l 1
 205 275 l 1
 205 200 l 1
 5 200 l 1
EndSplineSet
EndChar

StartChar: logicalnot
Encoding: 172 172 110
Width: 641
VWidth: 0
Flags: HMW
LayerCount: 2
Fore
SplineSet
65 281 m 1
 65 394 l 1
 576 394 l 1
 576 175 l 1
 480 175 l 1
 480 281 l 1
 65 281 l 1
EndSplineSet
EndChar

StartChar: macron
Encoding: 175 175 111
Width: 525
VWidth: 0
Flags: HMW
LayerCount: 2
Fore
SplineSet
80 581 m 1
 80 694 l 1
 445 694 l 1
 445 581 l 1
 80 581 l 1
EndSplineSet
EndChar

StartChar: degree
Encoding: 176 176 112
Width: 290
VWidth: 0
Flags: HMW
LayerCount: 2
Fore
SplineSet
18 598 m 0
 18 670 72 720 145 720 c 0
 218 720 273 670 273 598 c 0
 273 526 218 476 145 476 c 0
 72 476 18 526 18 598 c 0
82 598 m 0
 82 559 109 532 145 532 c 0
 181 532 209 559 209 598 c 0
 209 637 181 664 145 664 c 0
 109 664 82 637 82 598 c 0
EndSplineSet
EndChar

StartChar: plusminus
Encoding: 177 177 113
Width: 627
VWidth: 0
Flags: HMW
LayerCount: 2
Fore
SplineSet
65 4 m 1
 65 119 l 1
 563 119 l 1
 563 4 l 1
 65 4 l 1
65 336 m 1
 65 455 l 1
 563 455 l 1
 563 336 l 1
 65 336 l 1
248 620 m 1
 380 620 l 1
 380 172 l 1
 248 172 l 1
 248 620 l 1
EndSplineSet
EndChar

StartChar: uni00B2
Encoding: 178 178 114
Width: 389
VWidth: 0
Flags: HMW
LayerCount: 2
Fore
SplineSet
25 282 m 1
 216 481 l 2
 248 515 267 541 267 575 c 0
 267 605 246 635 204 635 c 0
 160 635 131 601 131 550 c 1
 46 550 l 1
 46 639 104 710 207 710 c 0
 307 710 355 639 355 577 c 0
 355 533 331 495 296 463 c 2
 188 361 l 1
 363 361 l 1
 363 282 l 1
 25 282 l 1
EndSplineSet
EndChar

StartChar: uni00B3
Encoding: 179 179 115
Width: 348
VWidth: 0
Flags: HMW
LayerCount: 2
Fore
SplineSet
150 484 m 1
 150 526 l 1
 199 526 230 554 230 588 c 0
 230 618 212 637 177 637 c 0
 143 637 118 615 118 583 c 1
 38 583 l 1
 38 654 95 707 178 707 c 0
 266 707 316 655 316 592 c 0
 316 524 244 484 150 484 c 1
173 271 m 0
 78 271 20 336 20 407 c 1
 106 407 l 1
 106 366 137 343 176 343 c 0
 215 343 242 362 242 402 c 0
 242 442 209 467 150 467 c 1
 150 513 l 1
 252 513 328 478 328 394 c 0
 328 322 267 271 173 271 c 0
EndSplineSet
EndChar

StartChar: acute
Encoding: 180 180 116
Width: 375
VWidth: 0
Flags: HMW
LayerCount: 2
Fore
SplineSet
313 656 m 1
 133 506 l 1
 60 544 l 1
 210 704 l 1
 313 656 l 1
EndSplineSet
EndChar

StartChar: mu
Encoding: 181 181 117
Width: 559
VWidth: 0
Flags: HMW
LayerCount: 2
Fore
SplineSet
366 0 m 1
 366 460 l 1
 495 460 l 1
 495 0 l 1
 366 0 l 1
198 180 m 2
 198 119 221 86 275 86 c 0
 330 86 366 123 366 180 c 1
 397 184 l 1
 397 75 335 -10 227 -10 c 0
 119 -10 64 51 64 166 c 2
 64 460 l 1
 198 460 l 1
 198 180 l 2
64 460 m 1
 190 460 l 1
 190 -320 l 1
 64 -320 l 1
 64 460 l 1
EndSplineSet
EndChar

StartChar: paragraph
Encoding: 182 182 118
Width: 642
VWidth: 0
Flags: HMW
LayerCount: 2
Fore
SplineSet
288 616 m 1
 288 700 l 1
 510 700 l 1
 510 616 l 1
 288 616 l 1
470 700 m 1
 583 700 l 1
 583 -220 l 1
 470 -220 l 1
 470 700 l 1
288 700 m 1
 401 700 l 1
 401 -220 l 1
 288 -220 l 1
 288 700 l 1
288 270 m 1
 163 270 60 346 60 485 c 0
 60 624 163 700 288 700 c 1
 288 270 l 1
EndSplineSet
EndChar

StartChar: periodcentered
Encoding: 183 183 119
Width: 315
VWidth: 0
Flags: HMW
LayerCount: 2
Fore
SplineSet
76 259 m 0
 76 303 111 340 158 340 c 0
 205 340 240 303 240 259 c 0
 240 215 205 179 158 179 c 0
 111 179 76 215 76 259 c 0
EndSplineSet
EndChar

StartChar: uni00B9
Encoding: 185 185 120
Width: 478
VWidth: 0
Flags: HMW
LayerCount: 2
Fore
SplineSet
139 584 m 1
 139 662 l 1
 323 701 l 1
 323 274 l 1
 240 274 l 1
 240 611 l 1
 139 584 l 1
EndSplineSet
EndChar

StartChar: cedilla
Encoding: 184 184 121
Width: 380
VWidth: 0
Flags: HMW
LayerCount: 2
Fore
SplineSet
187 68 m 1
 283 65 l 1
 203 -54 l 1
 212 -52 221 -51 231 -51 c 0
 269 -51 317 -81 317 -142 c 0
 317 -211 254 -246 193 -246 c 0
 143 -246 107 -236 66 -207 c 1
 108 -147 l 1
 131 -165 157 -172 179 -172 c 0
 213 -172 232 -160 232 -136 c 0
 232 -110 207 -102 175 -102 c 0
 165 -102 132 -105 101 -119 c 1
 187 68 l 1
EndSplineSet
EndChar

StartChar: questiondown
Encoding: 191 191 122
Width: 605
VWidth: 0
Flags: HMW
LayerCount: 2
Fore
SplineSet
186 200 m 0
 186 133 233 95 310 95 c 0
 373 95 428 127 463 181 c 1
 554 110 l 1
 491 31 419 -16 300 -16 c 0
 171 -16 56 68 56 200 c 0
 56 320 161 399 269 413 c 1
 275 508 l 1
 378 508 l 1
 398 331 l 1
 368 331 l 2
 248 331 186 259 186 200 c 0
407 647 m 0
 407 607 372 573 325 573 c 0
 278 573 243 607 243 647 c 0
 243 687 278 721 325 721 c 0
 372 721 407 687 407 647 c 0
EndSplineSet
EndChar

StartChar: multiply
Encoding: 215 215 123
Width: 596
VWidth: 0
Flags: HMW
LayerCount: 2
Fore
SplineSet
134 9 m 1
 52 91 l 1
 221 255 l 1
 52 419 l 1
 134 501 l 1
 298 332 l 1
 462 501 l 1
 544 419 l 1
 375 255 l 1
 544 91 l 1
 462 9 l 1
 298 178 l 1
 134 9 l 1
EndSplineSet
EndChar

StartChar: Oslash
Encoding: 216 216 124
Width: 790
VWidth: 0
Flags: HMW
LayerCount: 2
Fore
SplineSet
188 350 m 0
 188 214 277 120 406 120 c 0
 535 120 624 214 624 350 c 0
 624 486 535 580 406 580 c 0
 277 580 188 486 188 350 c 0
36 350 m 0
 36 563 193 714 406 714 c 0
 619 714 776 563 776 350 c 0
 776 137 619 -19 406 -19 c 0
 193 -19 36 137 36 350 c 0
694 754 m 1
 762 706 l 1
 113 -54 l 1
 46 -6 l 1
 694 754 l 1
EndSplineSet
EndChar

StartChar: Thorn
Encoding: 222 222 125
Width: 593
VWidth: 0
Flags: HMW
LayerCount: 2
Fore
SplineSet
80 700 m 1
 208 700 l 1
 208 0 l 1
 80 0 l 1
 80 700 l 1
159 456 m 1
 159 573 l 1
 298 573 l 2
 463 573 560 490 560 352 c 0
 560 214 463 131 298 131 c 2
 159 131 l 1
 159 248 l 1
 298 248 l 2
 379 248 429 279 429 352 c 0
 429 425 379 456 298 456 c 2
 159 456 l 1
EndSplineSet
EndChar

StartChar: divide
Encoding: 247 247 126
Width: 634
VWidth: 0
Flags: HMW
LayerCount: 2
Fore
SplineSet
234 521 m 0
 234 565 269 602 316 602 c 0
 363 602 399 565 399 521 c 0
 399 477 363 440 316 440 c 0
 269 440 234 477 234 521 c 0
234 89 m 0
 234 133 269 170 316 170 c 0
 363 170 399 133 399 89 c 0
 399 45 363 9 316 9 c 0
 269 9 234 45 234 89 c 0
36 249 m 1
 36 368 l 1
 597 368 l 1
 597 249 l 1
 36 249 l 1
EndSplineSet
EndChar

StartChar: oslash
Encoding: 248 248 127
Width: 546
VWidth: 0
Flags: HMW
LayerCount: 2
Fore
SplineSet
33 230 m 0
 33 378 144 470 288 470 c 0
 432 470 543 378 543 230 c 0
 543 82 432 -10 288 -10 c 0
 144 -10 33 82 33 230 c 0
157 230 m 0
 157 147 215 95 288 95 c 0
 361 95 419 147 419 230 c 0
 419 309 361 365 288 365 c 0
 215 365 157 309 157 230 c 0
451 504 m 1
 504 476 l 1
 114 -48 l 1
 61 -20 l 1
 451 504 l 1
EndSplineSet
EndChar

StartChar: circumflex
Encoding: 710 710 128
Width: 480
VWidth: 0
Flags: HMW
LayerCount: 2
Fore
SplineSet
240 634 m 1
 143 546 l 1
 54 607 l 1
 240 747 l 1
 426 607 l 1
 337 546 l 1
 240 634 l 1
EndSplineSet
EndChar

StartChar: ogonek
Encoding: 731 731 129
Width: 260
VWidth: 0
Flags: HMW
LayerCount: 2
Fore
SplineSet
194 -117 m 1
 227 -180 l 1
 212 -200 182 -220 130 -220 c 0
 59 -220 12 -183 12 -120 c 0
 12 -57 78 -11 148 25 c 1
 189 0 l 1
 137 -26 105 -63 105 -96 c 0
 105 -124 118 -137 144 -137 c 0
 166 -137 180 -130 194 -117 c 1
EndSplineSet
EndChar

StartChar: tilde
Encoding: 732 732 130
Width: 530
VWidth: 0
Flags: HMW
LayerCount: 2
Fore
SplineSet
83 634 m 1
 93 683 140 724 198 724 c 0
 264 724 274 674 330 674 c 0
 353 674 373 693 393 725 c 1
 456 661 l 1
 440 624 389 579 330 579 c 0
 275 579 245 630 197 630 c 0
 158 630 149 594 149 579 c 1
 83 634 l 1
EndSplineSet
EndChar

StartChar: ring
Encoding: 730 730 131
Width: 312
VWidth: 0
Flags: HMW
LayerCount: 2
Fore
SplineSet
38 774 m 0
 38 840 92 885 156 885 c 0
 220 885 274 840 274 774 c 0
 274 708 220 663 156 663 c 0
 92 663 38 708 38 774 c 0
108 774 m 0
 108 743 131 725 156 725 c 0
 181 725 204 743 204 774 c 0
 204 805 181 824 156 824 c 0
 131 824 108 805 108 774 c 0
EndSplineSet
EndChar

StartChar: dotaccent
Encoding: 729 729 132
Width: 300
VWidth: 0
Flags: HMW
LayerCount: 2
Fore
SplineSet
72 806 m 0
 72 849 107 880 150 880 c 0
 193 880 228 849 228 806 c 0
 228 763 193 732 150 732 c 0
 107 732 72 763 72 806 c 0
EndSplineSet
EndChar

StartChar: uni2010
Encoding: 8208 8208 133
Width: 218
VWidth: 0
Flags: HMW
LayerCount: 2
Fore
SplineSet
5 181 m 1
 5 294 l 1
 214 294 l 1
 214 181 l 1
 5 181 l 1
EndSplineSet
EndChar

StartChar: endash
Encoding: 8211 8211 134
Width: 770
VWidth: 0
Flags: HMW
LayerCount: 2
Fore
SplineSet
70 181 m 1
 70 294 l 1
 696 294 l 1
 696 181 l 1
 70 181 l 1
EndSplineSet
EndChar

StartChar: figuredash
Encoding: 8210 8210 135
Width: 615
VWidth: 0
Flags: HMW
LayerCount: 2
Fore
SplineSet
70 181 m 1
 70 294 l 1
 539 294 l 1
 539 181 l 1
 70 181 l 1
EndSplineSet
EndChar

StartChar: emdash
Encoding: 8212 8212 136
Width: 924
VWidth: 0
Flags: HMW
LayerCount: 2
Fore
SplineSet
70 181 m 1
 70 294 l 1
 852 294 l 1
 852 181 l 1
 70 181 l 1
EndSplineSet
EndChar

StartChar: minus
Encoding: 8722 8722 137
Width: 592
VWidth: 0
Flags: HMW
LayerCount: 2
Fore
SplineSet
61 181 m 1
 61 294 l 1
 531 294 l 1
 531 181 l 1
 61 181 l 1
EndSplineSet
EndChar

StartChar: quoteright
Encoding: 8217 8217 138
Width: 313
VWidth: 0
Flags: HMW
LayerCount: 2
Fore
SplineSet
106 700 m 1
 244 700 l 1
 142 453 l 1
 50 453 l 1
 106 700 l 1
EndSplineSet
EndChar

StartChar: quoteleft
Encoding: 8216 8216 139
Width: 313
VWidth: 0
Flags: HMW
LayerCount: 2
Fore
SplineSet
208 453 m 1
 70 453 l 1
 172 700 l 1
 264 700 l 1
 208 453 l 1
EndSplineSet
EndChar

StartChar: quotesinglbase
Encoding: 8218 8218 140
Width: 313
VWidth: 0
Flags: HMW
LayerCount: 2
Fore
SplineSet
116 80 m 1
 254 80 l 1
 152 -167 l 1
 60 -167 l 1
 116 80 l 1
EndSplineSet
EndChar

StartChar: quotedblleft
Encoding: 8220 8220 141
Width: 535
VWidth: 0
Flags: HMW
LayerCount: 2
Fore
SplineSet
208 453 m 1
 70 453 l 1
 172 700 l 1
 264 700 l 1
 208 453 l 1
430 453 m 1
 292 453 l 1
 394 700 l 1
 486 700 l 1
 430 453 l 1
EndSplineSet
EndChar

StartChar: quotedblright
Encoding: 8221 8221 142
Width: 535
VWidth: 0
Flags: HMW
LayerCount: 2
Fore
SplineSet
106 700 m 1
 244 700 l 1
 142 453 l 1
 50 453 l 1
 106 700 l 1
327 700 m 1
 466 700 l 1
 363 453 l 1
 272 453 l 1
 327 700 l 1
EndSplineSet
EndChar

StartChar: perthousand
Encoding: 8240 8240 143
Width: 1299
VWidth: 0
Flags: HMW
LayerCount: 2
Fore
SplineSet
914 161 m 0
 914 259 990 339 1094 339 c 0
 1198 339 1274 259 1274 161 c 0
 1274 63 1198 -16 1094 -16 c 0
 990 -16 914 63 914 161 c 0
1022 161 m 0
 1022 120 1051 86 1094 86 c 0
 1137 86 1165 120 1165 161 c 0
 1165 202 1137 236 1094 236 c 0
 1051 236 1022 202 1022 161 c 0
26 539 m 0
 26 637 102 716 206 716 c 0
 310 716 386 637 386 539 c 0
 386 441 310 362 206 362 c 0
 102 362 26 441 26 539 c 0
135 539 m 0
 135 498 163 464 206 464 c 0
 249 464 277 498 277 539 c 0
 277 580 249 614 206 614 c 0
 163 614 135 580 135 539 c 0
482 161 m 0
 482 259 558 339 662 339 c 0
 766 339 842 259 842 161 c 0
 842 63 766 -16 662 -16 c 0
 558 -16 482 63 482 161 c 0
591 161 m 0
 591 120 619 86 662 86 c 0
 705 86 733 120 733 161 c 0
 733 202 705 236 662 236 c 0
 619 236 591 202 591 161 c 0
624 700 m 1
 755 700 l 1
 244 0 l 1
 113 0 l 1
 624 700 l 1
EndSplineSet
EndChar

StartChar: guilsinglleft
Encoding: 8249 8249 144
Width: 350
VWidth: 0
Flags: HMW
LayerCount: 2
Fore
SplineSet
143 259 m 1
 293 65 l 1
 213 7 l 1
 31 255 l 1
 213 503 l 1
 293 445 l 1
 143 259 l 1
EndSplineSet
EndChar

StartChar: guilsinglright
Encoding: 8250 8250 145
Width: 350
VWidth: 0
Flags: HMW
LayerCount: 2
Fore
SplineSet
207 251 m 1
 57 445 l 1
 137 503 l 1
 319 255 l 1
 137 7 l 1
 57 65 l 1
 207 251 l 1
EndSplineSet
EndChar

StartChar: uni2031
Encoding: 8241 8241 146
Width: 1731
VWidth: 0
Flags: HMW
LayerCount: 2
Fore
SplineSet
1346 161 m 0
 1346 259 1422 339 1526 339 c 0
 1630 339 1705 259 1705 161 c 0
 1705 63 1630 -16 1526 -16 c 0
 1422 -16 1346 63 1346 161 c 0
1454 161 m 0
 1454 120 1483 86 1526 86 c 0
 1569 86 1597 120 1597 161 c 0
 1597 202 1569 236 1526 236 c 0
 1483 236 1454 202 1454 161 c 0
914 161 m 0
 914 259 990 339 1094 339 c 0
 1198 339 1274 259 1274 161 c 0
 1274 63 1198 -16 1094 -16 c 0
 990 -16 914 63 914 161 c 0
1022 161 m 0
 1022 120 1051 86 1094 86 c 0
 1137 86 1165 120 1165 161 c 0
 1165 202 1137 236 1094 236 c 0
 1051 236 1022 202 1022 161 c 0
26 539 m 0
 26 637 102 716 206 716 c 0
 310 716 386 637 386 539 c 0
 386 441 310 362 206 362 c 0
 102 362 26 441 26 539 c 0
135 539 m 0
 135 498 163 464 206 464 c 0
 249 464 277 498 277 539 c 0
 277 580 249 614 206 614 c 0
 163 614 135 580 135 539 c 0
482 161 m 0
 482 259 558 339 662 339 c 0
 766 339 842 259 842 161 c 0
 842 63 766 -16 662 -16 c 0
 558 -16 482 63 482 161 c 0
591 161 m 0
 591 120 619 86 662 86 c 0
 705 86 733 120 733 161 c 0
 733 202 705 236 662 236 c 0
 619 236 591 202 591 161 c 0
624 700 m 1
 755 700 l 1
 244 0 l 1
 113 0 l 1
 624 700 l 1
EndSplineSet
EndChar

StartChar: uni203D
Encoding: 8253 8253 147
Width: 605
VWidth: 0
Flags: HMW
LayerCount: 2
Fore
SplineSet
429 487 m 0
 429 564 375 605 291 605 c 0
 228 605 173 578 142 519 c 1
 51 590 l 1
 97 660 182 716 305 716 c 0
 434 716 550 632 550 500 c 0
 550 359 403 281 288 281 c 1
 260 347 l 1
 354 347 429 411 429 487 c 0
211 506 m 1
 342 506 l 1
 317 192 l 1
 236 192 l 1
 211 506 l 1
197 55 m 0
 197 98 233 132 280 132 c 0
 327 132 363 98 363 55 c 0
 363 12 327 -21 280 -21 c 0
 233 -21 197 12 197 55 c 0
EndSplineSet
EndChar

StartChar: Euro
Encoding: 8364 8364 148
Width: 631
VWidth: 0
Flags: HMW
LayerCount: 2
Fore
SplineSet
42 389 m 1
 42 462 l 1
 536 462 l 1
 536 389 l 1
 42 389 l 1
32 261 m 1
 32 335 l 1
 515 335 l 1
 515 261 l 1
 32 261 l 1
220 350 m 0
 220 196 294 105 400 105 c 0
 457 105 509 127 550 167 c 1
 550 25 l 1
 505 -1 454 -16 400 -16 c 0
 213 -16 92 141 92 350 c 0
 92 559 213 717 400 717 c 0
 454 717 505 702 550 676 c 1
 550 533 l 1
 509 573 457 595 400 595 c 0
 294 595 220 504 220 350 c 0
EndSplineSet
EndChar

StartChar: fraction
Encoding: 8260 8260 149
Width: 722
VWidth: 0
Flags: HMW
LayerCount: 2
Fore
SplineSet
580 700 m 1
 684 700 l 1
 164 0 l 1
 60 0 l 1
 580 700 l 1
EndSplineSet
EndChar

StartChar: onequarter
Encoding: 188 188 150
Width: 801
VWidth: 0
Flags: HMW
LayerCount: 2
Fore
SplineSet
627 700 m 1
 713 700 l 1
 193 0 l 1
 107 0 l 1
 627 700 l 1
26 584 m 1
 26 662 l 1
 210 701 l 1
 210 274 l 1
 126 274 l 1
 126 611 l 1
 26 584 l 1
404 78 m 1
 475 142 l 1
 659 142 l 0
 669 151 l 0
 770 151 l 1
 770 78 l 1
 404 78 l 1
492 98 m 1
 404 78 l 1
 645 420 l 1
 704 420 l 1
 704 0 l 1
 615 0 l 1
 615 100 l 0
 623 106 l 0
 623 284 l 1
 492 98 l 1
EndSplineSet
EndChar

StartChar: onehalf
Encoding: 189 189 151
Width: 870
VWidth: 0
Flags: HMW
LayerCount: 2
Fore
SplineSet
627 700 m 1
 713 700 l 1
 193 0 l 1
 107 0 l 1
 627 700 l 1
26 584 m 1
 26 662 l 1
 210 701 l 1
 210 274 l 1
 126 274 l 1
 126 611 l 1
 26 584 l 1
502 2 m 1
 692 201 l 2
 724 235 743 261 743 295 c 0
 743 325 723 355 681 355 c 0
 637 355 608 321 608 270 c 1
 523 270 l 1
 523 359 580 430 683 430 c 0
 783 430 832 359 832 297 c 0
 832 253 808 215 773 183 c 2
 664 81 l 1
 839 81 l 1
 839 2 l 1
 502 2 l 1
EndSplineSet
EndChar

StartChar: threequarters
Encoding: 190 190 152
Width: 861
VWidth: 0
Flags: HMW
LayerCount: 2
Fore
SplineSet
691 700 m 1
 778 700 l 1
 258 0 l 1
 171 0 l 1
 691 700 l 1
157 484 m 1
 157 526 l 1
 206 526 237 554 237 588 c 0
 237 618 219 637 184 637 c 0
 150 637 125 615 125 583 c 1
 45 583 l 1
 45 654 102 707 185 707 c 0
 273 707 323 655 323 592 c 0
 323 524 251 484 157 484 c 1
180 271 m 0
 85 271 27 336 27 407 c 1
 113 407 l 1
 113 366 144 343 183 343 c 0
 222 343 249 362 249 402 c 0
 249 442 216 467 157 467 c 1
 157 513 l 1
 259 513 335 478 335 394 c 0
 335 322 274 271 180 271 c 0
465 78 m 1
 535 142 l 1
 720 142 l 0
 730 151 l 0
 830 151 l 1
 830 78 l 1
 465 78 l 1
552 98 m 1
 465 78 l 1
 705 420 l 1
 764 420 l 1
 764 0 l 1
 675 0 l 1
 675 100 l 0
 683 106 l 0
 683 284 l 1
 552 98 l 1
EndSplineSet
EndChar

StartChar: uni2150
Encoding: 8528 8528 153
Width: 911
VWidth: 0
Flags: HMW
LayerCount: 2
Fore
SplineSet
594 700 m 1
 698 700 l 1
 178 0 l 1
 74 0 l 1
 594 700 l 1
26 584 m 1
 26 662 l 1
 210 701 l 1
 210 274 l 1
 126 274 l 1
 126 611 l 1
 26 584 l 1
559 340 m 1
 559 420 l 1
 887 420 l 1
 685 0 l 1
 593 0 l 1
 760 340 l 1
 559 340 l 1
EndSplineSet
EndChar

StartChar: uni2151
Encoding: 8529 8529 154
Width: 853
VWidth: 0
Flags: HMW
LayerCount: 2
Fore
SplineSet
590 700 m 1
 694 700 l 1
 174 0 l 1
 70 0 l 1
 590 700 l 1
26 584 m 1
 26 662 l 1
 210 701 l 1
 210 274 l 1
 126 274 l 1
 126 611 l 1
 26 584 l 1
747 278 m 0
 747 326 714 356 670 356 c 0
 626 356 592 326 592 278 c 0
 592 230 626 198 670 198 c 0
 714 198 747 230 747 278 c 0
663 3 m 1
 553 3 l 1
 688 162 l 1
 704 167 l 1
 684 146 664 141 635 141 c 0
 571 141 507 196 507 278 c 0
 507 376 580 431 670 431 c 0
 760 431 832 376 832 278 c 0
 832 236 814 200 790 170 c 2
 663 3 l 1
EndSplineSet
EndChar

StartChar: uni2152
Encoding: 8530 8530 155
Width: 1170
VWidth: 0
Flags: HMW
LayerCount: 2
Fore
SplineSet
590 700 m 1
 694 700 l 1
 174 0 l 1
 70 0 l 1
 590 700 l 1
26 584 m 1
 26 662 l 1
 210 701 l 1
 210 274 l 1
 126 274 l 1
 126 611 l 1
 26 584 l 1
531 311 m 1
 531 389 l 1
 716 428 l 1
 716 1 l 1
 632 1 l 1
 632 338 l 1
 531 311 l 1
884 210 m 0
 884 125 918 68 970 68 c 0
 1022 68 1055 125 1055 210 c 0
 1055 295 1022 352 970 352 c 0
 918 352 884 295 884 210 c 0
801 210 m 0
 801 343 870 427 970 427 c 0
 1072 427 1139 343 1139 210 c 0
 1139 77 1072 -7 970 -7 c 0
 870 -7 801 77 801 210 c 0
EndSplineSet
EndChar

StartChar: onethird
Encoding: 8531 8531 156
Width: 837
VWidth: 0
Flags: HMW
LayerCount: 2
Fore
SplineSet
589 700 m 1
 693 700 l 1
 173 0 l 1
 69 0 l 1
 589 700 l 1
26 584 m 1
 26 662 l 1
 210 701 l 1
 210 274 l 1
 126 274 l 1
 126 611 l 1
 26 584 l 1
634 204 m 1
 634 246 l 1
 683 246 714 274 714 308 c 0
 714 338 696 357 661 357 c 0
 627 357 602 335 602 303 c 1
 522 303 l 1
 522 374 579 427 662 427 c 0
 750 427 800 375 800 312 c 0
 800 244 728 204 634 204 c 1
658 -9 m 0
 563 -9 504 56 504 127 c 1
 590 127 l 1
 590 86 621 63 660 63 c 0
 699 63 726 82 726 122 c 0
 726 162 693 187 634 187 c 1
 634 233 l 1
 736 233 812 198 812 114 c 0
 812 42 752 -9 658 -9 c 0
EndSplineSet
EndChar

StartChar: twothirds
Encoding: 8532 8532 157
Width: 968
VWidth: 0
Flags: HMW
LayerCount: 2
Fore
SplineSet
730 700 m 1
 834 700 l 1
 314 0 l 1
 210 0 l 1
 730 700 l 1
30 282 m 1
 221 481 l 2
 253 515 272 541 272 575 c 0
 272 605 251 635 209 635 c 0
 165 635 136 601 136 550 c 1
 51 550 l 1
 51 639 109 710 212 710 c 0
 312 710 360 639 360 577 c 0
 360 533 336 495 301 463 c 2
 193 361 l 1
 368 361 l 1
 368 282 l 1
 30 282 l 1
766 204 m 1
 766 246 l 1
 815 246 846 274 846 308 c 0
 846 338 828 357 793 357 c 0
 759 357 734 335 734 303 c 1
 653 303 l 1
 653 374 710 427 793 427 c 0
 881 427 931 375 931 312 c 0
 931 244 860 204 766 204 c 1
789 -9 m 0
 694 -9 635 56 635 127 c 1
 721 127 l 1
 721 86 753 63 792 63 c 0
 831 63 858 82 858 122 c 0
 858 162 825 187 766 187 c 1
 766 233 l 1
 868 233 943 198 943 114 c 0
 943 42 883 -9 789 -9 c 0
EndSplineSet
EndChar

StartChar: uni2155
Encoding: 8533 8533 158
Width: 826
VWidth: 0
Flags: HMW
LayerCount: 2
Fore
SplineSet
590 700 m 1
 694 700 l 1
 174 0 l 1
 70 0 l 1
 590 700 l 1
26 584 m 1
 26 662 l 1
 210 701 l 1
 210 274 l 1
 126 274 l 1
 126 611 l 1
 26 584 l 1
801 133 m 0
 801 35 719 -9 638 -9 c 0
 561 -9 512 20 476 55 c 1
 517 123 l 1
 546 92 587 70 623 70 c 0
 677 70 708 95 708 141 c 0
 708 187 668 211 623 211 c 0
 588 211 551 205 508 181 c 1
 567 229 l 1
 598 262 634 272 674 272 c 0
 742 272 801 219 801 133 c 0
629 343 m 1
 596 232 l 1
 508 181 l 1
 566 418 l 1
 795 418 l 1
 795 343 l 1
 629 343 l 1
EndSplineSet
EndChar

StartChar: uni2156
Encoding: 8534 8534 159
Width: 964
VWidth: 0
Flags: HMW
LayerCount: 2
Fore
SplineSet
730 700 m 1
 834 700 l 1
 314 0 l 1
 210 0 l 1
 730 700 l 1
30 282 m 1
 221 481 l 2
 253 515 272 541 272 575 c 0
 272 605 251 635 209 635 c 0
 165 635 136 601 136 550 c 1
 51 550 l 1
 51 639 109 710 212 710 c 0
 312 710 360 639 360 577 c 0
 360 533 336 495 301 463 c 2
 193 361 l 1
 368 361 l 1
 368 282 l 1
 30 282 l 1
932 133 m 0
 932 35 851 -9 770 -9 c 0
 693 -9 644 20 608 55 c 1
 648 123 l 1
 677 92 718 70 754 70 c 0
 808 70 840 95 840 141 c 0
 840 187 799 211 754 211 c 0
 719 211 683 205 640 181 c 1
 698 229 l 1
 729 262 766 272 806 272 c 0
 874 272 932 219 932 133 c 0
761 343 m 1
 727 232 l 1
 640 181 l 1
 697 418 l 1
 926 418 l 1
 926 343 l 1
 761 343 l 1
EndSplineSet
EndChar

StartChar: uni2157
Encoding: 8535 8535 160
Width: 900
VWidth: 0
Flags: HMW
LayerCount: 2
Fore
SplineSet
668 700 m 1
 772 700 l 1
 252 0 l 1
 148 0 l 1
 668 700 l 1
155 484 m 1
 155 526 l 1
 204 526 235 554 235 588 c 0
 235 618 217 637 182 637 c 0
 148 637 123 615 123 583 c 1
 43 583 l 1
 43 654 100 707 183 707 c 0
 271 707 321 655 321 592 c 0
 321 524 249 484 155 484 c 1
178 271 m 0
 83 271 25 336 25 407 c 1
 111 407 l 1
 111 366 142 343 181 343 c 0
 220 343 247 362 247 402 c 0
 247 442 214 467 155 467 c 1
 155 513 l 1
 257 513 333 478 333 394 c 0
 333 322 272 271 178 271 c 0
866 133 m 0
 866 35 785 -9 704 -9 c 0
 627 -9 578 20 542 55 c 1
 582 123 l 1
 611 92 652 70 688 70 c 0
 742 70 774 95 774 141 c 0
 774 187 733 211 688 211 c 0
 653 211 617 205 574 181 c 1
 632 229 l 1
 663 262 700 272 740 272 c 0
 808 272 866 219 866 133 c 0
695 343 m 1
 661 232 l 1
 574 181 l 1
 631 418 l 1
 860 418 l 1
 860 343 l 1
 695 343 l 1
EndSplineSet
EndChar

StartChar: uni2158
Encoding: 8536 8536 161
Width: 969
VWidth: 0
Flags: HMW
LayerCount: 2
Fore
SplineSet
720 700 m 1
 824 700 l 1
 304 -0 l 1
 200 -0 l 1
 720 700 l 1
24 358 m 1
 95 422 l 1
 280 422 l 0
 290 431 l 0
 390 431 l 1
 390 358 l 1
 24 358 l 1
112 378 m 1
 24 358 l 1
 265 700 l 1
 324 700 l 1
 324 280 l 1
 235 280 l 1
 235 380 l 0
 243 386 l 0
 243 564 l 1
 112 378 l 1
940 133 m 0
 940 35 859 -10 778 -10 c 0
 701 -10 652 20 616 55 c 1
 656 123 l 1
 685 92 726 69 762 69 c 0
 816 69 848 95 848 141 c 0
 848 187 807 211 762 211 c 0
 727 211 691 205 648 181 c 1
 706 228 l 1
 737 261 774 272 814 272 c 0
 882 272 940 219 940 133 c 0
769 343 m 1
 735 232 l 1
 648 181 l 1
 705 418 l 1
 934 418 l 1
 934 343 l 1
 769 343 l 1
EndSplineSet
EndChar

StartChar: uni2159
Encoding: 8537 8537 162
Width: 829
VWidth: 0
Flags: HMW
LayerCount: 2
Fore
SplineSet
603 700 m 1
 707 700 l 1
 187 0 l 1
 83 0 l 1
 603 700 l 1
26 584 m 1
 26 662 l 1
 210 701 l 1
 210 274 l 1
 126 274 l 1
 126 611 l 1
 26 584 l 1
562 142 m 0
 562 94 596 64 640 64 c 0
 684 64 718 94 718 142 c 0
 718 190 684 222 640 222 c 0
 596 222 562 190 562 142 c 0
647 417 m 1
 756 417 l 1
 622 258 l 1
 606 253 l 1
 626 274 645 279 674 279 c 0
 738 279 803 224 803 142 c 0
 803 44 730 -11 640 -11 c 0
 550 -11 478 44 478 142 c 0
 478 184 496 220 520 250 c 2
 647 417 l 1
EndSplineSet
EndChar

StartChar: uni215A
Encoding: 8538 8538 163
Width: 907
VWidth: 0
Flags: HMW
LayerCount: 2
Fore
SplineSet
694 700 m 1
 798 700 l 1
 278 0 l 1
 174 0 l 1
 694 700 l 1
355 413 m 0
 355 315 273 271 192 271 c 0
 115 271 66 300 30 335 c 1
 70 403 l 1
 99 372 140 350 176 350 c 0
 230 350 262 375 262 421 c 0
 262 467 221 491 176 491 c 0
 141 491 105 485 62 461 c 1
 120 509 l 1
 151 542 188 552 228 552 c 0
 296 552 355 499 355 413 c 0
183 623 m 1
 149 512 l 1
 62 461 l 1
 119 698 l 1
 348 698 l 1
 348 623 l 1
 183 623 l 1
641 142 m 0
 641 94 675 64 719 64 c 0
 763 64 796 94 796 142 c 0
 796 190 763 222 719 222 c 0
 675 222 641 190 641 142 c 0
726 417 m 1
 835 417 l 1
 700 258 l 1
 685 253 l 1
 705 274 724 279 753 279 c 0
 817 279 881 224 881 142 c 0
 881 44 809 -11 719 -11 c 0
 629 -11 556 44 556 142 c 0
 556 184 575 220 599 250 c 2
 726 417 l 1
EndSplineSet
EndChar

StartChar: oneeighth
Encoding: 8539 8539 164
Width: 850
VWidth: 0
Flags: HMW
LayerCount: 2
Fore
SplineSet
603 700 m 1
 707 700 l 1
 187 0 l 1
 83 0 l 1
 603 700 l 1
26 584 m 1
 26 662 l 1
 210 701 l 1
 210 274 l 1
 126 274 l 1
 126 611 l 1
 26 584 l 1
537 319 m 0
 537 386 597 429 671 429 c 0
 745 429 805 386 805 319 c 0
 805 246 740 208 671 208 c 0
 602 208 537 246 537 319 c 0
619 310 m 0
 619 278 641 256 671 256 c 0
 701 256 724 278 724 310 c 0
 724 342 702 364 671 364 c 0
 640 364 619 342 619 310 c 0
522 114 m 0
 522 199 602 237 671 237 c 0
 740 237 820 199 820 114 c 0
 820 41 751 -9 671 -9 c 0
 591 -9 522 41 522 114 c 0
607 126 m 0
 607 84 637 62 671 62 c 0
 705 62 735 84 735 126 c 0
 735 162 705 189 671 189 c 0
 637 189 607 162 607 126 c 0
EndSplineSet
EndChar

StartChar: threeeighths
Encoding: 8540 8540 165
Width: 920
VWidth: 0
Flags: HMW
LayerCount: 2
Fore
SplineSet
672 700 m 1
 776 700 l 1
 256 0 l 1
 152 0 l 1
 672 700 l 1
155 484 m 1
 155 526 l 1
 204 526 235 554 235 588 c 0
 235 618 217 637 182 637 c 0
 148 637 123 615 123 583 c 1
 43 583 l 1
 43 654 100 707 183 707 c 0
 271 707 321 655 321 592 c 0
 321 524 249 484 155 484 c 1
178 271 m 0
 83 271 25 336 25 407 c 1
 111 407 l 1
 111 366 142 343 181 343 c 0
 220 343 247 362 247 402 c 0
 247 442 214 467 155 467 c 1
 155 513 l 1
 257 513 333 478 333 394 c 0
 333 322 272 271 178 271 c 0
607 319 m 0
 607 386 667 429 741 429 c 0
 815 429 875 386 875 319 c 0
 875 246 810 208 741 208 c 0
 672 208 607 246 607 319 c 0
688 310 m 0
 688 278 711 256 741 256 c 0
 771 256 794 278 794 310 c 0
 794 342 772 364 741 364 c 0
 710 364 688 342 688 310 c 0
592 114 m 0
 592 199 672 237 741 237 c 0
 810 237 890 199 890 114 c 0
 890 41 821 -9 741 -9 c 0
 661 -9 592 41 592 114 c 0
677 126 m 0
 677 84 707 62 741 62 c 0
 775 62 805 84 805 126 c 0
 805 162 775 189 741 189 c 0
 707 189 677 162 677 126 c 0
EndSplineSet
EndChar

StartChar: fiveeighths
Encoding: 8541 8541 166
Width: 942
VWidth: 0
Flags: HMW
LayerCount: 2
Fore
SplineSet
694 700 m 1
 798 700 l 1
 278 0 l 1
 174 0 l 1
 694 700 l 1
350 413 m 0
 350 315 269 271 188 271 c 0
 111 271 62 300 26 335 c 1
 66 403 l 1
 95 372 136 350 172 350 c 0
 226 350 257 375 257 421 c 0
 257 467 217 491 172 491 c 0
 137 491 101 485 58 461 c 1
 116 509 l 1
 147 542 184 552 224 552 c 0
 292 552 350 499 350 413 c 0
179 623 m 1
 145 512 l 1
 58 461 l 1
 115 698 l 1
 344 698 l 1
 344 623 l 1
 179 623 l 1
629 319 m 0
 629 386 689 429 763 429 c 0
 837 429 897 386 897 319 c 0
 897 246 832 208 763 208 c 0
 694 208 629 246 629 319 c 0
710 310 m 0
 710 278 733 256 763 256 c 0
 793 256 816 278 816 310 c 0
 816 342 794 364 763 364 c 0
 732 364 710 342 710 310 c 0
614 114 m 0
 614 199 694 237 763 237 c 0
 832 237 912 199 912 114 c 0
 912 41 843 -9 763 -9 c 0
 683 -9 614 41 614 114 c 0
699 126 m 0
 699 84 729 62 763 62 c 0
 797 62 827 84 827 126 c 0
 827 162 797 189 763 189 c 0
 729 189 699 162 699 126 c 0
EndSplineSet
EndChar

StartChar: seveneighths
Encoding: 8542 8542 167
Width: 832
VWidth: 0
Flags: HMW
LayerCount: 2
Fore
SplineSet
580 700 m 1
 684 700 l 1
 164 0 l 1
 60 0 l 1
 580 700 l 1
25 620 m 1
 25 700 l 1
 353 700 l 1
 151 280 l 1
 59 280 l 1
 226 620 l 1
 25 620 l 1
519 319 m 0
 519 386 579 429 653 429 c 0
 727 429 787 386 787 319 c 0
 787 246 722 208 653 208 c 0
 584 208 519 246 519 319 c 0
600 310 m 0
 600 278 623 256 653 256 c 0
 683 256 706 278 706 310 c 0
 706 342 684 364 653 364 c 0
 622 364 600 342 600 310 c 0
504 114 m 0
 504 199 584 237 653 237 c 0
 722 237 802 199 802 114 c 0
 802 41 733 -9 653 -9 c 0
 573 -9 504 41 504 114 c 0
589 126 m 0
 589 84 619 62 653 62 c 0
 687 62 717 84 717 126 c 0
 717 162 687 189 653 189 c 0
 619 189 589 162 589 126 c 0
EndSplineSet
EndChar

StartChar: uni2074
Encoding: 8308 8308 168
Width: 414
VWidth: 0
Flags: HMW
LayerCount: 2
Fore
SplineSet
20 358 m 1
 91 422 l 1
 275 422 l 0
 285 431 l 0
 386 431 l 1
 386 358 l 1
 20 358 l 1
108 378 m 1
 20 358 l 1
 261 700 l 1
 320 700 l 1
 320 280 l 1
 231 280 l 1
 231 380 l 0
 239 386 l 0
 239 564 l 1
 108 378 l 1
EndSplineSet
EndChar

StartChar: uni2075
Encoding: 8309 8309 169
Width: 377
VWidth: 0
Flags: HMW
LayerCount: 2
Fore
SplineSet
350 413 m 0
 350 315 269 271 188 271 c 0
 111 271 62 300 26 335 c 1
 66 403 l 1
 95 372 136 350 172 350 c 0
 226 350 257 375 257 421 c 0
 257 467 217 491 172 491 c 0
 137 491 101 485 58 461 c 1
 116 509 l 1
 147 542 184 552 224 552 c 0
 292 552 350 499 350 413 c 0
179 623 m 1
 145 512 l 1
 58 461 l 1
 115 698 l 1
 344 698 l 1
 344 623 l 1
 179 623 l 1
EndSplineSet
EndChar

StartChar: uni2076
Encoding: 8310 8310 170
Width: 371
VWidth: 0
Flags: HMW
LayerCount: 2
Fore
SplineSet
111 422 m 0
 111 374 145 344 189 344 c 0
 233 344 267 374 267 422 c 0
 267 470 233 502 189 502 c 0
 145 502 111 470 111 422 c 0
196 697 m 1
 305 697 l 1
 170 538 l 1
 155 533 l 1
 175 554 194 559 223 559 c 0
 287 559 351 504 351 422 c 0
 351 324 279 269 189 269 c 0
 99 269 26 324 26 422 c 0
 26 464 45 500 69 530 c 2
 196 697 l 1
EndSplineSet
EndChar

StartChar: uni2077
Encoding: 8311 8311 171
Width: 371
VWidth: 0
Flags: HMW
LayerCount: 2
Fore
SplineSet
25 620 m 1
 25 700 l 1
 353 700 l 1
 151 280 l 1
 59 280 l 1
 226 620 l 1
 25 620 l 1
EndSplineSet
EndChar

StartChar: uni2078
Encoding: 8312 8312 172
Width: 349
VWidth: 0
Flags: HMW
LayerCount: 2
Fore
SplineSet
40 599 m 0
 40 666 100 709 174 709 c 0
 248 709 308 666 308 599 c 0
 308 526 243 488 174 488 c 0
 105 488 40 526 40 599 c 0
121 590 m 0
 121 558 144 536 174 536 c 0
 204 536 227 558 227 590 c 0
 227 622 205 644 174 644 c 0
 143 644 121 622 121 590 c 0
25 394 m 0
 25 479 105 517 174 517 c 0
 243 517 323 479 323 394 c 0
 323 321 254 271 174 271 c 0
 94 271 25 321 25 394 c 0
110 406 m 0
 110 364 140 342 174 342 c 0
 208 342 238 364 238 406 c 0
 238 442 208 469 174 469 c 0
 140 469 110 442 110 406 c 0
EndSplineSet
EndChar

StartChar: uni2079
Encoding: 8313 8313 173
Width: 369
VWidth: 0
Flags: HMW
LayerCount: 2
Fore
SplineSet
269 558 m 0
 269 606 235 636 191 636 c 0
 147 636 114 606 114 558 c 0
 114 510 147 478 191 478 c 0
 235 478 269 510 269 558 c 0
185 283 m 1
 75 283 l 1
 210 442 l 1
 225 447 l 1
 205 426 186 421 157 421 c 0
 93 421 29 476 29 558 c 0
 29 656 101 711 191 711 c 0
 281 711 354 656 354 558 c 0
 354 516 335 480 311 450 c 2
 185 283 l 1
EndSplineSet
EndChar

StartChar: uni2070
Encoding: 8304 8304 174
Width: 384
VWidth: 0
Flags: HMW
LayerCount: 2
Fore
SplineSet
107 490 m 0
 107 405 140 348 192 348 c 0
 244 348 278 405 278 490 c 0
 278 575 244 632 192 632 c 0
 140 632 107 575 107 490 c 0
24 490 m 0
 24 623 92 707 192 707 c 0
 294 707 361 623 361 490 c 0
 361 357 294 273 192 273 c 0
 92 273 24 357 24 490 c 0
EndSplineSet
EndChar

StartChar: uni2080
Encoding: 8320 8320 175
Width: 384
VWidth: 0
Flags: HMW
LayerCount: 2
Fore
SplineSet
107 210 m 0
 107 125 140 68 192 68 c 0
 244 68 278 125 278 210 c 0
 278 295 244 352 192 352 c 0
 140 352 107 295 107 210 c 0
24 210 m 0
 24 343 92 427 192 427 c 0
 294 427 361 343 361 210 c 0
 361 77 294 -7 192 -7 c 0
 92 -7 24 77 24 210 c 0
EndSplineSet
EndChar

StartChar: uni2084
Encoding: 8324 8324 176
Width: 417
VWidth: 0
Flags: HMW
LayerCount: 2
Fore
SplineSet
19 78 m 1
 90 142 l 1
 274 142 l 0
 284 151 l 0
 385 151 l 1
 385 78 l 1
 19 78 l 1
107 98 m 1
 19 78 l 1
 260 420 l 1
 319 420 l 1
 319 0 l 1
 230 0 l 1
 230 100 l 0
 238 106 l 0
 238 284 l 1
 107 98 l 1
EndSplineSet
EndChar

StartChar: uni2085
Encoding: 8325 8325 177
Width: 383
VWidth: 0
Flags: HMW
LayerCount: 2
Fore
SplineSet
352 133 m 0
 352 35 271 -9 190 -9 c 0
 113 -9 64 20 28 55 c 1
 68 123 l 1
 97 92 138 70 174 70 c 0
 228 70 260 95 260 141 c 0
 260 187 219 211 174 211 c 0
 139 211 103 205 60 181 c 1
 118 229 l 1
 149 262 186 272 226 272 c 0
 294 272 352 219 352 133 c 0
181 343 m 1
 147 232 l 1
 60 181 l 1
 117 418 l 1
 346 418 l 1
 346 343 l 1
 181 343 l 1
EndSplineSet
EndChar

StartChar: uni2086
Encoding: 8326 8326 178
Width: 379
VWidth: 0
Flags: HMW
LayerCount: 2
Fore
SplineSet
113 142 m 0
 113 94 147 64 191 64 c 0
 235 64 269 94 269 142 c 0
 269 190 235 222 191 222 c 0
 147 222 113 190 113 142 c 0
198 417 m 1
 307 417 l 1
 172 258 l 1
 157 253 l 1
 177 274 196 279 225 279 c 0
 289 279 353 224 353 142 c 0
 353 44 281 -11 191 -11 c 0
 101 -11 29 44 29 142 c 0
 29 184 47 220 71 250 c 2
 198 417 l 1
EndSplineSet
EndChar

StartChar: uni2087
Encoding: 8327 8327 179
Width: 374
VWidth: 0
Flags: HMW
LayerCount: 2
Fore
SplineSet
28 340 m 1
 28 420 l 1
 356 420 l 1
 153 0 l 1
 61 0 l 1
 229 340 l 1
 28 340 l 1
EndSplineSet
EndChar

StartChar: uni2088
Encoding: 8328 8328 180
Width: 354
VWidth: 0
Flags: HMW
LayerCount: 2
Fore
SplineSet
43 319 m 0
 43 386 103 429 177 429 c 0
 251 429 311 386 311 319 c 0
 311 246 246 208 177 208 c 0
 108 208 43 246 43 319 c 0
124 310 m 0
 124 278 147 256 177 256 c 0
 207 256 230 278 230 310 c 0
 230 342 208 364 177 364 c 0
 146 364 124 342 124 310 c 0
28 114 m 0
 28 199 108 237 177 237 c 0
 246 237 326 199 326 114 c 0
 326 41 257 -9 177 -9 c 0
 97 -9 28 41 28 114 c 0
113 126 m 0
 113 84 143 62 177 62 c 0
 211 62 241 84 241 126 c 0
 241 162 211 189 177 189 c 0
 143 189 113 162 113 126 c 0
EndSplineSet
EndChar

StartChar: uni2089
Encoding: 8329 8329 181
Width: 382
VWidth: 0
Flags: HMW
LayerCount: 2
Fore
SplineSet
265 278 m 0
 265 326 231 356 187 356 c 0
 143 356 110 326 110 278 c 0
 110 230 143 198 187 198 c 0
 231 198 265 230 265 278 c 0
181 3 m 1
 71 3 l 1
 206 162 l 1
 221 167 l 1
 201 146 182 141 153 141 c 0
 89 141 25 196 25 278 c 0
 25 376 97 431 187 431 c 0
 277 431 350 376 350 278 c 0
 350 236 331 200 307 170 c 2
 181 3 l 1
EndSplineSet
EndChar

StartChar: uni2081
Encoding: 8321 8321 182
Width: 346
VWidth: 0
Flags: HMW
LayerCount: 2
Fore
SplineSet
90 311 m 1
 90 389 l 1
 274 428 l 1
 274 1 l 1
 191 1 l 1
 191 338 l 1
 90 311 l 1
EndSplineSet
EndChar

StartChar: uni2082
Encoding: 8322 8322 183
Width: 391
VWidth: 0
Flags: HMW
LayerCount: 2
Fore
SplineSet
27 2 m 1
 218 201 l 2
 250 235 269 261 269 295 c 0
 269 325 249 355 207 355 c 0
 163 355 133 321 133 270 c 1
 49 270 l 1
 49 359 106 430 209 430 c 0
 309 430 357 359 357 297 c 0
 357 253 333 215 298 183 c 2
 190 81 l 1
 365 81 l 1
 365 2 l 1
 27 2 l 1
EndSplineSet
EndChar

StartChar: uni2083
Encoding: 8323 8323 184
Width: 353
VWidth: 0
Flags: HMW
LayerCount: 2
Fore
SplineSet
153 204 m 1
 153 246 l 1
 202 246 233 274 233 308 c 0
 233 338 215 357 180 357 c 0
 146 357 121 335 121 303 c 1
 41 303 l 1
 41 374 98 427 181 427 c 0
 269 427 319 375 319 312 c 0
 319 244 247 204 153 204 c 1
176 -9 m 0
 81 -9 23 56 23 127 c 1
 109 127 l 1
 109 86 140 63 179 63 c 0
 218 63 245 82 245 122 c 0
 245 162 212 187 153 187 c 1
 153 233 l 1
 255 233 331 198 331 114 c 0
 331 42 270 -9 176 -9 c 0
EndSplineSet
EndChar

StartChar: Agrave
Encoding: 192 192 185
Width: 711
VWidth: 0
Flags: HMW
LayerCount: 2
Fore
SplineSet
173 158 m 1
 190 272 l 1
 526 272 l 1
 543 158 l 1
 173 158 l 1
356 473 m 1
 252 232 l 1
 255 200 l 1
 163 0 l 1
 1 0 l 1
 356 741 l 1
 711 0 l 1
 549 0 l 1
 459 193 l 1
 461 229 l 1
 356 473 l 1
204 951 m 1
 307 1000 l 1
 457 840 l 1
 384 801 l 1
 204 951 l 1
EndSplineSet
EndChar

StartChar: Aacute
Encoding: 193 193 186
Width: 711
VWidth: 0
Flags: HMW
LayerCount: 2
Fore
SplineSet
173 158 m 1
 190 272 l 1
 526 272 l 1
 543 158 l 1
 173 158 l 1
356 473 m 1
 252 232 l 1
 255 200 l 1
 163 0 l 1
 1 0 l 1
 356 741 l 1
 711 0 l 1
 549 0 l 1
 459 193 l 1
 461 229 l 1
 356 473 l 1
505 951 m 1
 325 801 l 1
 252 840 l 1
 402 1000 l 1
 505 951 l 1
EndSplineSet
EndChar

StartChar: Acircumflex
Encoding: 194 194 187
Width: 711
VWidth: 0
Flags: HMW
LayerCount: 2
Fore
SplineSet
173 158 m 1
 190 272 l 1
 526 272 l 1
 543 158 l 1
 173 158 l 1
356 473 m 1
 252 232 l 1
 255 200 l 1
 163 0 l 1
 1 0 l 1
 356 741 l 1
 711 0 l 1
 549 0 l 1
 459 193 l 1
 461 229 l 1
 356 473 l 1
356 867 m 1
 259 779 l 1
 170 840 l 1
 356 980 l 1
 542 840 l 1
 453 779 l 1
 356 867 l 1
EndSplineSet
EndChar

StartChar: Atilde
Encoding: 195 195 188
Width: 711
VWidth: 0
Flags: HMW
LayerCount: 2
Fore
SplineSet
173 158 m 1
 190 272 l 1
 526 272 l 1
 543 158 l 1
 173 158 l 1
356 473 m 1
 252 232 l 1
 255 200 l 1
 163 0 l 1
 1 0 l 1
 356 741 l 1
 711 0 l 1
 549 0 l 1
 459 193 l 1
 461 229 l 1
 356 473 l 1
169 847 m 1
 179 896 226 938 284 938 c 0
 350 938 361 887 417 887 c 0
 440 887 459 907 479 939 c 1
 543 874 l 1
 527 837 476 792 417 792 c 0
 362 792 331 844 283 844 c 0
 244 844 235 808 235 793 c 1
 169 847 l 1
EndSplineSet
EndChar

StartChar: Adieresis
Encoding: 196 196 189
Width: 711
VWidth: 0
Flags: HMW
LayerCount: 2
Fore
SplineSet
173 158 m 1
 190 272 l 1
 526 272 l 1
 543 158 l 1
 173 158 l 1
356 473 m 1
 252 232 l 1
 255 200 l 1
 163 0 l 1
 1 0 l 1
 356 741 l 1
 711 0 l 1
 549 0 l 1
 459 193 l 1
 461 229 l 1
 356 473 l 1
406 836 m 0
 406 879 441 910 484 910 c 0
 527 910 562 879 562 836 c 0
 562 793 527 763 484 763 c 0
 441 763 406 793 406 836 c 0
146 840 m 0
 146 883 181 914 224 914 c 0
 267 914 301 883 301 840 c 0
 301 797 267 767 224 767 c 0
 181 767 146 797 146 840 c 0
EndSplineSet
EndChar

StartChar: Aring
Encoding: 197 197 190
Width: 711
VWidth: 0
Flags: HMW
LayerCount: 2
Fore
SplineSet
173 158 m 1
 190 272 l 1
 526 272 l 1
 543 158 l 1
 173 158 l 1
356 473 m 1
 252 232 l 1
 255 200 l 1
 163 0 l 1
 1 0 l 1
 356 741 l 1
 711 0 l 1
 549 0 l 1
 459 193 l 1
 461 229 l 1
 356 473 l 1
238 800 m 0
 238 866 292 911 356 911 c 0
 420 911 474 866 474 800 c 0
 474 734 420 689 356 689 c 0
 292 689 238 734 238 800 c 0
308 800 m 0
 308 769 331 751 356 751 c 0
 381 751 404 769 404 800 c 0
 404 831 381 849 356 849 c 0
 331 849 308 831 308 800 c 0
EndSplineSet
EndChar

StartChar: AE
Encoding: 198 198 191
Width: 1046
VWidth: 0
Flags: HMW
LayerCount: 2
Fore
SplineSet
254 169 m 1
 258 301 l 1
 558 301 l 1
 558 169 l 1
 254 169 l 1
437 700 m 1
 571 660 l 1
 189 0 l 1
 11 0 l 1
 437 700 l 1
602 0 m 1
 602 121 l 1
 977 121 l 1
 977 0 l 1
 602 0 l 1
610 579 m 1
 437 700 l 1
 977 700 l 1
 977 579 l 1
 610 579 l 1
602 312 m 1
 602 431 l 1
 957 431 l 1
 957 312 l 1
 602 312 l 1
531 700 m 1
 683 700 l 1
 683 0 l 1
 531 0 l 1
 531 700 l 1
EndSplineSet
EndChar

StartChar: Ccedilla
Encoding: 199 199 192
Width: 695
VWidth: 0
Flags: HMW
LayerCount: 2
Fore
SplineSet
191 350 m 0
 191 211 295 123 416 123 c 0
 515 123 583 167 630 220 c 1
 630 58 l 1
 573 12 511 -14 409 -14 c 0
 193 -14 36 135 36 350 c 0
 36 565 193 714 409 714 c 0
 511 714 573 688 630 642 c 1
 630 480 l 1
 583 533 515 577 416 577 c 0
 295 577 191 489 191 350 c 0
365 52 m 1
 459 49 l 1
 381 -70 l 1
 390 -68 399 -67 409 -67 c 0
 447 -67 494 -97 494 -158 c 0
 494 -227 432 -262 371 -262 c 0
 321 -262 284 -252 243 -223 c 1
 285 -163 l 1
 308 -181 335 -188 357 -188 c 0
 391 -188 410 -176 410 -152 c 0
 410 -126 384 -118 352 -118 c 0
 342 -118 309 -121 278 -135 c 1
 365 52 l 1
EndSplineSet
EndChar

StartChar: Egrave
Encoding: 200 200 193
Width: 586
VWidth: 0
Flags: HMW
LayerCount: 2
Fore
SplineSet
168 0 m 1
 168 121 l 1
 521 121 l 1
 521 0 l 1
 168 0 l 1
168 579 m 1
 168 700 l 1
 521 700 l 1
 521 579 l 1
 168 579 l 1
168 312 m 1
 168 431 l 1
 501 431 l 1
 501 312 l 1
 168 312 l 1
76 700 m 1
 215 700 l 1
 215 0 l 1
 76 0 l 1
 76 700 l 1
147 929 m 1
 250 977 l 1
 400 817 l 1
 327 779 l 1
 147 929 l 1
EndSplineSet
EndChar

StartChar: Eacute
Encoding: 201 201 194
Width: 586
VWidth: 0
Flags: HMW
LayerCount: 2
Fore
SplineSet
168 0 m 1
 168 121 l 1
 521 121 l 1
 521 0 l 1
 168 0 l 1
168 579 m 1
 168 700 l 1
 521 700 l 1
 521 579 l 1
 168 579 l 1
168 312 m 1
 168 431 l 1
 501 431 l 1
 501 312 l 1
 168 312 l 1
76 700 m 1
 215 700 l 1
 215 0 l 1
 76 0 l 1
 76 700 l 1
448 929 m 1
 268 779 l 1
 195 817 l 1
 345 977 l 1
 448 929 l 1
EndSplineSet
EndChar

StartChar: Ecircumflex
Encoding: 202 202 195
Width: 586
VWidth: 0
Flags: HMW
LayerCount: 2
Fore
SplineSet
168 0 m 1
 168 121 l 1
 521 121 l 1
 521 0 l 1
 168 0 l 1
168 579 m 1
 168 700 l 1
 521 700 l 1
 521 579 l 1
 168 579 l 1
168 312 m 1
 168 431 l 1
 501 431 l 1
 501 312 l 1
 168 312 l 1
76 700 m 1
 215 700 l 1
 215 0 l 1
 76 0 l 1
 76 700 l 1
304 878 m 1
 194 783 l 1
 144 823 l 1
 304 963 l 1
 464 823 l 1
 414 783 l 1
 304 878 l 1
EndSplineSet
EndChar

StartChar: Edieresis
Encoding: 203 203 196
Width: 586
VWidth: 0
Flags: HMW
LayerCount: 2
Fore
SplineSet
168 0 m 1
 168 121 l 1
 521 121 l 1
 521 0 l 1
 168 0 l 1
168 579 m 1
 168 700 l 1
 521 700 l 1
 521 579 l 1
 168 579 l 1
168 312 m 1
 168 431 l 1
 501 431 l 1
 501 312 l 1
 168 312 l 1
76 700 m 1
 215 700 l 1
 215 0 l 1
 76 0 l 1
 76 700 l 1
341 859 m 0
 341 902 376 933 419 933 c 0
 462 933 497 902 497 859 c 0
 497 816 462 786 419 786 c 0
 376 786 341 816 341 859 c 0
111 859 m 0
 111 902 146 933 189 933 c 0
 232 933 267 902 267 859 c 0
 267 816 232 786 189 786 c 0
 146 786 111 816 111 859 c 0
EndSplineSet
EndChar

StartChar: Igrave
Encoding: 204 204 197
Width: 296
VWidth: 0
Flags: HMW
LayerCount: 2
Fore
SplineSet
76 700 m 1
 221 700 l 1
 221 0 l 1
 76 0 l 1
 76 700 l 1
-8 929 m 1
 96 977 l 1
 246 817 l 1
 172 779 l 1
 -8 929 l 1
EndSplineSet
EndChar

StartChar: Iacute
Encoding: 205 205 198
Width: 296
VWidth: 0
Flags: HMW
LayerCount: 2
Fore
SplineSet
76 700 m 1
 221 700 l 1
 221 0 l 1
 76 0 l 1
 76 700 l 1
294 929 m 1
 114 779 l 1
 41 817 l 1
 191 977 l 1
 294 929 l 1
EndSplineSet
EndChar

StartChar: Icircumflex
Encoding: 206 206 199
Width: 296
VWidth: 0
Flags: HMW
LayerCount: 2
Fore
SplineSet
76 700 m 1
 221 700 l 1
 221 0 l 1
 76 0 l 1
 76 700 l 1
144 878 m 1
 34 783 l 1
 -16 823 l 1
 144 963 l 1
 304 823 l 1
 254 783 l 1
 144 878 l 1
EndSplineSet
EndChar

StartChar: Idieresis
Encoding: 207 207 200
Width: 296
VWidth: 0
Flags: HMW
LayerCount: 2
Fore
SplineSet
76 700 m 1
 221 700 l 1
 221 0 l 1
 76 0 l 1
 76 700 l 1
186 848 m 0
 186 891 221 922 264 922 c 0
 307 922 342 891 342 848 c 0
 342 805 307 774 264 774 c 0
 221 774 186 805 186 848 c 0
-44 848 m 0
 -44 891 -10 922 33 922 c 0
 76 922 112 891 112 848 c 0
 112 805 76 774 33 774 c 0
 -10 774 -44 805 -44 848 c 0
EndSplineSet
EndChar

StartChar: Ntilde
Encoding: 209 209 201
Width: 787
VWidth: 0
Flags: HMW
LayerCount: 2
Fore
SplineSet
573 700 m 1
 712 700 l 1
 712 -35 l 1
 215 432 l 1
 215 0 l 1
 76 0 l 1
 76 735 l 1
 573 268 l 1
 573 700 l 1
185 821 m 1
 195 870 242 911 300 911 c 0
 366 911 376 861 432 861 c 0
 455 861 475 880 495 912 c 1
 558 848 l 1
 542 811 492 766 433 766 c 0
 378 766 347 817 299 817 c 0
 260 817 251 781 251 766 c 1
 185 821 l 1
EndSplineSet
EndChar

StartChar: Eth
Encoding: 208 208 202
Width: 716
VWidth: 0
Flags: HMW
LayerCount: 2
Fore
SplineSet
5 305 m 1
 5 397 l 1
 340 397 l 1
 340 305 l 1
 5 305 l 1
76 700 m 1
 223 700 l 1
 223 0 l 1
 76 0 l 1
 76 700 l 1
314 0 m 2
 168 0 l 1
 168 130 l 1
 309 130 l 2
 432 130 533 196 533 350 c 0
 533 504 432 570 309 570 c 2
 168 570 l 1
 168 700 l 1
 314 700 l 2
 535 700 681 563 681 350 c 0
 681 137 535 0 314 0 c 2
EndSplineSet
EndChar

StartChar: Ograve
Encoding: 210 210 203
Width: 811
VWidth: 0
Flags: HMW
LayerCount: 2
Fore
SplineSet
188 350 m 0
 188 216 277 120 406 120 c 0
 535 120 624 216 624 350 c 0
 624 484 537 580 406 580 c 0
 277 580 188 484 188 350 c 0
36 350 m 0
 36 563 196 714 406 714 c 0
 619 714 776 563 776 350 c 0
 776 137 621 -19 406 -19 c 0
 191 -19 36 137 36 350 c 0
266 929 m 1
 369 977 l 1
 519 817 l 1
 446 779 l 1
 266 929 l 1
EndSplineSet
EndChar

StartChar: Oacute
Encoding: 211 211 204
Width: 811
VWidth: 0
Flags: HMW
LayerCount: 2
Fore
SplineSet
188 350 m 0
 188 216 277 120 406 120 c 0
 535 120 624 216 624 350 c 0
 624 484 537 580 406 580 c 0
 277 580 188 484 188 350 c 0
36 350 m 0
 36 563 196 714 406 714 c 0
 619 714 776 563 776 350 c 0
 776 137 621 -19 406 -19 c 0
 191 -19 36 137 36 350 c 0
556 929 m 1
 376 779 l 1
 303 817 l 1
 453 977 l 1
 556 929 l 1
EndSplineSet
EndChar

StartChar: Ocircumflex
Encoding: 212 212 205
Width: 811
VWidth: 0
Flags: HMW
LayerCount: 2
Fore
SplineSet
188 350 m 0
 188 216 277 120 406 120 c 0
 535 120 624 216 624 350 c 0
 624 484 537 580 406 580 c 0
 277 580 188 484 188 350 c 0
36 350 m 0
 36 563 196 714 406 714 c 0
 619 714 776 563 776 350 c 0
 776 137 621 -19 406 -19 c 0
 191 -19 36 137 36 350 c 0
412 878 m 1
 302 783 l 1
 252 823 l 1
 412 963 l 1
 572 823 l 1
 522 783 l 1
 412 878 l 1
EndSplineSet
EndChar

StartChar: Otilde
Encoding: 213 213 206
Width: 811
VWidth: 0
Flags: HMW
LayerCount: 2
Fore
SplineSet
188 350 m 0
 188 216 277 120 406 120 c 0
 535 120 624 216 624 350 c 0
 624 484 537 580 406 580 c 0
 277 580 188 484 188 350 c 0
36 350 m 0
 36 563 196 714 406 714 c 0
 619 714 776 563 776 350 c 0
 776 137 621 -19 406 -19 c 0
 191 -19 36 137 36 350 c 0
243 831 m 1
 253 880 302 913 347 913 c 0
 412 913 417 866 471 866 c 0
 490 866 507 882 527 914 c 1
 573 871 l 1
 557 834 517 798 467 798 c 0
 412 798 391 845 346 845 c 0
 305 845 296 809 296 794 c 1
 243 831 l 1
EndSplineSet
EndChar

StartChar: Odieresis
Encoding: 214 214 207
Width: 811
VWidth: 0
Flags: HMW
LayerCount: 2
Fore
SplineSet
188 350 m 0
 188 216 277 120 406 120 c 0
 535 120 624 216 624 350 c 0
 624 484 537 580 406 580 c 0
 277 580 188 484 188 350 c 0
36 350 m 0
 36 563 196 714 406 714 c 0
 619 714 776 563 776 350 c 0
 776 137 621 -19 406 -19 c 0
 191 -19 36 137 36 350 c 0
443 848 m 0
 443 891 478 922 521 922 c 0
 564 922 599 891 599 848 c 0
 599 805 564 774 521 774 c 0
 478 774 443 805 443 848 c 0
213 848 m 0
 213 891 248 922 291 922 c 0
 334 922 369 891 369 848 c 0
 369 805 334 774 291 774 c 0
 248 774 213 805 213 848 c 0
EndSplineSet
EndChar

StartChar: Ugrave
Encoding: 217 217 208
Width: 677
VWidth: 0
Flags: HMW
LayerCount: 2
Fore
SplineSet
71 700 m 1
 214 700 l 1
 214 239 l 2
 214 160 256 107 339 107 c 0
 422 107 464 160 464 239 c 2
 464 700 l 1
 607 700 l 1
 607 230 l 2
 607 65 493 -23 339 -23 c 0
 185 -23 71 65 71 230 c 2
 71 700 l 1
187 924 m 1
 290 973 l 1
 440 813 l 1
 367 774 l 1
 187 924 l 1
EndSplineSet
EndChar

StartChar: Uacute
Encoding: 218 218 209
Width: 677
VWidth: 0
Flags: HMW
LayerCount: 2
Fore
SplineSet
71 700 m 1
 214 700 l 1
 214 239 l 2
 214 160 256 107 339 107 c 0
 422 107 464 160 464 239 c 2
 464 700 l 1
 607 700 l 1
 607 230 l 2
 607 65 493 -23 339 -23 c 0
 185 -23 71 65 71 230 c 2
 71 700 l 1
491 924 m 1
 311 774 l 1
 237 813 l 1
 387 973 l 1
 491 924 l 1
EndSplineSet
EndChar

StartChar: Ucircumflex
Encoding: 219 219 210
Width: 677
VWidth: 0
Flags: HMW
LayerCount: 2
Fore
SplineSet
71 700 m 1
 214 700 l 1
 214 239 l 2
 214 160 256 107 339 107 c 0
 422 107 464 160 464 239 c 2
 464 700 l 1
 607 700 l 1
 607 230 l 2
 607 65 493 -23 339 -23 c 0
 185 -23 71 65 71 230 c 2
 71 700 l 1
339 863 m 1
 242 774 l 1
 153 836 l 1
 339 976 l 1
 525 836 l 1
 436 774 l 1
 339 863 l 1
EndSplineSet
EndChar

StartChar: Udieresis
Encoding: 220 220 211
Width: 677
VWidth: 0
Flags: HMW
LayerCount: 2
Fore
SplineSet
71 700 m 1
 214 700 l 1
 214 239 l 2
 214 160 256 107 339 107 c 0
 422 107 464 160 464 239 c 2
 464 700 l 1
 607 700 l 1
 607 230 l 2
 607 65 493 -23 339 -23 c 0
 185 -23 71 65 71 230 c 2
 71 700 l 1
389 848 m 0
 389 891 424 922 467 922 c 0
 510 922 545 891 545 848 c 0
 545 805 510 774 467 774 c 0
 424 774 389 805 389 848 c 0
133 848 m 0
 133 891 168 922 211 922 c 0
 254 922 289 891 289 848 c 0
 289 805 254 774 211 774 c 0
 168 774 133 805 133 848 c 0
EndSplineSet
EndChar

StartChar: Yacute
Encoding: 221 221 212
Width: 629
VWidth: 0
Flags: HMW
LayerCount: 2
Fore
SplineSet
466 924 m 1
 286 774 l 1
 214 813 l 1
 364 973 l 1
 466 924 l 1
465 700 m 1
 629 700 l 1
 388 290 l 1
 388 0 l 1
 242 0 l 1
 242 289 l 1
 1 700 l 1
 165 700 l 1
 315 418 l 1
 465 700 l 1
EndSplineSet
EndChar

StartChar: agrave
Encoding: 224 224 213
Width: 526
VWidth: 0
Flags: HMW
LayerCount: 2
Fore
SplineSet
156 137 m 0
 156 99 185 80 232 80 c 0
 295 80 345 107 345 184 c 1
 361 130 l 1
 361 41 285 -10 190 -10 c 0
 91 -10 26 41 26 127 c 0
 26 225 109 281 224 281 c 0
 299 281 360 248 378 228 c 1
 378 165 l 1
 340 193 303 206 249 206 c 0
 188 206 156 179 156 137 c 0
115 329 m 1
 68 418 l 1
 115 443 184 472 267 472 c 0
 385 472 470 419 470 326 c 2
 470 0 l 1
 345 0 l 1
 345 305 l 2
 345 346 309 371 259 371 c 0
 193 371 137 343 115 329 c 1
99 682 m 1
 202 731 l 1
 352 571 l 1
 279 532 l 1
 99 682 l 1
EndSplineSet
Substitution2: "alt a" agrave.alt
EndChar

StartChar: aacute
Encoding: 225 225 214
Width: 526
VWidth: 0
Flags: HMW
LayerCount: 2
Fore
SplineSet
156 137 m 0
 156 99 185 80 232 80 c 0
 295 80 345 107 345 184 c 1
 361 130 l 1
 361 41 285 -10 190 -10 c 0
 91 -10 26 41 26 127 c 0
 26 225 109 281 224 281 c 0
 299 281 360 248 378 228 c 1
 378 165 l 1
 340 193 303 206 249 206 c 0
 188 206 156 179 156 137 c 0
115 329 m 1
 68 418 l 1
 115 443 184 472 267 472 c 0
 385 472 470 419 470 326 c 2
 470 0 l 1
 345 0 l 1
 345 305 l 2
 345 346 309 371 259 371 c 0
 193 371 137 343 115 329 c 1
436 682 m 1
 256 532 l 1
 183 571 l 1
 333 731 l 1
 436 682 l 1
EndSplineSet
Substitution2: "alt a" aacute.alt
EndChar

StartChar: acircumflex
Encoding: 226 226 215
Width: 526
VWidth: 0
Flags: HMW
LayerCount: 2
Fore
SplineSet
156 137 m 0
 156 99 185 80 232 80 c 0
 295 80 345 107 345 184 c 1
 361 130 l 1
 361 41 285 -10 190 -10 c 0
 91 -10 26 41 26 127 c 0
 26 225 109 281 224 281 c 0
 299 281 360 248 378 228 c 1
 378 165 l 1
 340 193 303 206 249 206 c 0
 188 206 156 179 156 137 c 0
115 329 m 1
 68 418 l 1
 115 443 184 472 267 472 c 0
 385 472 470 419 470 326 c 2
 470 0 l 1
 345 0 l 1
 345 305 l 2
 345 346 309 371 259 371 c 0
 193 371 137 343 115 329 c 1
267 621 m 1
 170 532 l 1
 82 594 l 1
 267 734 l 1
 453 594 l 1
 364 532 l 1
 267 621 l 1
EndSplineSet
Substitution2: "alt a" acircumflex.alt
EndChar

StartChar: atilde
Encoding: 227 227 216
Width: 526
VWidth: 0
Flags: HMW
LayerCount: 2
Fore
SplineSet
156 137 m 0
 156 99 185 80 232 80 c 0
 295 80 345 107 345 184 c 1
 361 130 l 1
 361 41 285 -10 190 -10 c 0
 91 -10 26 41 26 127 c 0
 26 225 109 281 224 281 c 0
 299 281 360 248 378 228 c 1
 378 165 l 1
 340 193 303 206 249 206 c 0
 188 206 156 179 156 137 c 0
115 329 m 1
 68 418 l 1
 115 443 184 472 267 472 c 0
 385 472 470 419 470 326 c 2
 470 0 l 1
 345 0 l 1
 345 305 l 2
 345 346 309 371 259 371 c 0
 193 371 137 343 115 329 c 1
81 589 m 1
 91 638 138 680 196 680 c 0
 262 680 272 629 328 629 c 0
 351 629 371 649 391 681 c 1
 454 616 l 1
 438 579 388 534 329 534 c 0
 274 534 243 586 195 586 c 0
 156 586 147 550 147 535 c 1
 81 589 l 1
EndSplineSet
Substitution2: "alt a" atilde.alt
EndChar

StartChar: adieresis
Encoding: 228 228 217
Width: 526
VWidth: 0
Flags: HMW
LayerCount: 2
Fore
SplineSet
156 137 m 0
 156 99 185 80 232 80 c 0
 295 80 345 107 345 184 c 1
 361 130 l 1
 361 41 285 -10 190 -10 c 0
 91 -10 26 41 26 127 c 0
 26 225 109 281 224 281 c 0
 299 281 360 248 378 228 c 1
 378 165 l 1
 340 193 303 206 249 206 c 0
 188 206 156 179 156 137 c 0
115 329 m 1
 68 418 l 1
 115 443 184 472 267 472 c 0
 385 472 470 419 470 326 c 2
 470 0 l 1
 345 0 l 1
 345 305 l 2
 345 346 309 371 259 371 c 0
 193 371 137 343 115 329 c 1
305 606 m 0
 305 649 340 679 383 679 c 0
 426 679 461 649 461 606 c 0
 461 563 426 532 383 532 c 0
 340 532 305 563 305 606 c 0
74 606 m 0
 74 649 109 679 152 679 c 0
 195 679 230 649 230 606 c 0
 230 563 195 532 152 532 c 0
 109 532 74 563 74 606 c 0
EndSplineSet
Substitution2: "alt a" adieresis.alt
EndChar

StartChar: aring
Encoding: 229 229 218
Width: 526
VWidth: 0
Flags: HMW
LayerCount: 2
Fore
SplineSet
156 137 m 0
 156 99 185 80 232 80 c 0
 295 80 345 107 345 184 c 1
 361 130 l 1
 361 41 285 -10 190 -10 c 0
 91 -10 26 41 26 127 c 0
 26 225 109 281 224 281 c 0
 299 281 360 248 378 228 c 1
 378 165 l 1
 340 193 303 206 249 206 c 0
 188 206 156 179 156 137 c 0
115 329 m 1
 68 418 l 1
 115 443 184 472 267 472 c 0
 385 472 470 419 470 326 c 2
 470 0 l 1
 345 0 l 1
 345 305 l 2
 345 346 309 371 259 371 c 0
 193 371 137 343 115 329 c 1
149 643 m 0
 149 709 203 754 267 754 c 0
 331 754 386 709 386 643 c 0
 386 577 331 532 267 532 c 0
 203 532 149 577 149 643 c 0
220 643 m 0
 220 612 242 594 267 594 c 0
 292 594 315 612 315 643 c 0
 315 674 292 693 267 693 c 0
 242 693 220 674 220 643 c 0
EndSplineSet
Substitution2: "alt a" aring.alt
EndChar

StartChar: germandbls
Encoding: 223 223 219
Width: 585
VWidth: 0
Flags: HMW
LayerCount: 2
Fore
SplineSet
278 108 m 1
 358 108 425 164 425 248 c 0
 425 317 373 379 263 379 c 1
 263 469 l 1
 427 469 555 373 555 225 c 0
 555 77 439 -10 278 -10 c 1
 278 108 l 1
263 416 m 1
 263 497 l 1
 356 497 385 540 385 587 c 0
 385 640 351 676 283 676 c 0
 227 676 188 647 188 593 c 2
 188 0 l 1
 63 0 l 1
 63 606 l 2
 63 724 165 794 283 794 c 0
 431 794 511 715 511 606 c 0
 511 487 427 416 263 416 c 1
EndSplineSet
EndChar

StartChar: ae
Encoding: 230 230 220
Width: 874
VWidth: 0
Flags: HMW
LayerCount: 2
Fore
SplineSet
156 137 m 0
 156 99 185 80 232 80 c 0
 295 80 345 107 345 184 c 1
 408 130 l 1
 408 41 331 -10 214 -10 c 0
 95 -10 26 41 26 127 c 0
 26 225 109 281 224 281 c 0
 299 281 360 248 378 228 c 1
 378 165 l 1
 340 193 303 206 249 206 c 0
 188 206 156 179 156 137 c 0
115 329 m 1
 68 418 l 1
 115 443 184 472 267 472 c 0
 385 472 429 419 429 326 c 2
 429 130 l 1
 345 130 l 1
 345 299 l 2
 345 340 309 371 259 371 c 0
 193 371 137 343 115 329 c 1
415 201 m 1
 415 281 l 1
 821 281 l 1
 838 201 l 1
 415 201 l 1
703 246 m 2
 703 328 672 378 599 378 c 0
 532 378 484 333 484 256 c 1
 482 230 l 1
 482 133 533 89 601 89 c 0
 659 89 699 114 724 155 c 1
 838 120 l 1
 792 41 728 -10 600 -10 c 0
 445 -10 379 91 379 230 c 0
 379 247 385 263 388 279 c 0
 407 392 488 470 620 470 c 0
 747 470 840 381 840 236 c 0
 840 228 839 215 838 201 c 1
 703 221 l 1
 703 246 l 2
EndSplineSet
EndChar

StartChar: ccedilla
Encoding: 231 231 221
Width: 488
VWidth: 0
Flags: HMW
LayerCount: 2
Fore
SplineSet
163 230 m 0
 163 149 221 97 296 97 c 0
 357 97 414 126 439 170 c 1
 439 37 l 1
 407 8 354 -10 287 -10 c 0
 139 -10 30 87 30 230 c 0
 30 373 139 470 287 470 c 0
 354 470 407 451 439 424 c 1
 439 291 l 1
 414 335 353 363 296 363 c 0
 221 363 163 307 163 230 c 0
244 60 m 1
 338 58 l 1
 259 -61 l 1
 268 -59 277 -59 287 -59 c 0
 325 -59 373 -88 373 -149 c 0
 373 -218 310 -254 249 -254 c 0
 199 -254 163 -244 122 -215 c 1
 164 -155 l 1
 187 -173 214 -180 236 -180 c 0
 270 -180 289 -167 289 -143 c 0
 289 -117 263 -110 231 -110 c 0
 221 -110 187 -112 156 -126 c 1
 244 60 l 1
EndSplineSet
EndChar

StartChar: egrave
Encoding: 232 232 222
Width: 555
VWidth: 0
Flags: HMW
LayerCount: 2
Fore
SplineSet
108 201 m 1
 108 281 l 1
 382 281 l 1
 375 341 342 378 280 378 c 0
 213 378 166 333 166 256 c 1
 164 230 l 1
 164 133 214 89 282 89 c 0
 340 89 381 114 406 155 c 1
 520 120 l 1
 474 41 409 -10 281 -10 c 0
 126 -10 33 91 33 230 c 0
 33 247 34 263 37 279 c 0
 56 392 141 470 282 470 c 0
 434 470 521 381 521 236 c 0
 521 228 521 215 520 201 c 1
 108 201 l 1
125 686 m 1
 228 735 l 1
 378 575 l 1
 305 536 l 1
 125 686 l 1
EndSplineSet
EndChar

StartChar: eacute
Encoding: 233 233 223
Width: 555
VWidth: 0
Flags: HMW
LayerCount: 2
Fore
SplineSet
108 201 m 1
 108 281 l 1
 382 281 l 1
 375 341 342 378 280 378 c 0
 213 378 166 333 166 256 c 1
 164 230 l 1
 164 133 214 89 282 89 c 0
 340 89 381 114 406 155 c 1
 520 120 l 1
 474 41 409 -10 281 -10 c 0
 126 -10 33 91 33 230 c 0
 33 247 34 263 37 279 c 0
 56 392 141 470 282 470 c 0
 434 470 521 381 521 236 c 0
 521 228 521 215 520 201 c 1
 108 201 l 1
451 686 m 1
 271 536 l 1
 198 575 l 1
 348 735 l 1
 451 686 l 1
EndSplineSet
EndChar

StartChar: ecircumflex
Encoding: 234 234 224
Width: 555
VWidth: 0
Flags: HMW
LayerCount: 2
Fore
SplineSet
108 201 m 1
 108 281 l 1
 382 281 l 1
 375 341 342 378 280 378 c 0
 213 378 166 333 166 256 c 1
 164 230 l 1
 164 133 214 89 282 89 c 0
 340 89 381 114 406 155 c 1
 520 120 l 1
 474 41 409 -10 281 -10 c 0
 126 -10 33 91 33 230 c 0
 33 247 34 263 37 279 c 0
 56 392 141 470 282 470 c 0
 434 470 521 381 521 236 c 0
 521 228 521 215 520 201 c 1
 108 201 l 1
282 619 m 1
 185 530 l 1
 97 592 l 1
 282 732 l 1
 468 592 l 1
 379 530 l 1
 282 619 l 1
EndSplineSet
EndChar

StartChar: edieresis
Encoding: 235 235 225
Width: 555
VWidth: 0
Flags: HMW
LayerCount: 2
Fore
SplineSet
108 201 m 1
 108 281 l 1
 382 281 l 1
 375 341 342 378 280 378 c 0
 213 378 166 333 166 256 c 1
 164 230 l 1
 164 133 214 89 282 89 c 0
 340 89 381 114 406 155 c 1
 520 120 l 1
 474 41 409 -10 281 -10 c 0
 126 -10 33 91 33 230 c 0
 33 247 34 263 37 279 c 0
 56 392 141 470 282 470 c 0
 434 470 521 381 521 236 c 0
 521 228 521 215 520 201 c 1
 108 201 l 1
320 604 m 0
 320 647 355 678 398 678 c 0
 441 678 476 647 476 604 c 0
 476 561 441 530 398 530 c 0
 355 530 320 561 320 604 c 0
89 604 m 0
 89 647 124 678 167 678 c 0
 210 678 245 647 245 604 c 0
 245 561 210 530 167 530 c 0
 124 530 89 561 89 604 c 0
EndSplineSet
EndChar

StartChar: igrave
Encoding: 236 236 226
Width: 271
VWidth: 0
Flags: HMW
LayerCount: 2
Fore
SplineSet
72 460 m 1
 199 460 l 1
 199 0 l 1
 72 0 l 1
 72 460 l 1
-39 692 m 1
 64 740 l 1
 214 580 l 1
 141 542 l 1
 -39 692 l 1
EndSplineSet
EndChar

StartChar: dotlessi
Encoding: 305 305 227
Width: 271
VWidth: 0
Flags: HMW
LayerCount: 2
Fore
SplineSet
72 460 m 1
 199 460 l 1
 199 0 l 1
 72 0 l 1
 72 460 l 1
EndSplineSet
EndChar

StartChar: kgreenlandic
Encoding: 312 312 228
Width: 535
VWidth: 0
Flags: HMW
LayerCount: 2
Fore
SplineSet
61 460 m 1
 187 460 l 1
 187 0 l 1
 61 0 l 1
 61 460 l 1
355 460 m 1
 511 460 l 1
 313 270 l 1
 531 0 l 1
 377 0 l 1
 157 270 l 1
 355 460 l 1
EndSplineSet
EndChar

StartChar: iacute
Encoding: 237 237 229
Width: 271
VWidth: 0
Flags: HMW
LayerCount: 2
Fore
SplineSet
72 460 m 1
 199 460 l 1
 199 0 l 1
 72 0 l 1
 72 460 l 1
304 692 m 1
 124 542 l 1
 51 580 l 1
 201 740 l 1
 304 692 l 1
EndSplineSet
EndChar

StartChar: icircumflex
Encoding: 238 238 230
Width: 271
VWidth: 0
Flags: HMW
LayerCount: 2
Fore
SplineSet
72 460 m 1
 199 460 l 1
 199 0 l 1
 72 0 l 1
 72 460 l 1
135 625 m 1
 38 536 l 1
 -51 598 l 1
 135 738 l 1
 321 598 l 1
 232 536 l 1
 135 625 l 1
EndSplineSet
EndChar

StartChar: idieresis
Encoding: 239 239 231
Width: 271
VWidth: 0
Flags: HMW
LayerCount: 2
Fore
SplineSet
72 460 m 1
 199 460 l 1
 199 0 l 1
 72 0 l 1
 72 460 l 1
173 621 m 0
 173 664 208 695 251 695 c 0
 294 695 329 664 329 621 c 0
 329 578 294 547 251 547 c 0
 208 547 173 578 173 621 c 0
-57 621 m 0
 -57 664 -23 695 20 695 c 0
 63 695 98 664 98 621 c 0
 98 578 63 547 20 547 c 0
 -23 547 -57 578 -57 621 c 0
EndSplineSet
EndChar

StartChar: ntilde
Encoding: 241 241 232
Width: 559
VWidth: 0
Flags: HMW
LayerCount: 2
Fore
SplineSet
194 460 m 1
 194 0 l 1
 64 0 l 1
 64 460 l 1
 194 460 l 1
361 280 m 2
 361 341 339 374 285 374 c 0
 230 374 194 337 194 280 c 1
 162 276 l 1
 162 385 225 470 333 470 c 0
 441 470 495 409 495 294 c 2
 495 0 l 1
 361 0 l 1
 361 280 l 2
94 587 m 1
 104 636 150 678 208 678 c 0
 274 678 285 628 341 628 c 0
 364 628 384 647 404 679 c 1
 467 614 l 1
 451 577 400 533 341 533 c 0
 286 533 255 584 207 584 c 0
 168 584 159 548 159 533 c 1
 94 587 l 1
EndSplineSet
EndChar

StartChar: ograve
Encoding: 242 242 233
Width: 576
VWidth: 0
Flags: HMW
LayerCount: 2
Fore
SplineSet
33 230 m 0
 33 373 142 470 288 470 c 0
 434 470 543 373 543 230 c 0
 543 87 434 -10 288 -10 c 0
 142 -10 33 87 33 230 c 0
166 230 m 0
 166 151 220 100 288 100 c 0
 356 100 411 151 411 230 c 0
 411 309 356 361 288 361 c 0
 220 361 166 309 166 230 c 0
128 692 m 1
 231 740 l 1
 381 580 l 1
 308 542 l 1
 128 692 l 1
EndSplineSet
EndChar

StartChar: oacute
Encoding: 243 243 234
Width: 576
VWidth: 0
Flags: HMW
LayerCount: 2
Fore
SplineSet
33 230 m 0
 33 373 142 470 288 470 c 0
 434 470 543 373 543 230 c 0
 543 87 434 -10 288 -10 c 0
 142 -10 33 87 33 230 c 0
166 230 m 0
 166 151 220 100 288 100 c 0
 356 100 411 151 411 230 c 0
 411 309 356 361 288 361 c 0
 220 361 166 309 166 230 c 0
448 692 m 1
 268 542 l 1
 195 580 l 1
 345 740 l 1
 448 692 l 1
EndSplineSet
EndChar

StartChar: ocircumflex
Encoding: 244 244 235
Width: 576
VWidth: 0
Flags: HMW
LayerCount: 2
Fore
SplineSet
33 230 m 0
 33 373 142 470 288 470 c 0
 434 470 543 373 543 230 c 0
 543 87 434 -10 288 -10 c 0
 142 -10 33 87 33 230 c 0
166 230 m 0
 166 151 220 100 288 100 c 0
 356 100 411 151 411 230 c 0
 411 309 356 361 288 361 c 0
 220 361 166 309 166 230 c 0
288 630 m 1
 191 542 l 1
 102 603 l 1
 288 743 l 1
 474 603 l 1
 385 542 l 1
 288 630 l 1
EndSplineSet
EndChar

StartChar: otilde
Encoding: 245 245 236
Width: 576
VWidth: 0
Flags: HMW
LayerCount: 2
Fore
SplineSet
33 230 m 0
 33 373 142 470 288 470 c 0
 434 470 543 373 543 230 c 0
 543 87 434 -10 288 -10 c 0
 142 -10 33 87 33 230 c 0
166 230 m 0
 166 151 220 100 288 100 c 0
 356 100 411 151 411 230 c 0
 411 309 356 361 288 361 c 0
 220 361 166 309 166 230 c 0
102 587 m 1
 112 636 158 678 216 678 c 0
 282 678 293 628 349 628 c 0
 372 628 391 647 411 679 c 1
 475 614 l 1
 459 577 408 533 349 533 c 0
 294 533 263 584 215 584 c 0
 176 584 167 548 167 533 c 1
 102 587 l 1
EndSplineSet
EndChar

StartChar: odieresis
Encoding: 246 246 237
Width: 576
VWidth: 0
Flags: HMW
LayerCount: 2
Fore
SplineSet
33 230 m 0
 33 373 142 470 288 470 c 0
 434 470 543 373 543 230 c 0
 543 87 434 -10 288 -10 c 0
 142 -10 33 87 33 230 c 0
166 230 m 0
 166 151 220 100 288 100 c 0
 356 100 411 151 411 230 c 0
 411 309 356 361 288 361 c 0
 220 361 166 309 166 230 c 0
325 621 m 0
 325 664 360 695 403 695 c 0
 446 695 481 664 481 621 c 0
 481 578 446 547 403 547 c 0
 360 547 325 578 325 621 c 0
95 621 m 0
 95 664 130 695 173 695 c 0
 216 695 251 664 251 621 c 0
 251 578 216 547 173 547 c 0
 130 547 95 578 95 621 c 0
EndSplineSet
EndChar

StartChar: ugrave
Encoding: 249 249 238
Width: 559
VWidth: 0
Flags: HMW
LayerCount: 2
Fore
SplineSet
366 0 m 1
 366 460 l 1
 495 460 l 1
 495 0 l 1
 366 0 l 1
198 180 m 2
 198 119 221 86 275 86 c 0
 330 86 366 123 366 180 c 1
 397 184 l 1
 397 75 335 -10 227 -10 c 0
 119 -10 64 51 64 166 c 2
 64 460 l 1
 198 460 l 1
 198 180 l 2
142 692 m 1
 246 740 l 1
 396 580 l 1
 322 542 l 1
 142 692 l 1
EndSplineSet
EndChar

StartChar: uacute
Encoding: 250 250 239
Width: 559
VWidth: 0
Flags: HMW
LayerCount: 2
Fore
SplineSet
366 0 m 1
 366 460 l 1
 495 460 l 1
 495 0 l 1
 366 0 l 1
198 180 m 2
 198 119 221 86 275 86 c 0
 330 86 366 123 366 180 c 1
 397 184 l 1
 397 75 335 -10 227 -10 c 0
 119 -10 64 51 64 166 c 2
 64 460 l 1
 198 460 l 1
 198 180 l 2
417 692 m 1
 237 542 l 1
 164 580 l 1
 314 740 l 1
 417 692 l 1
EndSplineSet
EndChar

StartChar: ucircumflex
Encoding: 251 251 240
Width: 559
VWidth: 0
Flags: HMW
LayerCount: 2
Fore
SplineSet
366 0 m 1
 366 460 l 1
 495 460 l 1
 495 0 l 1
 366 0 l 1
198 180 m 2
 198 119 221 86 275 86 c 0
 330 86 366 123 366 180 c 1
 397 184 l 1
 397 75 335 -10 227 -10 c 0
 119 -10 64 51 64 166 c 2
 64 460 l 1
 198 460 l 1
 198 180 l 2
279 630 m 1
 182 542 l 1
 93 603 l 1
 279 743 l 1
 465 603 l 1
 376 542 l 1
 279 630 l 1
EndSplineSet
EndChar

StartChar: udieresis
Encoding: 252 252 241
Width: 559
VWidth: 0
Flags: HMW
LayerCount: 2
Fore
SplineSet
366 0 m 1
 366 460 l 1
 495 460 l 1
 495 0 l 1
 366 0 l 1
198 180 m 2
 198 119 221 86 275 86 c 0
 330 86 366 123 366 180 c 1
 397 184 l 1
 397 75 335 -10 227 -10 c 0
 119 -10 64 51 64 166 c 2
 64 460 l 1
 198 460 l 1
 198 180 l 2
318 615 m 0
 318 658 352 689 395 689 c 0
 438 689 473 658 473 615 c 0
 473 572 438 542 395 542 c 0
 352 542 318 572 318 615 c 0
87 615 m 0
 87 658 122 689 165 689 c 0
 208 689 243 658 243 615 c 0
 243 572 208 542 165 542 c 0
 122 542 87 572 87 615 c 0
EndSplineSet
EndChar

StartChar: yacute
Encoding: 253 253 242
Width: 496
VWidth: 0
Flags: HMW
LayerCount: 2
Fore
SplineSet
503 460 m 1
 203 -220 l 1
 69 -220 l 1
 186 46 l 1
 -6 460 l 1
 138 460 l 1
 286 94 l 1
 222 96 l 1
 367 460 l 1
 503 460 l 1
400 692 m 1
 220 542 l 1
 147 580 l 1
 297 740 l 1
 400 692 l 1
EndSplineSet
EndChar

StartChar: thorn
Encoding: 254 254 243
Width: 602
VWidth: 0
Flags: HMW
LayerCount: 2
Fore
SplineSet
191 -220 m 1
 61 -220 l 1
 61 780 l 1
 191 780 l 1
 191 -220 l 1
570 230 m 0
 570 77 464 -10 348 -10 c 0
 233 -10 151 81 151 230 c 0
 151 379 233 470 348 470 c 0
 464 470 570 383 570 230 c 0
435 230 m 0
 435 312 378 363 310 363 c 0
 253 363 191 314 191 230 c 0
 191 146 253 97 310 97 c 0
 378 97 435 148 435 230 c 0
EndSplineSet
EndChar

StartChar: ydieresis
Encoding: 255 255 244
Width: 496
VWidth: 0
Flags: HMW
LayerCount: 2
Fore
SplineSet
503 460 m 1
 203 -220 l 1
 69 -220 l 1
 186 46 l 1
 -6 460 l 1
 138 460 l 1
 286 94 l 1
 222 96 l 1
 367 460 l 1
 503 460 l 1
285 604 m 0
 285 647 320 678 363 678 c 0
 406 678 441 647 441 604 c 0
 441 561 406 530 363 530 c 0
 320 530 285 561 285 604 c 0
55 604 m 0
 55 647 90 678 133 678 c 0
 176 678 211 647 211 604 c 0
 211 561 176 530 133 530 c 0
 90 530 55 561 55 604 c 0
EndSplineSet
EndChar

StartChar: Amacron
Encoding: 256 256 245
Width: 711
VWidth: 0
Flags: HMW
LayerCount: 2
Fore
SplineSet
173 158 m 1
 190 272 l 1
 526 272 l 1
 543 158 l 1
 173 158 l 1
356 473 m 1
 252 232 l 1
 255 200 l 1
 163 0 l 1
 1 0 l 1
 356 741 l 1
 711 0 l 1
 549 0 l 1
 459 193 l 1
 461 229 l 1
 356 473 l 1
174 801 m 1
 174 915 l 1
 538 915 l 1
 538 801 l 1
 174 801 l 1
EndSplineSet
EndChar

StartChar: amacron
Encoding: 257 257 246
Width: 526
VWidth: 0
Flags: HMW
LayerCount: 2
Fore
SplineSet
156 137 m 0
 156 99 185 80 232 80 c 0
 295 80 345 107 345 184 c 1
 361 130 l 1
 361 41 285 -10 190 -10 c 0
 91 -10 26 41 26 127 c 0
 26 225 109 281 224 281 c 0
 299 281 360 248 378 228 c 1
 378 165 l 1
 340 193 303 206 249 206 c 0
 188 206 156 179 156 137 c 0
115 329 m 1
 68 418 l 1
 115 443 184 472 267 472 c 0
 385 472 470 419 470 326 c 2
 470 0 l 1
 345 0 l 1
 345 305 l 2
 345 346 309 371 259 371 c 0
 193 371 137 343 115 329 c 1
85 544 m 1
 85 657 l 1
 450 657 l 1
 450 544 l 1
 85 544 l 1
EndSplineSet
Substitution2: "alt a" amacron.alt
EndChar

StartChar: breve
Encoding: 728 728 247
Width: 546
VWidth: 0
Flags: HMW
LayerCount: 2
Fore
SplineSet
111 850 m 1
 201 850 l 1
 201 818 225 786 273 786 c 0
 321 786 345 818 345 850 c 1
 435 850 l 1
 435 772 378 706 273 706 c 0
 168 706 111 772 111 850 c 1
EndSplineSet
EndChar

StartChar: Abreve
Encoding: 258 258 248
Width: 711
VWidth: 0
Flags: HMW
LayerCount: 2
Fore
SplineSet
173 158 m 1
 190 272 l 1
 526 272 l 1
 543 158 l 1
 173 158 l 1
356 473 m 1
 252 232 l 1
 255 200 l 1
 163 0 l 1
 1 0 l 1
 356 741 l 1
 711 0 l 1
 549 0 l 1
 459 193 l 1
 461 229 l 1
 356 473 l 1
194 946 m 1
 284 946 l 1
 284 914 308 882 356 882 c 0
 404 882 428 914 428 946 c 1
 518 946 l 1
 518 868 461 801 356 801 c 0
 251 801 194 868 194 946 c 1
EndSplineSet
EndChar

StartChar: abreve
Encoding: 259 259 249
Width: 526
VWidth: 0
Flags: HMW
LayerCount: 2
Fore
SplineSet
156 137 m 0
 156 99 185 80 232 80 c 0
 295 80 345 107 345 184 c 1
 361 130 l 1
 361 41 285 -10 190 -10 c 0
 91 -10 26 41 26 127 c 0
 26 225 109 281 224 281 c 0
 299 281 360 248 378 228 c 1
 378 165 l 1
 340 193 303 206 249 206 c 0
 188 206 156 179 156 137 c 0
115 329 m 1
 68 418 l 1
 115 443 184 472 267 472 c 0
 385 472 470 419 470 326 c 2
 470 0 l 1
 345 0 l 1
 345 305 l 2
 345 346 309 371 259 371 c 0
 193 371 137 343 115 329 c 1
105 676 m 1
 196 676 l 1
 196 644 219 612 267 612 c 0
 315 612 339 644 339 676 c 1
 430 676 l 1
 430 598 372 532 267 532 c 0
 162 532 105 598 105 676 c 1
EndSplineSet
Substitution2: "alt a" abreve.alt
EndChar

StartChar: Aogonek
Encoding: 260 260 250
Width: 711
VWidth: 0
Flags: HMW
LayerCount: 2
Fore
SplineSet
173 158 m 1
 190 272 l 1
 526 272 l 1
 543 158 l 1
 173 158 l 1
356 473 m 1
 252 232 l 1
 255 200 l 1
 163 0 l 1
 1 0 l 1
 356 741 l 1
 711 0 l 1
 549 0 l 1
 459 193 l 1
 461 229 l 1
 356 473 l 1
682 -117 m 1
 715 -180 l 1
 700 -200 670 -220 618 -220 c 0
 547 -220 499 -183 499 -120 c 0
 499 -57 566 -11 636 25 c 1
 677 0 l 1
 625 -26 592 -63 592 -96 c 0
 592 -124 606 -137 632 -137 c 0
 654 -137 668 -130 682 -117 c 1
EndSplineSet
EndChar

StartChar: aogonek
Encoding: 261 261 251
Width: 526
VWidth: 0
Flags: HMW
LayerCount: 2
Fore
SplineSet
156 137 m 0
 156 99 191 80 232 80 c 0
 295 80 345 107 345 184 c 1
 361 130 l 1
 361 41 285 -10 190 -10 c 0
 95 -10 26 39 26 131 c 0
 26 224 103 281 224 281 c 0
 299 281 360 248 378 228 c 1
 378 165 l 1
 340 193 303 206 249 206 c 0
 188 206 156 179 156 137 c 0
115 329 m 1
 68 418 l 1
 115 443 184 472 267 472 c 0
 385 472 470 419 470 326 c 2
 470 0 l 1
 345 0 l 1
 345 305 l 2
 345 346 309 371 259 371 c 0
 193 371 137 343 115 329 c 1
454 -117 m 1
 487 -180 l 1
 472 -200 442 -220 390 -220 c 0
 319 -220 271 -183 271 -120 c 0
 271 -57 338 -11 408 25 c 1
 449 0 l 1
 397 -26 364 -63 364 -96 c 0
 364 -124 378 -137 404 -137 c 0
 426 -137 440 -130 454 -117 c 1
EndSplineSet
Substitution2: "alt a" aogonek.alt
EndChar

StartChar: Cacute
Encoding: 262 262 252
Width: 695
VWidth: 0
Flags: HMW
LayerCount: 2
Fore
SplineSet
191 350 m 0
 191 211 295 123 416 123 c 0
 515 123 583 167 630 220 c 1
 630 58 l 1
 573 12 511 -14 409 -14 c 0
 193 -14 36 135 36 350 c 0
 36 565 193 714 409 714 c 0
 511 714 573 688 630 642 c 1
 630 480 l 1
 583 533 515 577 416 577 c 0
 295 577 191 489 191 350 c 0
539 924 m 1
 359 774 l 1
 286 813 l 1
 436 973 l 1
 539 924 l 1
EndSplineSet
EndChar

StartChar: cacute
Encoding: 263 263 253
Width: 488
VWidth: 0
Flags: HMW
LayerCount: 2
Fore
SplineSet
163 230 m 0
 163 149 221 97 296 97 c 0
 357 97 414 126 439 170 c 1
 439 37 l 1
 407 8 354 -10 287 -10 c 0
 139 -10 30 87 30 230 c 0
 30 373 139 470 287 470 c 0
 354 470 407 451 439 424 c 1
 439 291 l 1
 414 335 353 363 296 363 c 0
 221 363 163 307 163 230 c 0
417 680 m 1
 237 530 l 1
 164 569 l 1
 314 729 l 1
 417 680 l 1
EndSplineSet
EndChar

StartChar: Ccircumflex
Encoding: 264 264 254
Width: 695
VWidth: 0
Flags: HMW
LayerCount: 2
Fore
SplineSet
191 350 m 0
 191 211 295 123 416 123 c 0
 515 123 583 167 630 220 c 1
 630 58 l 1
 573 12 511 -14 409 -14 c 0
 193 -14 36 135 36 350 c 0
 36 565 193 714 409 714 c 0
 511 714 573 688 630 642 c 1
 630 480 l 1
 583 533 515 577 416 577 c 0
 295 577 191 489 191 350 c 0
409 863 m 1
 312 774 l 1
 224 836 l 1
 409 976 l 1
 595 836 l 1
 506 774 l 1
 409 863 l 1
EndSplineSet
EndChar

StartChar: ccircumflex
Encoding: 265 265 255
Width: 488
VWidth: 0
Flags: HMW
LayerCount: 2
Fore
SplineSet
163 230 m 0
 163 149 221 97 296 97 c 0
 357 97 414 126 439 170 c 1
 439 37 l 1
 407 8 354 -10 287 -10 c 0
 139 -10 30 87 30 230 c 0
 30 373 139 470 287 470 c 0
 354 470 407 451 439 424 c 1
 439 291 l 1
 414 335 353 363 296 363 c 0
 221 363 163 307 163 230 c 0
266 619 m 1
 169 530 l 1
 80 592 l 1
 266 732 l 1
 452 592 l 1
 363 530 l 1
 266 619 l 1
EndSplineSet
EndChar

StartChar: Cdotaccent
Encoding: 266 266 256
Width: 695
VWidth: 0
Flags: HMW
LayerCount: 2
Fore
SplineSet
191 350 m 0
 191 211 295 123 416 123 c 0
 515 123 583 167 630 220 c 1
 630 58 l 1
 573 12 511 -14 409 -14 c 0
 193 -14 36 135 36 350 c 0
 36 565 193 714 409 714 c 0
 511 714 573 688 630 642 c 1
 630 480 l 1
 583 533 515 577 416 577 c 0
 295 577 191 489 191 350 c 0
314 848 m 0
 314 891 349 922 392 922 c 0
 435 922 470 891 470 848 c 0
 470 805 435 774 392 774 c 0
 349 774 314 805 314 848 c 0
EndSplineSet
EndChar

StartChar: cdotaccent
Encoding: 267 267 257
Width: 488
VWidth: 0
Flags: HMW
LayerCount: 2
Fore
SplineSet
163 230 m 0
 163 149 221 97 296 97 c 0
 357 97 414 126 439 170 c 1
 439 37 l 1
 407 8 354 -10 287 -10 c 0
 139 -10 30 87 30 230 c 0
 30 373 139 470 287 470 c 0
 354 470 407 451 439 424 c 1
 439 291 l 1
 414 335 353 363 296 363 c 0
 221 363 163 307 163 230 c 0
192 608 m 0
 192 651 227 682 270 682 c 0
 313 682 348 651 348 608 c 0
 348 565 313 535 270 535 c 0
 227 535 192 565 192 608 c 0
EndSplineSet
EndChar

StartChar: Ccaron
Encoding: 268 268 258
Width: 695
VWidth: 0
Flags: HMW
LayerCount: 2
Fore
SplineSet
191 350 m 0
 191 211 295 123 416 123 c 0
 515 123 583 167 630 220 c 1
 630 58 l 1
 573 12 511 -14 409 -14 c 0
 193 -14 36 135 36 350 c 0
 36 565 193 714 409 714 c 0
 511 714 573 688 630 642 c 1
 630 480 l 1
 583 533 515 577 416 577 c 0
 295 577 191 489 191 350 c 0
409 887 m 1
 506 976 l 1
 595 914 l 1
 409 774 l 1
 224 914 l 1
 312 976 l 1
 409 887 l 1
EndSplineSet
EndChar

StartChar: ccaron
Encoding: 269 269 259
Width: 488
VWidth: 0
Flags: HMW
LayerCount: 2
Fore
SplineSet
163 230 m 0
 163 149 221 97 296 97 c 0
 357 97 414 126 439 170 c 1
 439 37 l 1
 407 8 354 -10 287 -10 c 0
 139 -10 30 87 30 230 c 0
 30 373 139 470 287 470 c 0
 354 470 407 451 439 424 c 1
 439 291 l 1
 414 335 353 363 296 363 c 0
 221 363 163 307 163 230 c 0
266 644 m 1
 363 732 l 1
 452 670 l 1
 266 530 l 1
 80 670 l 1
 169 732 l 1
 266 644 l 1
EndSplineSet
EndChar

StartChar: Dcaron
Encoding: 270 270 260
Width: 716
VWidth: 0
Flags: HMW
LayerCount: 2
Fore
SplineSet
76 700 m 1
 223 700 l 1
 223 0 l 1
 76 0 l 1
 76 700 l 1
314 0 m 2
 168 0 l 1
 168 130 l 1
 309 130 l 2
 432 130 533 196 533 350 c 0
 533 504 432 570 309 570 c 2
 168 570 l 1
 168 700 l 1
 314 700 l 2
 535 700 681 563 681 350 c 0
 681 137 535 0 314 0 c 2
361 887 m 1
 458 976 l 1
 547 914 l 1
 361 774 l 1
 175 914 l 1
 264 976 l 1
 361 887 l 1
EndSplineSet
EndChar

StartChar: dcaron
Encoding: 271 271 261
Width: 602
VWidth: 0
Flags: HMW
LayerCount: 2
Fore
SplineSet
411 780 m 1
 541 780 l 1
 541 0 l 1
 411 0 l 1
 411 780 l 1
33 230 m 0
 33 383 138 470 254 470 c 0
 369 470 452 379 452 230 c 0
 452 81 369 -10 254 -10 c 0
 138 -10 33 77 33 230 c 0
168 230 m 0
 168 148 224 97 292 97 c 0
 349 97 411 146 411 230 c 0
 411 314 349 363 292 363 c 0
 224 363 168 312 168 230 c 0
659 780 m 1
 789 748 l 1
 668 498 l 1
 571 521 l 1
 659 780 l 1
EndSplineSet
EndChar

StartChar: Dcroat
Encoding: 272 272 262
Width: 716
VWidth: 0
Flags: HMW
LayerCount: 2
Fore
SplineSet
5 301 m 1
 5 394 l 1
 335 394 l 1
 335 301 l 1
 5 301 l 1
76 700 m 1
 223 700 l 1
 223 0 l 1
 76 0 l 1
 76 700 l 1
314 0 m 2
 168 0 l 1
 168 130 l 1
 309 130 l 2
 432 130 533 196 533 350 c 0
 533 504 432 570 309 570 c 2
 168 570 l 1
 168 700 l 1
 314 700 l 2
 535 700 681 563 681 350 c 0
 681 137 535 0 314 0 c 2
EndSplineSet
EndChar

StartChar: dcroat
Encoding: 273 273 263
Width: 602
VWidth: 0
Flags: HMW
LayerCount: 2
Fore
SplineSet
295 573 m 1
 295 665 l 1
 634 665 l 1
 634 573 l 1
 295 573 l 1
411 780 m 1
 541 780 l 1
 541 0 l 1
 411 0 l 1
 411 780 l 1
33 230 m 0
 33 383 138 470 254 470 c 0
 369 470 452 379 452 230 c 0
 452 81 369 -10 254 -10 c 0
 138 -10 33 77 33 230 c 0
168 230 m 0
 168 148 224 97 292 97 c 0
 349 97 411 146 411 230 c 0
 411 314 349 363 292 363 c 0
 224 363 168 312 168 230 c 0
EndSplineSet
EndChar

StartChar: Emacron
Encoding: 274 274 264
Width: 586
VWidth: 0
Flags: HMW
LayerCount: 2
Fore
SplineSet
168 0 m 1
 168 121 l 1
 521 121 l 1
 521 0 l 1
 168 0 l 1
168 579 m 1
 168 700 l 1
 521 700 l 1
 521 579 l 1
 168 579 l 1
168 312 m 1
 168 431 l 1
 501 431 l 1
 501 312 l 1
 168 312 l 1
76 700 m 1
 215 700 l 1
 215 0 l 1
 76 0 l 1
 76 700 l 1
116 774 m 1
 116 888 l 1
 481 888 l 1
 481 774 l 1
 116 774 l 1
EndSplineSet
EndChar

StartChar: emacron
Encoding: 275 275 265
Width: 555
VWidth: 0
Flags: HMW
LayerCount: 2
Fore
SplineSet
108 201 m 1
 108 281 l 1
 382 281 l 1
 375 341 342 378 280 378 c 0
 213 378 166 333 166 256 c 1
 164 230 l 1
 164 133 214 89 282 89 c 0
 340 89 381 114 406 155 c 1
 520 120 l 1
 474 41 409 -10 281 -10 c 0
 126 -10 33 91 33 230 c 0
 33 247 34 263 37 279 c 0
 56 392 141 470 282 470 c 0
 434 470 521 381 521 236 c 0
 521 228 521 215 520 201 c 1
 108 201 l 1
100 530 m 1
 100 644 l 1
 465 644 l 1
 465 530 l 1
 100 530 l 1
EndSplineSet
EndChar

StartChar: Ebreve
Encoding: 276 276 266
Width: 586
VWidth: 0
Flags: HMW
LayerCount: 2
Fore
SplineSet
168 0 m 1
 168 121 l 1
 521 121 l 1
 521 0 l 1
 168 0 l 1
168 579 m 1
 168 700 l 1
 521 700 l 1
 521 579 l 1
 168 579 l 1
168 312 m 1
 168 431 l 1
 501 431 l 1
 501 312 l 1
 168 312 l 1
76 700 m 1
 215 700 l 1
 215 0 l 1
 76 0 l 1
 76 700 l 1
136 919 m 1
 226 919 l 1
 226 887 250 854 298 854 c 0
 346 854 370 887 370 919 c 1
 461 919 l 1
 461 841 403 774 298 774 c 0
 193 774 136 841 136 919 c 1
EndSplineSet
EndChar

StartChar: ebreve
Encoding: 277 277 267
Width: 555
VWidth: 0
Flags: HMW
LayerCount: 2
Fore
SplineSet
108 201 m 1
 108 281 l 1
 382 281 l 1
 375 341 342 378 280 378 c 0
 213 378 166 333 166 256 c 1
 164 230 l 1
 164 133 214 89 282 89 c 0
 340 89 381 114 406 155 c 1
 520 120 l 1
 474 41 409 -10 281 -10 c 0
 126 -10 33 91 33 230 c 0
 33 247 34 263 37 279 c 0
 56 392 141 470 282 470 c 0
 434 470 521 381 521 236 c 0
 521 228 521 215 520 201 c 1
 108 201 l 1
120 675 m 1
 211 675 l 1
 211 643 234 611 282 611 c 0
 330 611 354 643 354 675 c 1
 445 675 l 1
 445 597 387 530 282 530 c 0
 177 530 120 597 120 675 c 1
EndSplineSet
EndChar

StartChar: Edotaccent
Encoding: 278 278 268
Width: 586
VWidth: 0
Flags: HMW
LayerCount: 2
Fore
SplineSet
168 0 m 1
 168 121 l 1
 521 121 l 1
 521 0 l 1
 168 0 l 1
168 579 m 1
 168 700 l 1
 521 700 l 1
 521 579 l 1
 168 579 l 1
168 312 m 1
 168 431 l 1
 501 431 l 1
 501 312 l 1
 168 312 l 1
76 700 m 1
 215 700 l 1
 215 0 l 1
 76 0 l 1
 76 700 l 1
220 848 m 0
 220 891 255 922 298 922 c 0
 341 922 376 891 376 848 c 0
 376 805 341 774 298 774 c 0
 255 774 220 805 220 848 c 0
EndSplineSet
EndChar

StartChar: edotaccent
Encoding: 279 279 269
Width: 555
VWidth: 0
Flags: HMW
LayerCount: 2
Fore
SplineSet
108 201 m 1
 108 281 l 1
 382 281 l 1
 375 341 342 378 280 378 c 0
 213 378 166 333 166 256 c 1
 164 230 l 1
 164 133 214 89 282 89 c 0
 340 89 381 114 406 155 c 1
 520 120 l 1
 474 41 409 -10 281 -10 c 0
 126 -10 33 91 33 230 c 0
 33 247 34 263 37 279 c 0
 56 392 141 470 282 470 c 0
 434 470 521 381 521 236 c 0
 521 228 521 215 520 201 c 1
 108 201 l 1
205 604 m 0
 205 647 239 678 282 678 c 0
 325 678 360 647 360 604 c 0
 360 561 325 530 282 530 c 0
 239 530 205 561 205 604 c 0
EndSplineSet
EndChar

StartChar: Eogonek
Encoding: 280 280 270
Width: 586
VWidth: 0
Flags: HMW
LayerCount: 2
Fore
SplineSet
168 0 m 1
 168 121 l 1
 521 121 l 1
 521 0 l 1
 168 0 l 1
168 579 m 1
 168 700 l 1
 521 700 l 1
 521 579 l 1
 168 579 l 1
168 312 m 1
 168 431 l 1
 501 431 l 1
 501 312 l 1
 168 312 l 1
76 700 m 1
 215 700 l 1
 215 0 l 1
 76 0 l 1
 76 700 l 1
389 -117 m 1
 422 -180 l 1
 407 -200 377 -220 325 -220 c 0
 254 -220 206 -183 206 -120 c 0
 206 -57 273 -11 343 25 c 1
 384 0 l 1
 332 -26 299 -63 299 -96 c 0
 299 -124 313 -137 339 -137 c 0
 361 -137 375 -130 389 -117 c 1
EndSplineSet
EndChar

StartChar: eogonek
Encoding: 281 281 271
Width: 555
VWidth: 0
Flags: HMW
LayerCount: 2
Fore
SplineSet
108 201 m 1
 108 281 l 1
 382 281 l 1
 375 341 342 378 280 378 c 0
 213 378 166 333 166 256 c 1
 164 230 l 1
 164 133 214 89 282 89 c 0
 340 89 381 114 406 155 c 1
 520 120 l 1
 474 41 409 -10 281 -10 c 0
 126 -10 33 91 33 230 c 0
 33 247 34 263 37 279 c 0
 56 392 141 470 282 470 c 0
 434 470 521 381 521 236 c 0
 521 228 521 215 520 201 c 1
 108 201 l 1
318 -112 m 1
 351 -175 l 1
 336 -195 307 -215 255 -215 c 0
 184 -215 136 -178 136 -115 c 0
 136 -52 202 -6 272 30 c 1
 313 5 l 1
 261 -21 229 -58 229 -91 c 0
 229 -119 242 -132 268 -132 c 0
 290 -132 304 -125 318 -112 c 1
EndSplineSet
EndChar

StartChar: Ecaron
Encoding: 282 282 272
Width: 586
VWidth: 0
Flags: HMW
LayerCount: 2
Fore
SplineSet
168 0 m 1
 168 121 l 1
 521 121 l 1
 521 0 l 1
 168 0 l 1
168 579 m 1
 168 700 l 1
 521 700 l 1
 521 579 l 1
 168 579 l 1
168 312 m 1
 168 431 l 1
 501 431 l 1
 501 312 l 1
 168 312 l 1
76 700 m 1
 215 700 l 1
 215 0 l 1
 76 0 l 1
 76 700 l 1
298 887 m 1
 395 976 l 1
 484 914 l 1
 298 774 l 1
 112 914 l 1
 201 976 l 1
 298 887 l 1
EndSplineSet
EndChar

StartChar: ecaron
Encoding: 283 283 273
Width: 555
VWidth: 0
Flags: HMW
LayerCount: 2
Fore
SplineSet
108 201 m 1
 108 281 l 1
 382 281 l 1
 375 341 342 378 280 378 c 0
 213 378 166 333 166 256 c 1
 164 230 l 1
 164 133 214 89 282 89 c 0
 340 89 381 114 406 155 c 1
 520 120 l 1
 474 41 409 -10 281 -10 c 0
 126 -10 33 91 33 230 c 0
 33 247 34 263 37 279 c 0
 56 392 141 470 282 470 c 0
 434 470 521 381 521 236 c 0
 521 228 521 215 520 201 c 1
 108 201 l 1
282 644 m 1
 379 732 l 1
 468 670 l 1
 282 530 l 1
 97 670 l 1
 185 732 l 1
 282 644 l 1
EndSplineSet
EndChar

StartChar: Gcircumflex
Encoding: 284 284 274
Width: 802
VWidth: 0
Flags: HMW
LayerCount: 2
Fore
SplineSet
416 260 m 1
 416 374 l 1
 761 374 l 1
 770 161 641 -19 410 -19 c 0
 193 -19 36 132 36 350 c 0
 36 568 197 714 414 714 c 0
 556 714 659 651 723 554 c 1
 600 483 l 1
 565 544 504 586 414 586 c 0
 288 586 186 496 186 350 c 0
 186 204 283 110 414 110 c 0
 528 110 593 176 616 260 c 1
 416 260 l 1
414 863 m 1
 317 774 l 1
 229 836 l 1
 414 976 l 1
 600 836 l 1
 511 774 l 1
 414 863 l 1
EndSplineSet
EndChar

StartChar: gcircumflex
Encoding: 285 285 275
Width: 598
VWidth: 0
Flags: HMW
LayerCount: 2
Fore
SplineSet
42 -32 m 1
 169 -32 l 1
 172 -92 219 -129 287 -129 c 0
 353 -129 411 -84 411 10 c 2
 411 460 l 1
 537 460 l 1
 537 10 l 2
 537 -162 423 -236 291 -236 c 0
 130 -236 50 -153 42 -32 c 1
33 234 m 0
 33 387 138 470 254 470 c 0
 369 470 452 383 452 234 c 0
 452 85 369 -1 254 -1 c 0
 138 -1 33 81 33 234 c 0
168 234 m 0
 168 152 224 106 292 106 c 0
 349 106 411 150 411 234 c 0
 411 318 349 363 292 363 c 0
 224 363 168 316 168 234 c 0
302 619 m 1
 205 530 l 1
 116 592 l 1
 302 732 l 1
 488 592 l 1
 399 530 l 1
 302 619 l 1
EndSplineSet
EndChar

StartChar: Gbreve
Encoding: 286 286 276
Width: 802
VWidth: 0
Flags: HMW
LayerCount: 2
Fore
SplineSet
416 260 m 1
 416 374 l 1
 761 374 l 1
 770 161 641 -19 410 -19 c 0
 193 -19 36 132 36 350 c 0
 36 568 197 714 414 714 c 0
 556 714 659 651 723 554 c 1
 600 483 l 1
 565 544 504 586 414 586 c 0
 288 586 186 496 186 350 c 0
 186 204 283 110 414 110 c 0
 528 110 593 176 616 260 c 1
 416 260 l 1
252 919 m 1
 343 919 l 1
 343 887 366 854 414 854 c 0
 462 854 486 887 486 919 c 1
 577 919 l 1
 577 841 519 774 414 774 c 0
 309 774 252 841 252 919 c 1
EndSplineSet
EndChar

StartChar: gbreve
Encoding: 287 287 277
Width: 598
VWidth: 0
Flags: HMW
LayerCount: 2
Fore
SplineSet
42 -32 m 1
 169 -32 l 1
 172 -92 219 -129 287 -129 c 0
 353 -129 411 -84 411 10 c 2
 411 460 l 1
 537 460 l 1
 537 10 l 2
 537 -162 423 -236 291 -236 c 0
 130 -236 50 -153 42 -32 c 1
33 234 m 0
 33 387 138 470 254 470 c 0
 369 470 452 383 452 234 c 0
 452 85 369 -1 254 -1 c 0
 138 -1 33 81 33 234 c 0
168 234 m 0
 168 152 224 106 292 106 c 0
 349 106 411 150 411 234 c 0
 411 318 349 363 292 363 c 0
 224 363 168 316 168 234 c 0
140 675 m 1
 230 675 l 1
 230 643 254 611 302 611 c 0
 350 611 374 643 374 675 c 1
 464 675 l 1
 464 597 407 530 302 530 c 0
 197 530 140 597 140 675 c 1
EndSplineSet
EndChar

StartChar: Gdotaccent
Encoding: 288 288 278
Width: 802
VWidth: 0
Flags: HMW
LayerCount: 2
Fore
SplineSet
416 260 m 1
 416 374 l 1
 761 374 l 1
 770 161 641 -19 410 -19 c 0
 193 -19 36 132 36 350 c 0
 36 568 197 714 414 714 c 0
 556 714 659 651 723 554 c 1
 600 483 l 1
 565 544 504 586 414 586 c 0
 288 586 186 496 186 350 c 0
 186 204 283 110 414 110 c 0
 528 110 593 176 616 260 c 1
 416 260 l 1
337 848 m 0
 337 891 371 922 414 922 c 0
 457 922 492 891 492 848 c 0
 492 805 457 774 414 774 c 0
 371 774 337 805 337 848 c 0
EndSplineSet
EndChar

StartChar: gdotaccent
Encoding: 289 289 279
Width: 598
VWidth: 0
Flags: HMW
LayerCount: 2
Fore
SplineSet
42 -32 m 1
 169 -32 l 1
 172 -92 219 -129 287 -129 c 0
 353 -129 411 -84 411 10 c 2
 411 460 l 1
 537 460 l 1
 537 10 l 2
 537 -162 423 -236 291 -236 c 0
 130 -236 50 -153 42 -32 c 1
33 234 m 0
 33 387 138 470 254 470 c 0
 369 470 452 383 452 234 c 0
 452 85 369 -1 254 -1 c 0
 138 -1 33 81 33 234 c 0
168 234 m 0
 168 152 224 106 292 106 c 0
 349 106 411 150 411 234 c 0
 411 318 349 363 292 363 c 0
 224 363 168 316 168 234 c 0
222 627 m 0
 222 670 257 700 300 700 c 0
 343 700 378 670 378 627 c 0
 378 584 343 553 300 553 c 0
 257 553 222 584 222 627 c 0
EndSplineSet
EndChar

StartChar: uni0122
Encoding: 290 290 280
Width: 802
VWidth: 0
Flags: HMW
LayerCount: 2
Fore
SplineSet
416 260 m 1
 416 374 l 1
 761 374 l 1
 770 161 641 -19 410 -19 c 0
 193 -19 36 132 36 350 c 0
 36 568 197 714 414 714 c 0
 556 714 659 651 723 554 c 1
 600 483 l 1
 565 544 504 586 414 586 c 0
 288 586 186 496 186 350 c 0
 186 204 283 110 414 110 c 0
 528 110 593 176 616 260 c 1
 416 260 l 1
368 -79 m 1
 497 -110 l 1
 377 -360 l 1
 280 -338 l 1
 368 -79 l 1
EndSplineSet
EndChar

StartChar: Hcircumflex
Encoding: 292 292 281
Width: 764
VWidth: 0
Flags: HMW
LayerCount: 2
Fore
SplineSet
123 308 m 1
 123 437 l 1
 637 437 l 1
 637 308 l 1
 123 308 l 1
546 700 m 1
 689 700 l 1
 689 0 l 1
 546 0 l 1
 546 700 l 1
76 700 m 1
 219 700 l 1
 219 0 l 1
 76 0 l 1
 76 700 l 1
383 863 m 1
 286 774 l 1
 197 836 l 1
 383 976 l 1
 569 836 l 1
 480 774 l 1
 383 863 l 1
EndSplineSet
EndChar

StartChar: hcircumflex
Encoding: 293 293 282
Width: 555
VWidth: 0
Flags: HMW
LayerCount: 2
Fore
SplineSet
194 780 m 1
 194 0 l 1
 64 0 l 1
 64 780 l 1
 194 780 l 1
361 280 m 2
 361 341 339 374 285 374 c 0
 230 374 194 337 194 280 c 1
 162 280 l 1
 162 389 225 475 333 475 c 0
 441 475 491 414 491 299 c 2
 491 0 l 1
 361 0 l 1
 361 280 l 2
133 929 m 1
 36 840 l 1
 -53 902 l 1
 133 1042 l 1
 319 902 l 1
 230 840 l 1
 133 929 l 1
EndSplineSet
EndChar

StartChar: Itilde
Encoding: 296 296 283
Width: 296
VWidth: 0
Flags: HMW
LayerCount: 2
Fore
SplineSet
76 700 m 1
 221 700 l 1
 221 0 l 1
 76 0 l 1
 76 700 l 1
-38 831 m 1
 -28 880 19 922 77 922 c 0
 143 922 153 871 209 871 c 0
 232 871 252 891 272 923 c 1
 336 858 l 1
 320 821 269 777 210 777 c 0
 155 777 124 828 76 828 c 0
 37 828 28 792 28 777 c 1
 -38 831 l 1
EndSplineSet
EndChar

StartChar: itilde
Encoding: 297 297 284
Width: 271
VWidth: 0
Flags: HMW
LayerCount: 2
Fore
SplineSet
72 460 m 1
 199 460 l 1
 199 0 l 1
 72 0 l 1
 72 460 l 1
-51 587 m 1
 -41 636 5 678 63 678 c 0
 129 678 140 628 196 628 c 0
 219 628 239 647 259 679 c 1
 322 614 l 1
 306 577 255 533 196 533 c 0
 141 533 111 584 63 584 c 0
 24 584 15 548 15 533 c 1
 -51 587 l 1
EndSplineSet
EndChar

StartChar: Imacron
Encoding: 298 298 285
Width: 296
VWidth: 0
Flags: HMW
LayerCount: 2
Fore
SplineSet
76 700 m 1
 221 700 l 1
 221 0 l 1
 76 0 l 1
 76 700 l 1
-34 774 m 1
 -34 888 l 1
 331 888 l 1
 331 774 l 1
 -34 774 l 1
EndSplineSet
EndChar

StartChar: imacron
Encoding: 299 299 286
Width: 271
VWidth: 0
Flags: HMW
LayerCount: 2
Fore
SplineSet
72 460 m 1
 199 460 l 1
 199 0 l 1
 72 0 l 1
 72 460 l 1
-47 530 m 1
 -47 644 l 1
 318 644 l 1
 318 530 l 1
 -47 530 l 1
EndSplineSet
EndChar

StartChar: Ibreve
Encoding: 300 300 287
Width: 296
VWidth: 0
Flags: HMW
LayerCount: 2
Fore
SplineSet
76 700 m 1
 221 700 l 1
 221 0 l 1
 76 0 l 1
 76 700 l 1
-14 919 m 1
 77 919 l 1
 77 887 101 854 149 854 c 0
 197 854 220 887 220 919 c 1
 311 919 l 1
 311 841 254 774 149 774 c 0
 44 774 -14 841 -14 919 c 1
EndSplineSet
EndChar

StartChar: ibreve
Encoding: 301 301 288
Width: 271
VWidth: 0
Flags: HMW
LayerCount: 2
Fore
SplineSet
72 460 m 1
 199 460 l 1
 199 0 l 1
 72 0 l 1
 72 460 l 1
-27 675 m 1
 63 675 l 1
 63 643 87 611 135 611 c 0
 183 611 207 643 207 675 c 1
 298 675 l 1
 298 597 240 530 135 530 c 0
 30 530 -27 597 -27 675 c 1
EndSplineSet
EndChar

StartChar: Iogonek
Encoding: 302 302 289
Width: 296
VWidth: 0
Flags: HMW
LayerCount: 2
Fore
SplineSet
76 700 m 1
 221 700 l 1
 221 0 l 1
 76 0 l 1
 76 700 l 1
208 -116 m 1
 242 -179 l 1
 227 -199 197 -219 145 -219 c 0
 74 -219 26 -182 26 -119 c 0
 26 -56 92 -10 162 26 c 1
 204 1 l 1
 152 -25 119 -61 119 -94 c 0
 119 -122 132 -136 158 -136 c 0
 180 -136 194 -129 208 -116 c 1
EndSplineSet
EndChar

StartChar: iogonek
Encoding: 303 303 290
Width: 271
VWidth: 0
Flags: HMW
LayerCount: 2
Fore
SplineSet
58 638 m 0
 58 681 93 711 136 711 c 0
 179 711 214 681 214 638 c 0
 214 595 179 564 136 564 c 0
 93 564 58 595 58 638 c 0
72 460 m 1
 199 460 l 1
 199 0 l 1
 72 0 l 1
 72 460 l 1
186 -117 m 1
 219 -180 l 1
 204 -200 175 -220 123 -220 c 0
 52 -220 4 -183 4 -120 c 0
 4 -57 70 -11 140 25 c 1
 181 0 l 1
 129 -26 97 -63 97 -96 c 0
 97 -124 110 -137 136 -137 c 0
 158 -137 172 -130 186 -117 c 1
EndSplineSet
EndChar

StartChar: Idotaccent
Encoding: 304 304 291
Width: 296
VWidth: 0
Flags: HMW
LayerCount: 2
Fore
SplineSet
76 700 m 1
 221 700 l 1
 221 0 l 1
 76 0 l 1
 76 700 l 1
70 848 m 0
 70 891 105 922 148 922 c 0
 191 922 226 891 226 848 c 0
 226 805 191 774 148 774 c 0
 105 774 70 805 70 848 c 0
EndSplineSet
EndChar

StartChar: uni0136
Encoding: 310 310 292
Width: 658
VWidth: 0
Flags: HMW
LayerCount: 2
Fore
SplineSet
76 700 m 1
 223 700 l 1
 223 0 l 1
 76 0 l 1
 76 700 l 1
472 700 m 1
 643 700 l 1
 353 372 l 1
 658 0 l 1
 483 0 l 1
 181 368 l 1
 472 700 l 1
328 -60 m 1
 459 -92 l 1
 337 -342 l 1
 240 -319 l 1
 328 -60 l 1
EndSplineSet
EndChar

StartChar: uni0137
Encoding: 311 311 293
Width: 535
VWidth: 0
Flags: HMW
LayerCount: 2
Fore
SplineSet
61 780 m 1
 187 780 l 1
 187 0 l 1
 61 0 l 1
 61 780 l 1
355 460 m 1
 511 460 l 1
 313 270 l 1
 531 0 l 1
 377 0 l 1
 157 270 l 1
 355 460 l 1
258 -60 m 1
 388 -92 l 1
 267 -342 l 1
 170 -319 l 1
 258 -60 l 1
EndSplineSet
EndChar

StartChar: Lacute
Encoding: 313 313 294
Width: 504
VWidth: 0
Flags: HMW
LayerCount: 2
Fore
SplineSet
76 700 m 1
 219 700 l 1
 219 125 l 1
 498 125 l 1
 498 0 l 1
 76 0 l 1
 76 700 l 1
439 924 m 1
 259 774 l 1
 186 813 l 1
 336 973 l 1
 439 924 l 1
EndSplineSet
EndChar

StartChar: lacute
Encoding: 314 314 295
Width: 258
VWidth: 0
Flags: HMW
LayerCount: 2
Fore
SplineSet
64 780 m 1
 194 780 l 1
 194 0 l 1
 64 0 l 1
 64 780 l 1
281 990 m 1
 101 840 l 1
 28 879 l 1
 178 1039 l 1
 281 990 l 1
EndSplineSet
EndChar

StartChar: uni013B
Encoding: 315 315 296
Width: 504
VWidth: 0
Flags: HMW
LayerCount: 2
Fore
SplineSet
76 700 m 1
 219 700 l 1
 219 125 l 1
 498 125 l 1
 498 0 l 1
 76 0 l 1
 76 700 l 1
266 -60 m 1
 396 -92 l 1
 275 -342 l 1
 178 -319 l 1
 266 -60 l 1
EndSplineSet
EndChar

StartChar: uni013C
Encoding: 316 316 297
Width: 258
VWidth: 0
Flags: HMW
LayerCount: 2
Fore
SplineSet
64 780 m 1
 194 780 l 1
 194 0 l 1
 64 0 l 1
 64 780 l 1
108 -60 m 1
 238 -92 l 1
 117 -342 l 1
 20 -319 l 1
 108 -60 l 1
EndSplineSet
EndChar

StartChar: Lcaron
Encoding: 317 317 298
Width: 504
VWidth: 0
Flags: HMW
LayerCount: 2
Fore
SplineSet
76 700 m 1
 219 700 l 1
 219 125 l 1
 498 125 l 1
 498 0 l 1
 76 0 l 1
 76 700 l 1
386 714 m 1
 516 683 l 1
 395 433 l 1
 298 455 l 1
 386 714 l 1
EndSplineSet
EndChar

StartChar: lcaron
Encoding: 318 318 299
Width: 258
VWidth: 0
Flags: HMW
LayerCount: 2
Fore
SplineSet
64 780 m 1
 194 780 l 1
 194 0 l 1
 64 0 l 1
 64 780 l 1
332 780 m 1
 462 748 l 1
 341 498 l 1
 244 521 l 1
 332 780 l 1
EndSplineSet
EndChar

StartChar: Ldot
Encoding: 319 319 300
Width: 504
VWidth: 0
Flags: HMW
LayerCount: 2
Fore
SplineSet
76 700 m 1
 219 700 l 1
 219 125 l 1
 498 125 l 1
 498 0 l 1
 76 0 l 1
 76 700 l 1
302 426 m 0
 302 470 338 507 385 507 c 0
 432 507 467 470 467 426 c 0
 467 382 432 345 385 345 c 0
 338 345 302 382 302 426 c 0
EndSplineSet
EndChar

StartChar: ldot
Encoding: 320 320 301
Width: 444
VWidth: 0
Flags: HMW
LayerCount: 2
Fore
SplineSet
64 780 m 1
 194 780 l 1
 194 0 l 1
 64 0 l 1
 64 780 l 1
241 411 m 0
 241 455 276 492 323 492 c 0
 370 492 406 455 406 411 c 0
 406 367 370 330 323 330 c 0
 276 330 241 367 241 411 c 0
EndSplineSet
EndChar

StartChar: eth
Encoding: 240 240 302
Width: 640
VWidth: 0
Flags: HMW
LayerCount: 2
Fore
SplineSet
450 241 m 0
 450 320 394 374 320 374 c 0
 246 374 191 320 191 241 c 0
 191 162 246 109 320 109 c 0
 394 109 450 162 450 241 c 0
309 698 m 1
 521 420 l 2
 561 370 591 311 591 241 c 0
 591 78 470 -14 320 -14 c 0
 170 -14 50 78 50 241 c 0
 50 379 155 468 263 468 c 0
 311 468 343 460 377 425 c 1
 352 434 l 1
 127 698 l 1
 309 698 l 1
142 520 m 1
 142 594 l 1
 537 594 l 1
 537 520 l 1
 142 520 l 1
EndSplineSet
EndChar

StartChar: racute
Encoding: 341 341 303
Width: 390
VWidth: 0
Flags: HMW
LayerCount: 2
Fore
SplineSet
192 460 m 1
 192 0 l 1
 64 0 l 1
 64 460 l 1
 192 460 l 1
326 324 m 1
 308 340 293 350 267 350 c 0
 218 350 192 309 192 243 c 1
 156 280 l 1
 156 389 228 471 302 471 c 0
 335 471 367 459 386 435 c 1
 326 324 l 1
376 681 m 1
 196 531 l 1
 124 570 l 1
 274 730 l 1
 376 681 l 1
EndSplineSet
EndChar

StartChar: rcaron
Encoding: 345 345 304
Width: 390
VWidth: 0
Flags: HMW
LayerCount: 2
Fore
SplineSet
192 460 m 1
 192 0 l 1
 64 0 l 1
 64 460 l 1
 192 460 l 1
326 324 m 1
 308 340 293 350 267 350 c 0
 218 350 192 309 192 243 c 1
 156 280 l 1
 156 389 228 471 302 471 c 0
 335 471 367 459 386 435 c 1
 326 324 l 1
225 644 m 1
 322 733 l 1
 411 671 l 1
 225 531 l 1
 39 671 l 1
 128 733 l 1
 225 644 l 1
EndSplineSet
EndChar

StartChar: Rcaron
Encoding: 344 344 305
Width: 620
VWidth: 0
Flags: HMW
LayerCount: 2
Fore
SplineSet
235 326 m 1
 387 326 l 1
 615 0 l 1
 445 0 l 1
 235 326 l 1
76 700 m 1
 219 700 l 1
 219 0 l 1
 76 0 l 1
 76 700 l 1
164 577 m 1
 164 700 l 1
 311 700 l 2
 476 700 573 610 573 477 c 0
 573 344 476 254 311 254 c 2
 164 254 l 1
 164 368 l 1
 302 368 l 2
 377 368 425 406 425 473 c 0
 425 540 377 577 302 577 c 2
 164 577 l 1
295 887 m 1
 392 976 l 1
 481 914 l 1
 295 774 l 1
 109 914 l 1
 198 976 l 1
 295 887 l 1
EndSplineSet
EndChar

StartChar: uni0213
Encoding: 531 531 306
Width: 390
VWidth: 0
Flags: HMW
LayerCount: 2
Fore
SplineSet
192 460 m 1
 192 0 l 1
 64 0 l 1
 64 460 l 1
 192 460 l 1
326 324 m 1
 308 340 293 350 267 350 c 0
 218 350 192 309 192 243 c 1
 156 280 l 1
 156 389 228 471 302 471 c 0
 335 471 367 459 386 435 c 1
 326 324 l 1
63 531 m 1
 153 531 l 1
 153 563 177 595 225 595 c 0
 273 595 297 563 297 531 c 1
 388 531 l 1
 388 609 330 675 225 675 c 0
 120 675 63 609 63 531 c 1
EndSplineSet
EndChar

StartChar: uni0212
Encoding: 530 530 307
Width: 620
VWidth: 0
Flags: HMW
LayerCount: 2
Fore
SplineSet
235 326 m 1
 387 326 l 1
 615 0 l 1
 445 0 l 1
 235 326 l 1
76 700 m 1
 219 700 l 1
 219 0 l 1
 76 0 l 1
 76 700 l 1
164 577 m 1
 164 700 l 1
 311 700 l 2
 476 700 573 610 573 477 c 0
 573 344 476 254 311 254 c 2
 164 254 l 1
 164 368 l 1
 302 368 l 2
 377 368 425 406 425 473 c 0
 425 540 377 577 302 577 c 2
 164 577 l 1
149 774 m 1
 239 774 l 1
 239 806 263 839 311 839 c 0
 359 839 383 806 383 774 c 1
 473 774 l 1
 473 852 416 919 311 919 c 0
 206 919 149 852 149 774 c 1
EndSplineSet
EndChar

StartChar: OE
Encoding: 338 338 308
Width: 985
VWidth: 0
Flags: HMW
LayerCount: 2
Fore
SplineSet
562 312 m 1
 562 431 l 1
 919 431 l 1
 919 312 l 1
 562 312 l 1
493 670 m 1
 632 670 l 1
 632 30 l 1
 493 30 l 1
 493 670 l 1
940 121 m 1
 940 0 l 1
 390 0 l 2
 187 0 36 141 36 350 c 0
 36 559 186 700 390 700 c 2
 939 700 l 1
 939 579 l 1
 568 579 l 1
 551 572 l 1
 412 572 l 2
 267 572 183 491 183 350 c 0
 183 209 268 128 412 128 c 2
 548 128 l 1
 572 121 l 1
 940 121 l 1
EndSplineSet
EndChar

StartChar: oe
Encoding: 339 339 309
Width: 900
VWidth: 0
Flags: HMW
LayerCount: 2
Fore
SplineSet
728 250 m 2
 728 327 694 378 626 378 c 0
 563 378 512 337 512 260 c 1
 510 230 l 1
 510 137 555 87 628 87 c 0
 686 87 722 115 750 156 c 1
 863 120 l 1
 821 46 743 -10 644 -10 c 0
 519 -10 430 91 430 230 c 0
 430 247 431 263 434 279 c 0
 453 392 539 470 658 470 c 0
 768 470 865 379 865 234 c 0
 865 226 864 209 863 201 c 1
 728 230 l 1
 728 250 l 2
481 201 m 1
 481 280 l 1
 844 280 l 1
 863 201 l 1
 481 201 l 1
35 230 m 0
 35 379 138 470 263 470 c 0
 388 470 466 379 466 230 c 0
 466 81 388 -10 263 -10 c 0
 138 -10 35 81 35 230 c 0
164 230 m 0
 164 146 218 100 286 100 c 0
 347 100 397 146 397 230 c 0
 397 314 347 360 286 360 c 0
 218 360 164 314 164 230 c 0
EndSplineSet
EndChar

StartChar: a.alt
Encoding: 65536 -1 310
Width: 602
VWidth: 0
Flags: HMW
LayerCount: 2
Fore
SplineSet
414 460 m 1
 541 460 l 1
 541 0 l 1
 414 0 l 1
 414 460 l 1
33 230 m 0
 33 383 138 470 254 470 c 0
 369 470 452 379 452 230 c 0
 452 81 369 -10 254 -10 c 0
 138 -10 33 77 33 230 c 0
168 230 m 0
 168 148 224 97 292 97 c 0
 349 97 411 146 411 230 c 0
 411 314 349 363 292 363 c 0
 224 363 168 312 168 230 c 0
EndSplineSet
EndChar

StartChar: Jcircumflex
Encoding: 308 308 312
Width: 302
VWidth: 0
Flags: HMW
LayerCount: 2
Fore
SplineSet
-70 -76 m 1
 -52 -96 -22 -110 10 -110 c 0
 40 -110 76 -88 76 -26 c 2
 76 700 l 1
 227 700 l 1
 227 -56 l 2
 227 -182 136 -233 20 -233 c 0
 -50 -233 -116 -203 -148 -179 c 1
 -70 -76 l 1
151 863 m 1
 54 774 l 1
 -35 836 l 1
 151 976 l 1
 337 836 l 1
 248 774 l 1
 151 863 l 1
EndSplineSet
EndChar

StartChar: jcircumflex
Encoding: 309 309 313
Width: 265
VWidth: 0
Flags: HMW
LayerCount: 2
Fore
SplineSet
-28 -88 m 1
 -14 -108 2 -114 19 -114 c 0
 49 -114 67 -92 67 -39 c 2
 67 460 l 1
 192 460 l 1
 192 -69 l 2
 192 -174 137 -233 31 -233 c 0
 -29 -233 -65 -206 -84 -186 c 1
 -28 -88 l 1
130 619 m 1
 33 530 l 1
 -56 592 l 1
 130 732 l 1
 316 592 l 1
 227 530 l 1
 130 619 l 1
EndSplineSet
EndChar

StartChar: Nacute
Encoding: 323 323 314
Width: 787
VWidth: 0
Flags: HMW
LayerCount: 2
Fore
SplineSet
573 700 m 1
 712 700 l 1
 712 -35 l 1
 215 432 l 1
 215 0 l 1
 76 0 l 1
 76 735 l 1
 573 268 l 1
 573 700 l 1
551 909 m 1
 371 759 l 1
 298 798 l 1
 448 958 l 1
 551 909 l 1
EndSplineSet
EndChar

StartChar: nacute
Encoding: 324 324 315
Width: 559
VWidth: 0
Flags: HMW
LayerCount: 2
Fore
SplineSet
194 460 m 1
 194 0 l 1
 64 0 l 1
 64 460 l 1
 194 460 l 1
361 280 m 2
 361 341 339 374 285 374 c 0
 230 374 194 337 194 280 c 1
 168 276 l 1
 168 385 225 470 333 470 c 0
 441 470 495 409 495 294 c 2
 495 0 l 1
 361 0 l 1
 361 280 l 2
437 680 m 1
 257 530 l 1
 184 569 l 1
 334 729 l 1
 437 680 l 1
EndSplineSet
EndChar

StartChar: uni0145
Encoding: 325 325 316
Width: 787
VWidth: 0
Flags: HMW
LayerCount: 2
Fore
SplineSet
374 -48 m 1
 504 -80 l 1
 383 -330 l 1
 286 -307 l 1
 374 -48 l 1
573 700 m 1
 712 700 l 1
 712 -35 l 1
 215 432 l 1
 215 0 l 1
 76 0 l 1
 76 735 l 1
 573 268 l 1
 573 700 l 1
EndSplineSet
EndChar

StartChar: uni0146
Encoding: 326 326 317
Width: 559
VWidth: 0
Flags: HMW
LayerCount: 2
Fore
SplineSet
194 460 m 1
 194 0 l 1
 64 0 l 1
 64 460 l 1
 194 460 l 1
361 280 m 2
 361 341 339 374 285 374 c 0
 230 374 194 337 194 280 c 1
 162 276 l 1
 162 385 225 470 333 470 c 0
 441 470 495 409 495 294 c 2
 495 0 l 1
 361 0 l 1
 361 280 l 2
259 -60 m 1
 388 -92 l 1
 268 -342 l 1
 171 -319 l 1
 259 -60 l 1
EndSplineSet
EndChar

StartChar: Ncaron
Encoding: 327 327 318
Width: 787
VWidth: 0
Flags: HMW
LayerCount: 2
Fore
SplineSet
383 895 m 1
 480 984 l 1
 569 922 l 1
 383 782 l 1
 197 922 l 1
 286 984 l 1
 383 895 l 1
573 700 m 1
 712 700 l 1
 712 -35 l 1
 215 432 l 1
 215 0 l 1
 76 0 l 1
 76 735 l 1
 573 268 l 1
 573 700 l 1
EndSplineSet
EndChar

StartChar: ncaron
Encoding: 328 328 319
Width: 559
VWidth: 0
Flags: HMW
LayerCount: 2
Fore
SplineSet
194 460 m 1
 194 0 l 1
 64 0 l 1
 64 460 l 1
 194 460 l 1
361 280 m 2
 361 341 339 374 285 374 c 0
 230 374 194 337 194 280 c 1
 162 276 l 1
 162 385 225 470 333 470 c 0
 441 470 495 409 495 294 c 2
 495 0 l 1
 361 0 l 1
 361 280 l 2
279 644 m 1
 376 732 l 1
 465 670 l 1
 279 530 l 1
 93 670 l 1
 182 732 l 1
 279 644 l 1
EndSplineSet
EndChar

StartChar: Omacron
Encoding: 332 332 320
Width: 811
VWidth: 0
Flags: HMW
LayerCount: 2
Fore
SplineSet
188 350 m 0
 188 216 277 120 406 120 c 0
 535 120 624 216 624 350 c 0
 624 484 537 580 406 580 c 0
 277 580 188 484 188 350 c 0
36 350 m 0
 36 563 196 714 406 714 c 0
 619 714 776 563 776 350 c 0
 776 137 621 -19 406 -19 c 0
 191 -19 36 137 36 350 c 0
223 774 m 1
 223 888 l 1
 588 888 l 1
 588 774 l 1
 223 774 l 1
EndSplineSet
EndChar

StartChar: omacron
Encoding: 333 333 321
Width: 576
VWidth: 0
Flags: HMW
LayerCount: 2
Fore
SplineSet
33 230 m 0
 33 373 142 470 288 470 c 0
 434 470 543 373 543 230 c 0
 543 87 434 -10 288 -10 c 0
 142 -10 33 87 33 230 c 0
166 230 m 0
 166 151 220 100 288 100 c 0
 356 100 411 151 411 230 c 0
 411 309 356 361 288 361 c 0
 220 361 166 309 166 230 c 0
106 530 m 1
 106 644 l 1
 471 644 l 1
 471 530 l 1
 106 530 l 1
EndSplineSet
EndChar

StartChar: Obreve
Encoding: 334 334 322
Width: 811
VWidth: 0
Flags: HMW
LayerCount: 2
Fore
SplineSet
188 350 m 0
 188 216 277 120 406 120 c 0
 535 120 624 216 624 350 c 0
 624 484 537 580 406 580 c 0
 277 580 188 484 188 350 c 0
36 350 m 0
 36 563 196 714 406 714 c 0
 619 714 776 563 776 350 c 0
 776 137 621 -19 406 -19 c 0
 191 -19 36 137 36 350 c 0
243 919 m 1
 334 919 l 1
 334 887 358 854 406 854 c 0
 454 854 478 887 478 919 c 1
 568 919 l 1
 568 841 511 774 406 774 c 0
 301 774 243 841 243 919 c 1
EndSplineSet
EndChar

StartChar: obreve
Encoding: 335 335 323
Width: 576
VWidth: 0
Flags: HMW
LayerCount: 2
Fore
SplineSet
33 230 m 0
 33 373 142 470 288 470 c 0
 434 470 543 373 543 230 c 0
 543 87 434 -10 288 -10 c 0
 142 -10 33 87 33 230 c 0
166 230 m 0
 166 151 220 100 288 100 c 0
 356 100 411 151 411 230 c 0
 411 309 356 361 288 361 c 0
 220 361 166 309 166 230 c 0
126 675 m 1
 216 675 l 1
 216 643 240 611 288 611 c 0
 336 611 360 643 360 675 c 1
 450 675 l 1
 450 597 393 530 288 530 c 0
 183 530 126 597 126 675 c 1
EndSplineSet
EndChar

StartChar: Racute
Encoding: 340 340 324
Width: 620
VWidth: 0
Flags: HMW
LayerCount: 2
Fore
SplineSet
235 326 m 1
 387 326 l 1
 615 0 l 1
 445 0 l 1
 235 326 l 1
76 700 m 1
 219 700 l 1
 219 0 l 1
 76 0 l 1
 76 700 l 1
164 577 m 1
 164 700 l 1
 311 700 l 2
 476 700 573 610 573 477 c 0
 573 344 476 254 311 254 c 2
 164 254 l 1
 164 368 l 1
 302 368 l 2
 377 368 425 406 425 473 c 0
 425 540 377 577 302 577 c 2
 164 577 l 1
450 924 m 1
 270 774 l 1
 196 813 l 1
 346 973 l 1
 450 924 l 1
EndSplineSet
EndChar

StartChar: uni0156
Encoding: 342 342 325
Width: 620
VWidth: 0
Flags: HMW
LayerCount: 2
Fore
SplineSet
235 326 m 1
 387 326 l 1
 615 0 l 1
 445 0 l 1
 235 326 l 1
76 700 m 1
 219 700 l 1
 219 0 l 1
 76 0 l 1
 76 700 l 1
164 577 m 1
 164 700 l 1
 311 700 l 2
 476 700 573 610 573 477 c 0
 573 344 476 254 311 254 c 2
 164 254 l 1
 164 368 l 1
 302 368 l 2
 377 368 425 406 425 473 c 0
 425 540 377 577 302 577 c 2
 164 577 l 1
325 -60 m 1
 454 -92 l 1
 334 -342 l 1
 237 -319 l 1
 325 -60 l 1
EndSplineSet
EndChar

StartChar: uni0157
Encoding: 343 343 326
Width: 390
VWidth: 0
Flags: HMW
LayerCount: 2
Fore
SplineSet
192 460 m 1
 192 0 l 1
 64 0 l 1
 64 460 l 1
 192 460 l 1
326 324 m 1
 308 340 293 350 267 350 c 0
 218 350 192 309 192 243 c 1
 156 280 l 1
 156 389 228 471 302 471 c 0
 335 471 367 459 386 435 c 1
 326 324 l 1
107 -60 m 1
 237 -92 l 1
 116 -342 l 1
 19 -319 l 1
 107 -60 l 1
EndSplineSet
EndChar

StartChar: Scedilla
Encoding: 350 350 327
Width: 601
VWidth: 0
Flags: HMW
LayerCount: 2
Fore
SplineSet
141 243 m 1
 187 156 236 108 314 108 c 0
 377 108 410 137 410 190 c 0
 410 258 340 282 260 313 c 0
 191 339 75 384 75 521 c 0
 75 636 167 714 308 714 c 0
 447 714 519 639 552 562 c 1
 442 497 l 1
 412 551 369 590 308 590 c 0
 253 590 222 562 222 518 c 0
 222 464 299 439 383 408 c 0
 473 376 561 317 561 194 c 0
 561 59 461 -19 310 -19 c 0
 186 -19 80 57 36 172 c 1
 141 243 l 1
294 60 m 1
 389 58 l 1
 310 -61 l 1
 319 -59 328 -59 338 -59 c 0
 376 -59 423 -88 423 -149 c 0
 423 -218 361 -253 300 -253 c 0
 250 -253 213 -244 172 -215 c 1
 214 -155 l 1
 237 -173 264 -180 286 -180 c 0
 320 -180 339 -167 339 -143 c 0
 339 -117 314 -110 282 -110 c 0
 272 -110 238 -112 207 -126 c 1
 294 60 l 1
EndSplineSet
EndChar

StartChar: scedilla
Encoding: 351 351 328
Width: 439
VWidth: 0
Flags: HMW
LayerCount: 2
Fore
SplineSet
84 172 m 1
 146 109 198 85 230 85 c 0
 261 85 284 99 284 127 c 0
 284 166 236 182 184 201 c 0
 119 225 53 252 53 341 c 0
 53 427 127 471 218 471 c 0
 295 471 361 438 406 396 c 1
 349 315 l 1
 317 349 267 375 230 375 c 0
 196 375 174 364 174 340 c 0
 174 302 231 293 287 271 c 0
 352 245 414 212 414 131 c 0
 414 28 347 -16 245 -16 c 0
 151 -16 77 28 21 90 c 1
 84 172 l 1
224 63 m 1
 320 60 l 1
 241 -58 l 1
 250 -56 258 -56 268 -56 c 0
 306 -56 355 -85 355 -146 c 0
 355 -215 291 -251 230 -251 c 0
 180 -251 145 -241 104 -212 c 1
 145 -152 l 1
 168 -170 194 -177 216 -177 c 0
 250 -177 269 -164 269 -140 c 0
 269 -114 244 -107 212 -107 c 0
 202 -107 169 -110 138 -124 c 1
 224 63 l 1
EndSplineSet
EndChar

StartChar: Zcaron
Encoding: 381 381 329
Width: 596
VWidth: 0
Flags: HMW
LayerCount: 2
Fore
SplineSet
50 570 m 1
 50 700 l 1
 581 700 l 1
 239 125 l 1
 550 125 l 1
 550 0 l 1
 11 0 l 1
 350 570 l 1
 50 570 l 1
316 887 m 1
 413 976 l 1
 501 914 l 1
 316 774 l 1
 130 914 l 1
 218 976 l 1
 316 887 l 1
EndSplineSet
EndChar

StartChar: zcaron
Encoding: 382 382 330
Width: 498
VWidth: 0
Flags: HMW
LayerCount: 2
Fore
SplineSet
271 644 m 1
 368 732 l 1
 457 670 l 1
 271 530 l 1
 85 670 l 1
 174 732 l 1
 271 644 l 1
270 342 m 1
 54 342 l 1
 54 460 l 1
 488 460 l 1
 241 118 l 1
 460 118 l 1
 460 0 l 1
 15 0 l 1
 270 342 l 1
EndSplineSet
EndChar

StartChar: Ydieresis
Encoding: 376 376 331
Width: 629
VWidth: 0
Flags: HMW
LayerCount: 2
Fore
SplineSet
109 855 m 0
 109 898 143 929 186 929 c 0
 229 929 265 898 265 855 c 0
 265 812 229 782 186 782 c 0
 143 782 109 812 109 855 c 0
365 855 m 0
 365 898 400 929 443 929 c 0
 486 929 521 898 521 855 c 0
 521 812 486 782 443 782 c 0
 400 782 365 812 365 855 c 0
465 700 m 1
 629 700 l 1
 388 290 l 1
 388 0 l 1
 242 0 l 1
 242 289 l 1
 1 700 l 1
 165 700 l 1
 315 418 l 1
 465 700 l 1
EndSplineSet
EndChar

StartChar: Scaron
Encoding: 352 352 332
Width: 601
VWidth: 0
Flags: HMW
LayerCount: 2
Fore
SplineSet
141 243 m 1
 187 156 236 108 314 108 c 0
 377 108 410 137 410 190 c 0
 410 258 340 282 260 313 c 0
 191 339 75 393 75 524 c 0
 75 639 172 714 308 714 c 0
 447 714 524 633 552 562 c 1
 442 497 l 1
 412 551 374 590 313 590 c 0
 258 590 222 562 222 518 c 0
 222 464 299 439 383 408 c 0
 473 376 561 317 561 194 c 0
 561 59 466 -19 310 -19 c 0
 186 -19 80 57 36 172 c 1
 141 243 l 1
308 887 m 1
 405 976 l 1
 494 914 l 1
 308 774 l 1
 122 914 l 1
 211 976 l 1
 308 887 l 1
EndSplineSet
EndChar

StartChar: scaron
Encoding: 353 353 333
Width: 439
VWidth: 0
Flags: HMW
LayerCount: 2
Fore
SplineSet
85 171 m 1
 136 112 187 88 227 88 c 0
 261 88 284 98 284 126 c 0
 284 165 220 178 167 202 c 0
 106 229 45 261 45 340 c 0
 45 425 127 470 218 470 c 0
 295 470 366 437 406 395 c 1
 349 314 l 1
 317 348 263 370 226 370 c 0
 192 370 171 360 171 335 c 0
 171 305 231 290 287 268 c 0
 352 242 414 206 414 130 c 0
 414 27 348 -16 240 -16 c 0
 146 -16 65 28 21 90 c 1
 85 171 l 1
218 635 m 1
 315 723 l 1
 404 662 l 1
 218 522 l 1
 32 662 l 1
 121 723 l 1
 218 635 l 1
EndSplineSet
EndChar

StartChar: Lslash
Encoding: 321 321 334
Width: 508
VWidth: 0
Flags: HMW
LayerCount: 2
Fore
SplineSet
5 318 m 1
 -28 386 l 1
 307 608 l 1
 340 540 l 1
 5 318 l 1
76 700 m 1
 219 700 l 1
 219 125 l 1
 498 125 l 1
 498 0 l 1
 76 0 l 1
 76 700 l 1
EndSplineSet
EndChar

StartChar: lslash
Encoding: 322 322 335
Width: 258
VWidth: 0
Flags: HMW
LayerCount: 2
Fore
SplineSet
-4 318 m 1
 -37 386 l 1
 270 584 l 1
 303 516 l 1
 -4 318 l 1
64 780 m 1
 194 780 l 1
 194 0 l 1
 64 0 l 1
 64 780 l 1
EndSplineSet
EndChar

StartChar: uni0218
Encoding: 536 536 336
Width: 601
VWidth: 0
Flags: HMW
LayerCount: 2
Fore
SplineSet
141 243 m 1
 187 156 236 108 314 108 c 0
 377 108 410 137 410 190 c 0
 410 258 340 282 260 313 c 0
 191 339 75 393 75 524 c 0
 75 639 172 714 308 714 c 0
 447 714 524 633 552 562 c 1
 442 497 l 1
 412 551 374 590 313 590 c 0
 258 590 222 562 222 518 c 0
 222 464 299 439 383 408 c 0
 473 376 561 317 561 194 c 0
 561 59 466 -19 310 -19 c 0
 186 -19 80 57 36 172 c 1
 141 243 l 1
271 -70 m 1
 402 -102 l 1
 280 -352 l 1
 183 -329 l 1
 271 -70 l 1
EndSplineSet
EndChar

StartChar: uni0219
Encoding: 537 537 337
Width: 439
VWidth: 0
Flags: HMW
LayerCount: 2
Fore
SplineSet
85 171 m 1
 136 112 187 88 227 88 c 0
 261 88 284 98 284 126 c 0
 284 165 220 178 167 202 c 0
 106 229 45 261 45 340 c 0
 45 425 127 470 218 470 c 0
 295 470 366 437 406 395 c 1
 349 314 l 1
 317 348 263 370 226 370 c 0
 192 370 171 360 171 335 c 0
 171 305 231 290 287 268 c 0
 352 242 414 206 414 130 c 0
 414 27 348 -16 240 -16 c 0
 146 -16 65 28 21 90 c 1
 85 171 l 1
202 -68 m 1
 331 -100 l 1
 211 -350 l 1
 114 -327 l 1
 202 -68 l 1
EndSplineSet
EndChar

StartChar: pi
Encoding: 960 960 338
Width: 583
VWidth: 0
Flags: HMW
LayerCount: 2
Fore
SplineSet
90 430 m 1
 213 430 l 1
 213 0 l 1
 90 0 l 1
 90 430 l 1
30 460 m 1
 543 460 l 1
 543 350 l 1
 30 350 l 1
 30 460 l 1
340 430 m 1
 463 430 l 1
 463 167 l 2
 463 101 486 97 516 97 c 1
 516 -9 l 1
 402 -9 340 3 340 121 c 2
 340 430 l 1
EndSplineSet
EndChar

StartChar: trademark
Encoding: 8482 8482 339
Width: 721
VWidth: 0
Flags: HMW
LayerCount: 2
Fore
SplineSet
30 635 m 1
 30 700 l 1
 291 700 l 1
 291 635 l 1
 197 635 l 1
 197 350 l 1
 125 350 l 1
 125 635 l 1
 30 635 l 1
590 596 m 1
 641 717 l 1
 693 350 l 1
 619 350 l 1
 590 596 l 1
348 717 m 1
 399 596 l 1
 371 350 l 1
 296 350 l 1
 348 717 l 1
641 717 m 1
 641 612 l 1
 495 382 l 1
 348 612 l 1
 348 717 l 1
 495 492 l 1
 641 717 l 1
EndSplineSet
EndChar

StartChar: uni2219
Encoding: 8729 8729 340
Width: 315
VWidth: 0
Flags: HMW
LayerCount: 2
Fore
SplineSet
76 434 m 0
 76 478 111 515 158 515 c 0
 205 515 240 478 240 434 c 0
 240 390 205 354 158 354 c 0
 111 354 76 390 76 434 c 0
EndSplineSet
EndChar

StartChar: agrave.alt
Encoding: 65537 -1 341
Width: 602
VWidth: 0
Flags: HMW
LayerCount: 2
Fore
SplineSet
414 460 m 1
 541 460 l 1
 541 0 l 1
 414 0 l 1
 414 460 l 1
33 230 m 0
 33 383 138 470 254 470 c 0
 369 470 452 379 452 230 c 0
 452 81 369 -10 254 -10 c 0
 138 -10 33 77 33 230 c 0
168 230 m 0
 168 148 224 97 292 97 c 0
 349 97 411 146 411 230 c 0
 411 314 349 363 292 363 c 0
 224 363 168 312 168 230 c 0
126 680 m 1
 229 729 l 1
 379 569 l 1
 306 530 l 1
 126 680 l 1
EndSplineSet
EndChar

StartChar: aacute.alt
Encoding: 65538 -1 342
Width: 602
VWidth: 0
Flags: HMW
LayerCount: 2
Fore
SplineSet
414 460 m 1
 541 460 l 1
 541 0 l 1
 414 0 l 1
 414 460 l 1
33 230 m 0
 33 383 138 470 254 470 c 0
 369 470 452 379 452 230 c 0
 452 81 369 -10 254 -10 c 0
 138 -10 33 77 33 230 c 0
168 230 m 0
 168 148 224 97 292 97 c 0
 349 97 411 146 411 230 c 0
 411 314 349 363 292 363 c 0
 224 363 168 312 168 230 c 0
432 680 m 1
 252 530 l 1
 179 569 l 1
 329 729 l 1
 432 680 l 1
EndSplineSet
EndChar

StartChar: acircumflex.alt
Encoding: 65539 -1 343
Width: 602
VWidth: 0
Flags: HMW
LayerCount: 2
Fore
SplineSet
414 460 m 1
 541 460 l 1
 541 0 l 1
 414 0 l 1
 414 460 l 1
33 230 m 0
 33 383 138 470 254 470 c 0
 369 470 452 379 452 230 c 0
 452 81 369 -10 254 -10 c 0
 138 -10 33 77 33 230 c 0
168 230 m 0
 168 148 224 97 292 97 c 0
 349 97 411 146 411 230 c 0
 411 314 349 363 292 363 c 0
 224 363 168 312 168 230 c 0
305 619 m 1
 208 530 l 1
 119 592 l 1
 305 732 l 1
 491 592 l 1
 402 530 l 1
 305 619 l 1
EndSplineSet
EndChar

StartChar: atilde.alt
Encoding: 65540 -1 344
Width: 602
VWidth: 0
Flags: HMW
LayerCount: 2
Fore
SplineSet
414 460 m 1
 541 460 l 1
 541 0 l 1
 414 0 l 1
 414 460 l 1
33 230 m 0
 33 383 138 470 254 470 c 0
 369 470 452 379 452 230 c 0
 452 81 369 -10 254 -10 c 0
 138 -10 33 77 33 230 c 0
168 230 m 0
 168 148 224 97 292 97 c 0
 349 97 411 146 411 230 c 0
 411 314 349 363 292 363 c 0
 224 363 168 312 168 230 c 0
122 587 m 1
 132 636 179 678 237 678 c 0
 303 678 314 628 370 628 c 0
 393 628 412 647 432 679 c 1
 496 614 l 1
 480 577 429 533 370 533 c 0
 315 533 284 584 236 584 c 0
 197 584 188 548 188 533 c 1
 122 587 l 1
EndSplineSet
EndChar

StartChar: adieresis.alt
Encoding: 65541 -1 345
Width: 602
VWidth: 0
Flags: HMW
LayerCount: 2
Fore
SplineSet
414 460 m 1
 541 460 l 1
 541 0 l 1
 414 0 l 1
 414 460 l 1
33 230 m 0
 33 383 138 470 254 470 c 0
 369 470 452 379 452 230 c 0
 452 81 369 -10 254 -10 c 0
 138 -10 33 77 33 230 c 0
168 230 m 0
 168 148 224 97 292 97 c 0
 349 97 411 146 411 230 c 0
 411 314 349 363 292 363 c 0
 224 363 168 312 168 230 c 0
338 604 m 0
 338 647 372 678 415 678 c 0
 458 678 493 647 493 604 c 0
 493 561 458 530 415 530 c 0
 372 530 338 561 338 604 c 0
107 604 m 0
 107 647 142 678 185 678 c 0
 228 678 263 647 263 604 c 0
 263 561 228 530 185 530 c 0
 142 530 107 561 107 604 c 0
EndSplineSet
EndChar

StartChar: aring.alt
Encoding: 65542 -1 346
Width: 602
VWidth: 0
Flags: HMW
LayerCount: 2
Fore
SplineSet
414 460 m 1
 541 460 l 1
 541 0 l 1
 414 0 l 1
 414 460 l 1
33 230 m 0
 33 383 138 470 254 470 c 0
 369 470 452 379 452 230 c 0
 452 81 369 -10 254 -10 c 0
 138 -10 33 77 33 230 c 0
168 230 m 0
 168 148 224 97 292 97 c 0
 349 97 411 146 411 230 c 0
 411 314 349 363 292 363 c 0
 224 363 168 312 168 230 c 0
182 641 m 0
 182 707 236 752 300 752 c 0
 364 752 418 707 418 641 c 0
 418 575 364 530 300 530 c 0
 236 530 182 575 182 641 c 0
252 641 m 0
 252 610 275 592 300 592 c 0
 325 592 348 610 348 641 c 0
 348 672 325 691 300 691 c 0
 275 691 252 672 252 641 c 0
EndSplineSet
EndChar

StartChar: amacron.alt
Encoding: 65543 -1 347
Width: 602
VWidth: 0
Flags: HMW
LayerCount: 2
Fore
SplineSet
414 460 m 1
 541 460 l 1
 541 0 l 1
 414 0 l 1
 414 460 l 1
33 230 m 0
 33 383 138 470 254 470 c 0
 369 470 452 379 452 230 c 0
 452 81 369 -10 254 -10 c 0
 138 -10 33 77 33 230 c 0
168 230 m 0
 168 148 224 97 292 97 c 0
 349 97 411 146 411 230 c 0
 411 314 349 363 292 363 c 0
 224 363 168 312 168 230 c 0
116 530 m 1
 116 644 l 1
 482 644 l 1
 482 530 l 1
 116 530 l 1
EndSplineSet
EndChar

StartChar: abreve.alt
Encoding: 65544 -1 348
Width: 602
VWidth: 0
Flags: HMW
LayerCount: 2
Fore
SplineSet
414 460 m 1
 541 460 l 1
 541 0 l 1
 414 0 l 1
 414 460 l 1
33 230 m 0
 33 383 138 470 254 470 c 0
 369 470 452 379 452 230 c 0
 452 81 369 -10 254 -10 c 0
 138 -10 33 77 33 230 c 0
168 230 m 0
 168 148 224 97 292 97 c 0
 349 97 411 146 411 230 c 0
 411 314 349 363 292 363 c 0
 224 363 168 312 168 230 c 0
127 675 m 1
 217 675 l 1
 217 643 241 611 289 611 c 0
 337 611 361 643 361 675 c 1
 451 675 l 1
 451 597 394 530 289 530 c 0
 184 530 127 597 127 675 c 1
EndSplineSet
EndChar

StartChar: aogonek.alt
Encoding: 65545 -1 349
Width: 602
VWidth: 0
Flags: HMW
LayerCount: 2
Fore
SplineSet
414 460 m 1
 541 460 l 1
 541 0 l 1
 414 0 l 1
 414 460 l 1
33 230 m 0
 33 383 138 470 254 470 c 0
 369 470 452 379 452 230 c 0
 452 81 369 -10 254 -10 c 0
 138 -10 33 77 33 230 c 0
168 230 m 0
 168 148 224 97 292 97 c 0
 349 97 411 146 411 230 c 0
 411 314 349 363 292 363 c 0
 224 363 168 312 168 230 c 0
524 -117 m 1
 557 -180 l 1
 542 -200 513 -220 461 -220 c 0
 390 -220 342 -183 342 -120 c 0
 342 -57 408 -11 478 25 c 1
 519 0 l 1
 467 -26 435 -63 435 -96 c 0
 435 -124 448 -137 474 -137 c 0
 496 -137 510 -130 524 -117 c 1
EndSplineSet
EndChar

StartChar: dagger
Encoding: 8224 8224 350
Width: 613
VWidth: 0
Flags: HMW
LayerCount: 2
Fore
SplineSet
90 540 m 1
 523 540 l 1
 523 430 l 1
 90 430 l 1
 90 540 l 1
245 700 m 1
 368 700 l 1
 368 -150 l 1
 245 -150 l 1
 245 700 l 1
EndSplineSet
EndChar

StartChar: daggerdbl
Encoding: 8225 8225 351
Width: 613
VWidth: 0
Flags: HMW
LayerCount: 2
Fore
SplineSet
90 146 m 1
 523 146 l 1
 523 36 l 1
 90 36 l 1
 90 146 l 1
90 540 m 1
 523 540 l 1
 523 430 l 1
 90 430 l 1
 90 540 l 1
245 700 m 1
 368 700 l 1
 368 -150 l 1
 245 -150 l 1
 245 700 l 1
EndSplineSet
EndChar

StartChar: ellipsis
Encoding: 8230 8230 352
Width: 917
VWidth: 0
Flags: HMW
LayerCount: 2
Fore
SplineSet
76 59 m 0
 76 103 111 140 158 140 c 0
 205 140 240 103 240 59 c 0
 240 15 205 -21 158 -21 c 0
 111 -21 76 15 76 59 c 0
376 59 m 0
 376 103 411 140 458 140 c 0
 505 140 540 103 540 59 c 0
 540 15 505 -21 458 -21 c 0
 411 -21 376 15 376 59 c 0
676 59 m 0
 676 103 711 140 758 140 c 0
 805 140 840 103 840 59 c 0
 840 15 805 -21 758 -21 c 0
 711 -21 676 15 676 59 c 0
EndSplineSet
EndChar

StartChar: uniFF10
Encoding: 65296 65296 353
Width: 614
VWidth: 0
Flags: HMW
LayerCount: 2
Fore
SplineSet
164 350 m 0
 164 209 221 113 307 113 c 0
 393 113 449 209 449 350 c 0
 449 491 393 587 307 587 c 0
 221 587 164 491 164 350 c 0
25 350 m 0
 25 572 140 712 307 712 c 0
 478 712 589 572 589 350 c 0
 589 128 478 -12 307 -12 c 0
 140 -12 25 128 25 350 c 0
EndSplineSet
EndChar

StartChar: uniFF11
Encoding: 65297 65297 354
Width: 614
VWidth: 0
Flags: HMW
LayerCount: 2
Fore
SplineSet
111 517 m 1
 111 647 l 1
 418 712 l 1
 418 0 l 1
 279 0 l 1
 279 561 l 1
 111 517 l 1
EndSplineSet
EndChar

StartChar: uniFF12
Encoding: 65298 65298 355
Width: 614
VWidth: 0
Flags: HMW
LayerCount: 2
Fore
SplineSet
17 0 m 1
 334 332 l 2
 387 389 420 432 420 488 c 0
 420 538 386 588 316 588 c 0
 243 588 193 531 193 447 c 1
 53 447 l 1
 53 596 148 713 319 713 c 0
 486 713 567 596 567 491 c 0
 567 417 528 356 469 303 c 2
 287 132 l 1
 580 132 l 1
 580 0 l 1
 17 0 l 1
EndSplineSet
EndChar

StartChar: uniFF13
Encoding: 65299 65299 356
Width: 614
VWidth: 0
Flags: HMW
LayerCount: 2
Fore
SplineSet
272 341 m 1
 272 410 l 1
 353 410 405 457 405 512 c 0
 405 561 376 595 318 595 c 0
 262 595 218 556 218 504 c 1
 85 504 l 1
 85 624 178 712 317 712 c 0
 463 712 548 626 548 521 c 0
 548 407 429 341 272 341 c 1
311 -14 m 0
 152 -14 55 91 55 211 c 1
 198 211 l 1
 198 143 250 105 315 105 c 0
 380 105 425 139 425 204 c 0
 425 271 371 312 272 312 c 1
 272 388 l 1
 442 388 568 330 568 189 c 0
 568 68 468 -14 311 -14 c 0
EndSplineSet
EndChar

StartChar: uniFF14
Encoding: 65300 65300 357
Width: 614
VWidth: 0
Flags: HMW
LayerCount: 2
Fore
SplineSet
14 129 m 1
 131 237 l 1
 417 237 l 0
 434 252 l 0
 592 252 l 1
 592 129 l 1
 14 129 l 1
151 164 m 1
 14 129 l 1
 393 700 l 1
 491 700 l 1
 491 0 l 1
 343 0 l 1
 343 165 l 0
 356 176 l 0
 356 472 l 1
 151 164 l 1
EndSplineSet
EndChar

StartChar: uniFF15
Encoding: 65301 65301 358
Width: 614
VWidth: 0
Flags: HMW
LayerCount: 2
Fore
SplineSet
573 226 m 0
 573 63 437 -12 302 -12 c 0
 173 -12 90 38 31 96 c 1
 99 208 l 1
 147 157 216 120 276 120 c 0
 365 120 418 162 418 239 c 0
 418 316 351 355 276 355 c 0
 218 355 155 345 84 305 c 1
 181 384 l 1
 231 438 293 457 361 457 c 0
 475 457 573 369 573 226 c 0
286 575 m 1
 230 391 l 1
 84 305 l 1
 180 700 l 1
 562 700 l 1
 562 575 l 1
 286 575 l 1
EndSplineSet
EndChar

StartChar: uniFF16
Encoding: 65302 65302 359
Width: 614
VWidth: 0
Flags: HMW
LayerCount: 2
Fore
SplineSet
177 241 m 0
 177 162 233 109 307 109 c 0
 381 109 437 162 437 241 c 0
 437 320 381 374 307 374 c 0
 233 374 177 320 177 241 c 0
319 698 m 1
 500 698 l 1
 276 434 l 1
 250 425 l 1
 284 460 316 468 364 468 c 0
 472 468 577 379 577 241 c 0
 577 78 457 -14 307 -14 c 0
 157 -14 36 78 36 241 c 0
 36 311 66 370 106 420 c 2
 319 698 l 1
EndSplineSet
EndChar

StartChar: uniFF17
Encoding: 65303 65303 360
Width: 614
VWidth: 0
Flags: HMW
LayerCount: 2
Fore
SplineSet
45 566 m 1
 45 700 l 1
 591 700 l 1
 253 0 l 1
 100 0 l 1
 379 566 l 1
 45 566 l 1
EndSplineSet
EndChar

StartChar: uniFF18
Encoding: 65304 65304 361
Width: 614
VWidth: 0
Flags: HMW
LayerCount: 2
Fore
SplineSet
93 531 m 0
 93 643 193 714 316 714 c 0
 439 714 539 643 539 531 c 0
 539 409 431 346 316 346 c 0
 201 346 93 409 93 531 c 0
228 517 m 0
 228 464 267 427 316 427 c 0
 365 427 404 464 404 517 c 0
 404 570 368 607 316 607 c 0
 264 607 228 570 228 517 c 0
68 190 m 0
 68 332 201 394 316 394 c 0
 431 394 564 332 564 190 c 0
 564 68 450 -14 316 -14 c 0
 182 -14 68 68 68 190 c 0
209 211 m 0
 209 142 259 104 316 104 c 0
 373 104 423 142 423 211 c 0
 423 270 373 316 316 316 c 0
 259 316 209 270 209 211 c 0
EndSplineSet
EndChar

StartChar: uniFF19
Encoding: 65305 65305 362
Width: 614
VWidth: 0
Flags: HMW
LayerCount: 2
Fore
SplineSet
437 459 m 0
 437 538 381 591 307 591 c 0
 233 591 177 538 177 459 c 0
 177 380 233 326 307 326 c 0
 381 326 437 380 437 459 c 0
295 2 m 1
 114 2 l 1
 338 266 l 1
 364 275 l 1
 330 240 298 232 250 232 c 0
 142 232 36 321 36 459 c 0
 36 622 157 714 307 714 c 0
 457 714 577 622 577 459 c 0
 577 389 547 330 507 280 c 2
 295 2 l 1
EndSplineSet
EndChar

StartChar: caron
Encoding: 711 711 363
Width: 480
VWidth: 0
Flags: HMW
LayerCount: 2
Fore
SplineSet
240 670 m 1
 337 758 l 1
 426 697 l 1
 240 557 l 1
 54 697 l 1
 143 758 l 1
 240 670 l 1
EndSplineSet
EndChar

StartChar: napostrophe
Encoding: 329 329 364
Width: 712
VWidth: 0
Flags: HMW
LayerCount: 2
Fore
SplineSet
347 460 m 1
 347 0 l 1
 217 0 l 1
 217 460 l 1
 347 460 l 1
515 280 m 2
 515 341 492 374 438 374 c 0
 383 374 347 337 347 280 c 1
 316 276 l 1
 316 385 378 470 486 470 c 0
 594 470 649 409 649 294 c 2
 649 0 l 1
 515 0 l 1
 515 280 l 2
117 700 m 1
 255 700 l 1
 153 453 l 1
 61 453 l 1
 117 700 l 1
EndSplineSet
EndChar

StartChar: IJ
Encoding: 306 306 365
Width: 583
VWidth: 0
Flags: HMW
LayerCount: 2
Fore
SplineSet
210 -76 m 1
 228 -96 258 -110 290 -110 c 0
 320 -110 356 -88 356 -26 c 2
 356 700 l 1
 507 700 l 1
 507 -56 l 2
 507 -182 416 -233 300 -233 c 0
 230 -233 165 -203 133 -179 c 1
 210 -76 l 1
76 700 m 1
 221 700 l 1
 221 0 l 1
 76 0 l 1
 76 700 l 1
EndSplineSet
EndChar

StartChar: ij
Encoding: 307 307 366
Width: 534
VWidth: 0
Flags: HMW
LayerCount: 2
Fore
SplineSet
321 638 m 0
 321 681 356 711 399 711 c 0
 442 711 477 681 477 638 c 0
 477 595 442 564 399 564 c 0
 356 564 321 595 321 638 c 0
240 -88 m 1
 254 -108 271 -114 288 -114 c 0
 318 -114 336 -92 336 -39 c 2
 336 460 l 1
 461 460 l 1
 461 -69 l 2
 461 -174 406 -233 300 -233 c 0
 240 -233 204 -206 185 -186 c 1
 240 -88 l 1
58 638 m 0
 58 681 93 711 136 711 c 0
 179 711 214 681 214 638 c 0
 214 595 179 564 136 564 c 0
 93 564 58 595 58 638 c 0
72 460 m 1
 199 460 l 1
 199 0 l 1
 72 0 l 1
 72 460 l 1
EndSplineSet
EndChar

StartChar: uni0237
Encoding: 567 567 367
Width: 265
VWidth: 0
Flags: HMW
LayerCount: 2
Fore
SplineSet
-28 -88 m 1
 -14 -108 2 -114 19 -114 c 0
 49 -114 67 -92 67 -39 c 2
 67 460 l 1
 192 460 l 1
 192 -69 l 2
 192 -174 137 -233 31 -233 c 0
 -29 -233 -65 -206 -84 -186 c 1
 -28 -88 l 1
EndSplineSet
EndChar

StartChar: Sacute
Encoding: 346 346 368
Width: 601
VWidth: 0
Flags: HMW
LayerCount: 2
Fore
SplineSet
141 243 m 1
 187 156 236 108 314 108 c 0
 377 108 410 137 410 190 c 0
 410 258 340 282 260 313 c 0
 191 339 75 393 75 524 c 0
 75 639 172 714 308 714 c 0
 447 714 524 633 552 562 c 1
 442 497 l 1
 412 551 374 590 313 590 c 0
 258 590 222 562 222 518 c 0
 222 464 299 439 383 408 c 0
 473 376 561 317 561 194 c 0
 561 59 466 -19 310 -19 c 0
 186 -19 80 57 36 172 c 1
 141 243 l 1
488 924 m 1
 308 774 l 1
 235 813 l 1
 385 973 l 1
 488 924 l 1
EndSplineSet
EndChar

StartChar: sacute
Encoding: 347 347 369
Width: 439
VWidth: 0
Flags: HMW
LayerCount: 2
Fore
SplineSet
85 171 m 1
 136 112 187 88 227 88 c 0
 261 88 284 98 284 126 c 0
 284 165 220 178 167 202 c 0
 106 229 45 261 45 340 c 0
 45 425 127 470 218 470 c 0
 295 470 366 437 406 395 c 1
 349 314 l 1
 317 348 263 370 226 370 c 0
 192 370 171 360 171 335 c 0
 171 305 231 290 287 268 c 0
 352 242 414 206 414 130 c 0
 414 27 348 -16 240 -16 c 0
 146 -16 65 28 21 90 c 1
 85 171 l 1
398 680 m 1
 218 530 l 1
 145 569 l 1
 295 729 l 1
 398 680 l 1
EndSplineSet
EndChar

StartChar: Scircumflex
Encoding: 348 348 370
Width: 601
VWidth: 0
Flags: HMW
LayerCount: 2
Fore
SplineSet
141 243 m 1
 187 156 236 108 314 108 c 0
 377 108 410 137 410 190 c 0
 410 258 340 282 260 313 c 0
 191 339 75 393 75 524 c 0
 75 639 172 714 308 714 c 0
 447 714 524 633 552 562 c 1
 442 497 l 1
 412 551 374 590 313 590 c 0
 258 590 222 562 222 518 c 0
 222 464 299 439 383 408 c 0
 473 376 561 317 561 194 c 0
 561 59 466 -19 310 -19 c 0
 186 -19 80 57 36 172 c 1
 141 243 l 1
308 863 m 1
 211 774 l 1
 122 836 l 1
 308 976 l 1
 494 836 l 1
 405 774 l 1
 308 863 l 1
EndSplineSet
EndChar

StartChar: scircumflex
Encoding: 349 349 371
Width: 439
VWidth: 0
Flags: HMW
LayerCount: 2
Fore
SplineSet
85 171 m 1
 136 112 187 88 227 88 c 0
 261 88 284 98 284 126 c 0
 284 165 220 178 167 202 c 0
 106 229 45 261 45 340 c 0
 45 425 127 470 218 470 c 0
 295 470 366 437 406 395 c 1
 349 314 l 1
 317 348 263 370 226 370 c 0
 192 370 171 360 171 335 c 0
 171 305 231 290 287 268 c 0
 352 242 414 206 414 130 c 0
 414 27 348 -16 240 -16 c 0
 146 -16 65 28 21 90 c 1
 85 171 l 1
227 619 m 1
 130 530 l 1
 41 592 l 1
 227 732 l 1
 413 592 l 1
 324 530 l 1
 227 619 l 1
EndSplineSet
EndChar

StartChar: uni1E9E
Encoding: 7838 7838 372
Width: 837
VWidth: 0
Flags: HMW
LayerCount: 2
Fore
SplineSet
527 -14 m 0
 357 -14 280 102 280 211 c 1
 409 211 l 1
 409 149 457 105 527 105 c 0
 598 105 636 141 636 204 c 0
 636 277 574 312 484 312 c 1
 484 380 l 1
 649 380 779 324 779 185 c 0
 779 66 674 -14 527 -14 c 0
484 345 m 1
 484 411 l 1
 565 411 612 451 612 508 c 0
 612 561 559 596 459 596 c 0
 334 596 223 528 223 351 c 2
 223 0 l 1
 80 0 l 1
 80 369 l 2
 80 589 235 710 453 710 c 0
 641 710 759 639 759 525 c 0
 759 416 649 345 484 345 c 1
EndSplineSet
EndChar

StartChar: Zacute
Encoding: 377 377 373
Width: 596
VWidth: 0
Flags: HW
LayerCount: 2
Fore
SplineSet
50 570 m 1
 50 700 l 1
 581 700 l 1
 239 125 l 1
 550 125 l 1
 550 0 l 1
 11 0 l 1
 350 570 l 1
 50 570 l 1
484 924 m 1
 304 774 l 1
 231 813 l 1
 381 973 l 1
 484 924 l 1
EndSplineSet
EndChar

StartChar: zacute
Encoding: 378 378 374
Width: 503
VWidth: 0
Flags: HW
LayerCount: 2
Fore
SplineSet
270 342 m 1
 54 342 l 1
 54 460 l 1
 488 460 l 1
 242 118 l 1
 460 118 l 1
 460 0 l 1
 15 0 l 1
 270 342 l 1
440 692 m 1
 260 542 l 1
 186 580 l 1
 336 740 l 1
 440 692 l 1
EndSplineSet
EndChar

StartChar: Zdotaccent
Encoding: 379 379 375
Width: 596
VWidth: 0
Flags: HW
LayerCount: 2
Fore
SplineSet
50 570 m 1
 50 700 l 1
 581 700 l 1
 239 125 l 1
 550 125 l 1
 550 0 l 1
 11 0 l 1
 350 570 l 1
 50 570 l 1
238 848 m 0
 238 891 273 922 316 922 c 0
 359 922 393 891 393 848 c 0
 393 805 359 774 316 774 c 0
 273 774 238 805 238 848 c 0
EndSplineSet
EndChar

StartChar: zdotaccent
Encoding: 380 380 376
Width: 503
VWidth: 0
Flags: HW
LayerCount: 2
Fore
SplineSet
270 342 m 1
 54 342 l 1
 54 460 l 1
 488 460 l 1
 242 118 l 1
 460 118 l 1
 460 0 l 1
 15 0 l 1
 270 342 l 1
193 621 m 0
 193 664 228 695 271 695 c 0
 314 695 349 664 349 621 c 0
 349 578 314 547 271 547 c 0
 228 547 193 578 193 621 c 0
EndSplineSet
EndChar

StartChar: Tcaron
Encoding: 356 356 377
Width: 532
VWidth: 0
Flags: HW
LayerCount: 2
Fore
SplineSet
6 570 m 1
 6 700 l 1
 526 700 l 1
 526 570 l 1
 338 570 l 1
 338 0 l 1
 194 0 l 1
 194 570 l 1
 6 570 l 1
266 887 m 1
 363 976 l 1
 452 914 l 1
 266 774 l 1
 80 914 l 1
 169 976 l 1
 266 887 l 1
EndSplineSet
EndChar

StartChar: tcaron
Encoding: 357 357 378
Width: 443
VWidth: 0
Flags: HW
LayerCount: 2
Fore
SplineSet
5 460 m 1
 289 460 l 1
 289 350 l 1
 5 350 l 1
 5 460 l 1
84 620 m 1
 210 620 l 1
 210 0 l 1
 84 0 l 1
 84 620 l 1
354 794 m 1
 484 762 l 1
 363 512 l 1
 266 535 l 1
 354 794 l 1
EndSplineSet
EndChar

StartChar: Uring
Encoding: 366 366 379
Width: 677
VWidth: 0
Flags: HW
LayerCount: 2
Fore
SplineSet
71 700 m 1
 214 700 l 1
 214 239 l 2
 214 160 256 107 339 107 c 0
 422 107 464 160 464 239 c 2
 464 700 l 1
 607 700 l 1
 607 230 l 2
 607 65 493 -23 339 -23 c 0
 185 -23 71 65 71 230 c 2
 71 700 l 1
221 885 m 0
 221 951 275 996 339 996 c 0
 403 996 457 951 457 885 c 0
 457 819 403 774 339 774 c 0
 275 774 221 819 221 885 c 0
291 885 m 0
 291 854 314 836 339 836 c 0
 364 836 387 854 387 885 c 0
 387 916 364 935 339 935 c 0
 314 935 291 916 291 885 c 0
EndSplineSet
EndChar

StartChar: uring
Encoding: 367 367 380
Width: 559
VWidth: 0
Flags: HW
LayerCount: 2
Fore
SplineSet
366 0 m 1
 366 460 l 1
 495 460 l 1
 495 0 l 1
 366 0 l 1
198 180 m 2
 198 119 221 86 275 86 c 0
 330 86 366 123 366 180 c 1
 392 184 l 1
 392 75 335 -10 227 -10 c 0
 119 -10 64 51 64 166 c 2
 64 460 l 1
 198 460 l 1
 198 180 l 2
162 641 m 0
 162 707 215 752 279 752 c 0
 343 752 398 707 398 641 c 0
 398 575 343 530 279 530 c 0
 215 530 162 575 162 641 c 0
232 641 m 0
 232 610 254 592 279 592 c 0
 304 592 327 610 327 641 c 0
 327 672 304 691 279 691 c 0
 254 691 232 672 232 641 c 0
EndSplineSet
EndChar

StartChar: Wcircumflex
Encoding: 372 372 381
Width: 1041
VWidth: 0
Flags: HW
LayerCount: 2
Fore
SplineSet
720 251 m 1
 868 700 l 1
 1036 700 l 1
 742 -39 l 1
 521 420 l 1
 300 -39 l 1
 6 700 l 1
 174 700 l 1
 322 251 l 1
 521 735 l 1
 720 251 l 1
521 884 m 1
 424 795 l 1
 335 857 l 1
 521 997 l 1
 707 857 l 1
 618 795 l 1
 521 884 l 1
EndSplineSet
EndChar

StartChar: wcircumflex
Encoding: 373 373 382
Width: 736
VWidth: 0
Flags: HW
LayerCount: 2
Fore
SplineSet
-4 460 m 1
 134 460 l 1
 236 205 l 1
 365 495 l 1
 500 204 l 1
 602 460 l 1
 740 460 l 1
 514 -31 l 1
 366 261 l 1
 222 -31 l 1
 -4 460 l 1
365 644 m 1
 268 555 l 1
 179 617 l 1
 365 757 l 1
 551 617 l 1
 462 555 l 1
 365 644 l 1
EndSplineSet
EndChar

StartChar: Ycircumflex
Encoding: 374 374 383
Width: 629
VWidth: 0
Flags: HW
LayerCount: 2
Fore
SplineSet
465 700 m 1
 629 700 l 1
 388 290 l 1
 388 0 l 1
 242 0 l 1
 242 289 l 1
 1 700 l 1
 165 700 l 1
 315 418 l 1
 465 700 l 1
315 863 m 1
 218 774 l 1
 129 836 l 1
 315 976 l 1
 501 836 l 1
 412 774 l 1
 315 863 l 1
EndSplineSet
EndChar

StartChar: ycircumflex
Encoding: 375 375 384
Width: 496
VWidth: 0
Flags: HW
LayerCount: 2
Fore
SplineSet
503 460 m 1
 203 -220 l 1
 69 -220 l 1
 186 46 l 1
 -6 460 l 1
 138 460 l 1
 286 94 l 1
 222 96 l 1
 367 460 l 1
 503 460 l 1
248 619 m 1
 151 530 l 1
 62 592 l 1
 248 732 l 1
 434 592 l 1
 345 530 l 1
 248 619 l 1
EndSplineSet
EndChar

StartChar: Utilde
Encoding: 360 360 385
Width: 677
VWidth: 0
Flags: HW
LayerCount: 2
Fore
SplineSet
71 700 m 1
 214 700 l 1
 214 239 l 2
 214 160 256 107 339 107 c 0
 422 107 464 160 464 239 c 2
 464 700 l 1
 607 700 l 1
 607 230 l 2
 607 65 493 -23 339 -23 c 0
 185 -23 71 65 71 230 c 2
 71 700 l 1
152 831 m 1
 162 880 209 922 267 922 c 0
 333 922 344 871 400 871 c 0
 423 871 442 891 462 923 c 1
 526 858 l 1
 510 821 459 777 400 777 c 0
 345 777 314 828 266 828 c 0
 227 828 218 792 218 777 c 1
 152 831 l 1
EndSplineSet
EndChar

StartChar: utilde
Encoding: 361 361 386
Width: 559
VWidth: 0
Flags: HW
LayerCount: 2
Fore
SplineSet
366 0 m 1
 366 460 l 1
 495 460 l 1
 495 0 l 1
 366 0 l 1
198 180 m 2
 198 119 221 86 275 86 c 0
 330 86 366 123 366 180 c 1
 392 184 l 1
 392 75 335 -10 227 -10 c 0
 119 -10 64 51 64 166 c 2
 64 460 l 1
 198 460 l 1
 198 180 l 2
93 587 m 1
 103 636 150 678 208 678 c 0
 274 678 285 628 341 628 c 0
 364 628 383 647 403 679 c 1
 466 614 l 1
 450 577 400 533 341 533 c 0
 286 533 255 584 207 584 c 0
 168 584 159 548 159 533 c 1
 93 587 l 1
EndSplineSet
EndChar

StartChar: Umacron
Encoding: 362 362 387
Width: 677
VWidth: 0
Flags: HW
LayerCount: 2
Fore
SplineSet
71 700 m 1
 214 700 l 1
 214 239 l 2
 214 160 256 107 339 107 c 0
 422 107 464 160 464 239 c 2
 464 700 l 1
 607 700 l 1
 607 230 l 2
 607 65 493 -23 339 -23 c 0
 185 -23 71 65 71 230 c 2
 71 700 l 1
157 774 m 1
 157 888 l 1
 522 888 l 1
 522 774 l 1
 157 774 l 1
EndSplineSet
EndChar

StartChar: umacron
Encoding: 363 363 388
Width: 559
VWidth: 0
Flags: HW
LayerCount: 2
Fore
SplineSet
366 0 m 1
 366 460 l 1
 495 460 l 1
 495 0 l 1
 366 0 l 1
198 180 m 2
 198 119 221 86 275 86 c 0
 330 86 366 123 366 180 c 1
 392 184 l 1
 392 75 335 -10 227 -10 c 0
 119 -10 64 51 64 166 c 2
 64 460 l 1
 198 460 l 1
 198 180 l 2
97 530 m 1
 97 644 l 1
 463 644 l 1
 463 530 l 1
 97 530 l 1
EndSplineSet
EndChar

StartChar: Ubreve
Encoding: 364 364 389
Width: 677
VWidth: 0
Flags: HW
LayerCount: 2
Fore
SplineSet
71 700 m 1
 214 700 l 1
 214 239 l 2
 214 160 256 107 339 107 c 0
 422 107 464 160 464 239 c 2
 464 700 l 1
 607 700 l 1
 607 230 l 2
 607 65 493 -23 339 -23 c 0
 185 -23 71 65 71 230 c 2
 71 700 l 1
177 919 m 1
 267 919 l 1
 267 887 291 854 339 854 c 0
 387 854 411 887 411 919 c 1
 501 919 l 1
 501 841 444 774 339 774 c 0
 234 774 177 841 177 919 c 1
EndSplineSet
EndChar

StartChar: ubreve
Encoding: 365 365 390
Width: 559
VWidth: 0
Flags: HW
LayerCount: 2
Fore
SplineSet
366 0 m 1
 366 460 l 1
 495 460 l 1
 495 0 l 1
 366 0 l 1
198 180 m 2
 198 119 221 86 275 86 c 0
 330 86 366 123 366 180 c 1
 392 184 l 1
 392 75 335 -10 227 -10 c 0
 119 -10 64 51 64 166 c 2
 64 460 l 1
 198 460 l 1
 198 180 l 2
117 675 m 1
 208 675 l 1
 208 643 232 611 280 611 c 0
 328 611 352 643 352 675 c 1
 442 675 l 1
 442 597 385 530 280 530 c 0
 175 530 117 597 117 675 c 1
EndSplineSet
EndChar

StartChar: uni0123
Encoding: 291 291 391
Width: 570
VWidth: 0
Flags: HW
LayerCount: 2
Fore
SplineSet
42 -32 m 1
 169 -32 l 1
 172 -92 219 -129 287 -129 c 0
 353 -129 411 -84 411 10 c 2
 411 460 l 1
 537 460 l 1
 537 10 l 2
 537 -162 423 -236 291 -236 c 0
 130 -236 50 -153 42 -32 c 1
33 234 m 0
 33 387 138 470 254 470 c 0
 369 470 452 383 452 234 c 0
 452 85 369 -1 254 -1 c 0
 138 -1 33 81 33 234 c 0
168 234 m 0
 168 152 224 106 292 106 c 0
 349 106 411 150 411 234 c 0
 411 318 349 363 292 363 c 0
 224 363 168 316 168 234 c 0
301 543 m 1
 178 594 l 1
 336 823 l 1
 428 785 l 1
 301 543 l 1
EndSplineSet
EndChar

StartChar: Hbar
Encoding: 294 294 392
Width: 764
VWidth: 0
Flags: HW
LayerCount: 2
Fore
SplineSet
123 308 m 1
 123 437 l 1
 637 437 l 1
 637 308 l 1
 123 308 l 1
546 700 m 1
 689 700 l 1
 689 0 l 1
 546 0 l 1
 546 700 l 1
76 700 m 1
 219 700 l 1
 219 0 l 1
 76 0 l 1
 76 700 l 1
5 538 m 1
 5 634 l 1
 760 634 l 1
 760 538 l 1
 5 538 l 1
EndSplineSet
EndChar

StartChar: hbar
Encoding: 295 295 393
Width: 555
VWidth: 0
Flags: HW
LayerCount: 2
Fore
SplineSet
194 780 m 1
 194 0 l 1
 64 0 l 1
 64 780 l 1
 194 780 l 1
361 280 m 2
 361 341 339 374 285 374 c 0
 230 374 194 337 194 280 c 1
 168 280 l 1
 168 389 225 475 333 475 c 0
 441 475 491 414 491 299 c 2
 491 0 l 1
 361 0 l 1
 361 280 l 2
5 606 m 1
 5 719 l 1
 331 719 l 1
 331 606 l 1
 5 606 l 1
EndSplineSet
EndChar

StartChar: uni0400
Encoding: 1024 1024 394
Width: 550
VWidth: 0
Flags: HW
LayerCount: 2
Fore
SplineSet
168 0 m 1
 168 121 l 1
 521 121 l 1
 521 0 l 1
 168 0 l 1
168 579 m 1
 168 700 l 1
 521 700 l 1
 521 579 l 1
 168 579 l 1
168 312 m 1
 168 431 l 1
 501 431 l 1
 501 312 l 1
 168 312 l 1
76 700 m 1
 215 700 l 1
 215 0 l 1
 76 0 l 1
 76 700 l 1
118 924 m 1
 222 973 l 1
 372 813 l 1
 298 774 l 1
 118 924 l 1
EndSplineSet
EndChar

StartChar: uni0401
Encoding: 1025 1025 395
Width: 550
VWidth: 0
Flags: HW
LayerCount: 2
Fore
SplineSet
168 0 m 1
 168 121 l 1
 521 121 l 1
 521 0 l 1
 168 0 l 1
168 579 m 1
 168 700 l 1
 521 700 l 1
 521 579 l 1
 168 579 l 1
168 312 m 1
 168 431 l 1
 501 431 l 1
 501 312 l 1
 168 312 l 1
76 700 m 1
 215 700 l 1
 215 0 l 1
 76 0 l 1
 76 700 l 1
336 848 m 0
 336 891 371 922 414 922 c 0
 457 922 492 891 492 848 c 0
 492 805 457 774 414 774 c 0
 371 774 336 805 336 848 c 0
105 848 m 0
 105 891 140 922 183 922 c 0
 226 922 261 891 261 848 c 0
 261 805 226 774 183 774 c 0
 140 774 105 805 105 848 c 0
EndSplineSet
EndChar

StartChar: uni0403
Encoding: 1027 1027 396
Width: 484
VWidth: 0
Flags: HW
LayerCount: 2
Fore
SplineSet
80 700 m 1
 475 700 l 1
 475 570 l 1
 223 570 l 1
 223 0 l 1
 80 0 l 1
 80 700 l 1
457 924 m 1
 277 774 l 1
 204 813 l 1
 354 973 l 1
 457 924 l 1
EndSplineSet
EndChar

StartChar: uni040C
Encoding: 1036 1036 397
Width: 565
VWidth: 0
Flags: HW
LayerCount: 2
Fore
SplineSet
76 700 m 1
 223 700 l 1
 223 0 l 1
 76 0 l 1
 76 700 l 1
472 700 m 1
 643 700 l 1
 353 372 l 1
 658 0 l 1
 483 0 l 1
 181 368 l 1
 472 700 l 1
505 916 m 1
 325 766 l 1
 252 804 l 1
 402 964 l 1
 505 916 l 1
EndSplineSet
EndChar

StartChar: uni040D
Encoding: 1037 1037 398
Width: 787
VWidth: 0
Flags: HW
LayerCount: 2
Fore
SplineSet
707 549 m 1
 76 -35 l 1
 81 151 l 1
 712 735 l 1
 707 549 l 1
215 700 m 1
 215 114 l 1
 76 -35 l 1
 76 700 l 1
 215 700 l 1
712 735 m 1
 712 0 l 1
 573 0 l 1
 573 582 l 1
 712 735 l 1
251 904 m 1
 354 952 l 1
 504 792 l 1
 431 754 l 1
 251 904 l 1
EndSplineSet
EndChar

StartChar: uni040E
Encoding: 1038 1038 399
Width: 593
VWidth: 0
Flags: HW
LayerCount: 2
Fore
SplineSet
600 700 m 1
 271 0 l 1
 126 0 l 1
 219 211 l 1
 -6 700 l 1
 153 700 l 1
 326 267 l 1
 259 269 l 1
 453 700 l 1
 600 700 l 1
136 919 m 1
 226 919 l 1
 226 887 250 854 298 854 c 0
 346 854 370 887 370 919 c 1
 460 919 l 1
 460 841 403 774 298 774 c 0
 193 774 136 841 136 919 c 1
EndSplineSet
EndChar

StartChar: uni0410
Encoding: 1040 1040 400
Width: 711
VWidth: 0
Flags: HW
LayerCount: 2
Fore
SplineSet
173 158 m 1
 190 272 l 1
 526 272 l 1
 543 158 l 1
 173 158 l 1
356 473 m 1
 252 232 l 1
 255 200 l 1
 163 0 l 1
 1 0 l 1
 356 741 l 1
 711 0 l 1
 549 0 l 1
 459 193 l 1
 461 229 l 1
 356 473 l 1
EndSplineSet
EndChar

StartChar: uni0411
Encoding: 1041 1041 401
Width: 634
VWidth: 0
Flags: HW
LayerCount: 2
Fore
SplineSet
127 312 m 1
 127 431 l 1
 357 431 l 2
 492 431 595 345 595 216 c 0
 595 87 492 0 357 0 c 2
 127 0 l 1
 127 121 l 1
 331 121 l 2
 404 121 449 152 449 216 c 0
 449 280 404 312 331 312 c 2
 127 312 l 1
80 700 m 1
 542 700 l 1
 542 579 l 1
 226 579 l 1
 226 0 l 1
 80 0 l 1
 80 700 l 1
EndSplineSet
EndChar

StartChar: uni0412
Encoding: 1042 1042 402
Width: 631
VWidth: 0
Flags: HW
LayerCount: 2
Fore
SplineSet
184 355 m 1
 184 420 l 1
 297 420 l 2
 358 420 398 451 398 504 c 0
 398 557 358 586 297 586 c 2
 219 586 l 1
 219 114 l 1
 311 114 l 2
 384 114 438 144 438 217 c 0
 438 286 384 316 311 316 c 2
 184 316 l 1
 184 394 l 1
 324 394 l 2
 459 394 586 337 586 199 c 0
 586 60 481 0 324 0 c 2
 76 0 l 1
 76 700 l 1
 310 700 l 2
 448 700 546 642 546 523 c 0
 546 415 448 355 310 355 c 2
 184 355 l 1
EndSplineSet
EndChar

StartChar: uni0413
Encoding: 1043 1043 403
Width: 484
VWidth: 0
Flags: HW
LayerCount: 2
Fore
SplineSet
80 700 m 1
 475 700 l 1
 475 570 l 1
 223 570 l 1
 223 0 l 1
 80 0 l 1
 80 700 l 1
EndSplineSet
EndChar

StartChar: uni0414
Encoding: 1044 1044 404
Width: 855
VWidth: 0
Flags: HW
LayerCount: 2
Fore
SplineSet
425 464 m 1
 265 30 l 1
 101 30 l 1
 425 735 l 1
 749 30 l 1
 586 30 l 1
 425 464 l 1
671 0 m 1
 180 0 l 1
 180 -110 l 1
 40 -110 l 1
 40 125 l 1
 811 125 l 1
 811 -110 l 1
 671 -110 l 1
 671 0 l 1
EndSplineSet
EndChar

StartChar: uni0415
Encoding: 1045 1045 405
Width: 586
VWidth: 0
Flags: HW
LayerCount: 2
Fore
SplineSet
168 0 m 1
 168 121 l 1
 521 121 l 1
 521 0 l 1
 168 0 l 1
168 579 m 1
 168 700 l 1
 521 700 l 1
 521 579 l 1
 168 579 l 1
168 312 m 1
 168 431 l 1
 501 431 l 1
 501 312 l 1
 168 312 l 1
76 700 m 1
 215 700 l 1
 215 0 l 1
 76 0 l 1
 76 700 l 1
EndSplineSet
EndChar

StartChar: uni0416
Encoding: 1046 1046 406
Width: 1027
VWidth: 0
Flags: HW
LayerCount: 2
Fore
SplineSet
186 700 m 1
 478 370 l 1
 171 0 l 1
 1 0 l 1
 310 372 l 1
 16 700 l 1
 186 700 l 1
442 700 m 1
 590 700 l 1
 590 0 l 1
 442 0 l 1
 442 700 l 1
837 700 m 1
 1011 700 l 1
 717 372 l 1
 1026 0 l 1
 852 0 l 1
 555 370 l 1
 837 700 l 1
EndSplineSet
EndChar

StartChar: uni0417
Encoding: 1047 1047 407
Width: 649
VWidth: 0
Flags: HW
LayerCount: 2
Fore
SplineSet
298 341 m 1
 298 410 l 1
 399 410 452 453 452 508 c 0
 452 559 413 595 339 595 c 0
 263 595 214 556 214 504 c 1
 81 504 l 1
 81 624 176 712 339 712 c 0
 505 712 595 626 595 521 c 0
 595 407 466 341 298 341 c 1
341 -14 m 0
 144 -14 51 91 51 211 c 1
 194 211 l 1
 198 143 251 105 337 105 c 0
 423 105 472 139 472 204 c 0
 472 271 412 312 298 312 c 1
 298 388 l 1
 479 388 615 330 615 189 c 0
 615 68 520 -14 341 -14 c 0
EndSplineSet
EndChar

StartChar: uni0418
Encoding: 1048 1048 408
Width: 787
VWidth: 0
Flags: HW
LayerCount: 2
Fore
SplineSet
707 549 m 1
 76 -35 l 1
 81 151 l 1
 712 735 l 1
 707 549 l 1
215 700 m 1
 215 114 l 1
 76 -35 l 1
 76 700 l 1
 215 700 l 1
712 735 m 1
 712 0 l 1
 573 0 l 1
 573 582 l 1
 712 735 l 1
EndSplineSet
EndChar

StartChar: uni0419
Encoding: 1049 1049 409
Width: 787
VWidth: 0
Flags: HW
LayerCount: 2
Fore
SplineSet
707 549 m 1
 76 -35 l 1
 81 151 l 1
 712 735 l 1
 707 549 l 1
215 700 m 1
 215 114 l 1
 76 -35 l 1
 76 700 l 1
 215 700 l 1
712 735 m 1
 712 0 l 1
 573 0 l 1
 573 582 l 1
 712 735 l 1
257 914 m 1
 347 914 l 1
 347 882 371 849 419 849 c 0
 467 849 491 882 491 914 c 1
 582 914 l 1
 582 836 524 769 419 769 c 0
 314 769 257 836 257 914 c 1
EndSplineSet
EndChar

StartChar: uni041A
Encoding: 1050 1050 410
Width: 658
VWidth: 0
Flags: HW
LayerCount: 2
Fore
SplineSet
76 700 m 1
 223 700 l 1
 223 0 l 1
 76 0 l 1
 76 700 l 1
472 700 m 1
 643 700 l 1
 353 372 l 1
 658 0 l 1
 483 0 l 1
 181 368 l 1
 472 700 l 1
EndSplineSet
EndChar

StartChar: uni041B
Encoding: 1051 1051 411
Width: 735
VWidth: 0
Flags: HW
LayerCount: 2
Fore
SplineSet
656 700 m 25
 656 0 l 1
 510 0 l 1
 510 570 l 1
 254 570 l 25
 254 279 l 2
 254 102 180 0 10 0 c 1
 10 121 l 1
 74 121 112 185 112 278 c 2
 112 700 l 25
 656 700 l 25
EndSplineSet
EndChar

StartChar: uni041C
Encoding: 1052 1052 412
Width: 866
VWidth: 0
Flags: HW
LayerCount: 2
Fore
SplineSet
231 392 m 1
 186 0 l 1
 36 0 l 1
 140 735 l 1
 433 284 l 1
 726 735 l 1
 831 0 l 1
 681 0 l 1
 636 392 l 1
 433 65 l 1
 231 392 l 1
EndSplineSet
EndChar

StartChar: uni041D
Encoding: 1053 1053 413
Width: 764
VWidth: 0
Flags: HW
LayerCount: 2
Fore
SplineSet
123 308 m 1
 123 437 l 1
 637 437 l 1
 637 308 l 1
 123 308 l 1
546 700 m 1
 689 700 l 1
 689 0 l 1
 546 0 l 1
 546 700 l 1
76 700 m 1
 219 700 l 1
 219 0 l 1
 76 0 l 1
 76 700 l 1
EndSplineSet
EndChar

StartChar: uni041E
Encoding: 1054 1054 414
Width: 811
VWidth: 0
Flags: HW
LayerCount: 2
Fore
SplineSet
188 350 m 0
 188 216 277 120 406 120 c 0
 535 120 624 216 624 350 c 0
 624 484 537 580 406 580 c 0
 277 580 188 484 188 350 c 0
36 350 m 0
 36 563 196 714 406 714 c 0
 619 714 776 563 776 350 c 0
 776 137 621 -19 406 -19 c 0
 191 -19 36 137 36 350 c 0
EndSplineSet
EndChar

StartChar: uni041F
Encoding: 1055 1055 415
Width: 753
VWidth: 0
Flags: HW
LayerCount: 2
Fore
SplineSet
528 570 m 1
 226 570 l 1
 226 0 l 1
 80 0 l 1
 80 700 l 1
 674 700 l 1
 674 0 l 1
 528 0 l 1
 528 570 l 1
EndSplineSet
EndChar

StartChar: uni0420
Encoding: 1056 1056 416
Width: 599
VWidth: 0
Flags: HW
LayerCount: 2
Fore
SplineSet
76 700 m 1
 219 700 l 1
 219 0 l 1
 76 0 l 1
 76 700 l 1
164 579 m 1
 164 700 l 1
 302 700 l 2
 467 700 564 615 564 477 c 0
 564 339 467 254 302 254 c 2
 164 254 l 1
 164 375 l 1
 302 375 l 2
 377 375 425 410 425 477 c 0
 425 544 377 579 302 579 c 2
 164 579 l 1
EndSplineSet
EndChar

StartChar: uni0421
Encoding: 1057 1057 417
Width: 695
VWidth: 0
Flags: HW
LayerCount: 2
Fore
SplineSet
191 350 m 0
 191 211 295 123 416 123 c 0
 515 123 583 167 630 220 c 1
 630 58 l 1
 573 12 511 -14 409 -14 c 0
 193 -14 36 135 36 350 c 0
 36 565 193 714 409 714 c 0
 511 714 573 688 630 642 c 1
 630 480 l 1
 583 533 515 577 416 577 c 0
 295 577 191 489 191 350 c 0
EndSplineSet
EndChar

StartChar: uni0422
Encoding: 1058 1058 418
Width: 532
VWidth: 0
Flags: HW
LayerCount: 2
Fore
SplineSet
6 570 m 1
 6 700 l 1
 526 700 l 1
 526 570 l 1
 338 570 l 1
 338 0 l 1
 194 0 l 1
 194 570 l 1
 6 570 l 1
EndSplineSet
EndChar

StartChar: uni0423
Encoding: 1059 1059 419
Width: 601
VWidth: 0
Flags: HW
LayerCount: 2
Fore
SplineSet
608 700 m 1
 279 0 l 1
 130 0 l 1
 223 211 l 1
 -6 700 l 1
 157 700 l 1
 330 267 l 1
 263 269 l 1
 457 700 l 1
 608 700 l 1
EndSplineSet
EndChar

StartChar: uni0424
Encoding: 1060 1060 420
Width: 886
VWidth: 0
Flags: HW
LayerCount: 2
Fore
SplineSet
371 700 m 1
 516 700 l 1
 516 0 l 1
 371 0 l 1
 371 700 l 1
701 350 m 0
 701 451 622 492 501 492 c 2
 386 492 l 2
 265 492 186 451 186 350 c 0
 186 249 265 208 386 208 c 2
 501 208 l 2
 622 208 701 249 701 350 c 0
847 350 m 0
 847 181 707 80 523 80 c 2
 364 80 l 2
 180 80 40 181 40 350 c 0
 40 519 180 620 364 620 c 2
 523 620 l 2
 707 620 847 519 847 350 c 0
EndSplineSet
EndChar

StartChar: uni0425
Encoding: 1061 1061 421
Width: 645
VWidth: 0
Flags: HW
LayerCount: 2
Fore
SplineSet
449 700 m 1
 625 700 l 1
 410 361 l 1
 640 0 l 1
 464 0 l 1
 325 251 l 1
 181 0 l 1
 6 0 l 1
 242 361 l 1
 31 700 l 1
 206 700 l 1
 326 480 l 1
 449 700 l 1
EndSplineSet
EndChar

StartChar: uni0426
Encoding: 1062 1062 422
Width: 829
VWidth: 0
Flags: HW
LayerCount: 2
Fore
SplineSet
221 130 m 1
 546 130 l 1
 546 700 l 1
 691 700 l 1
 691 130 l 1
 794 130 l 1
 794 -127 l 1
 658 -127 l 1
 658 0 l 1
 76 0 l 1
 76 700 l 1
 221 700 l 1
 221 130 l 1
EndSplineSet
EndChar

StartChar: uni0427
Encoding: 1063 1063 423
Width: 686
VWidth: 0
Flags: HW
LayerCount: 2
Fore
SplineSet
303 239 m 1
 338 366 l 1
 520 366 l 1
 520 239 l 1
 303 239 l 1
459 700 m 1
 606 700 l 1
 606 0 l 1
 459 0 l 1
 459 700 l 1
218 700 m 1
 218 499 l 2
 218 418 265 366 338 366 c 1
 303 239 l 1
 155 239 76 348 76 483 c 2
 76 700 l 1
 218 700 l 1
EndSplineSet
EndChar

StartChar: uni0428
Encoding: 1064 1064 424
Width: 1052
VWidth: 0
Flags: HW
LayerCount: 2
Fore
SplineSet
829 130 m 1
 829 700 l 1
 972 700 l 1
 972 0 l 1
 80 0 l 1
 80 700 l 1
 223 700 l 1
 223 130 l 1
 456 130 l 1
 456 700 l 1
 596 700 l 1
 596 130 l 1
 829 130 l 1
EndSplineSet
EndChar

StartChar: uni0429
Encoding: 1065 1065 425
Width: 1114
VWidth: 0
Flags: HW
LayerCount: 2
Fore
SplineSet
829 130 m 1
 829 700 l 1
 972 700 l 1
 972 130 l 1
 1074 130 l 1
 1074 -127 l 1
 939 -127 l 1
 939 0 l 1
 80 0 l 1
 80 700 l 1
 223 700 l 1
 223 130 l 1
 456 130 l 1
 456 700 l 1
 596 700 l 1
 596 130 l 1
 829 130 l 1
EndSplineSet
EndChar

StartChar: uni042A
Encoding: 1066 1066 426
Width: 712
VWidth: 0
Flags: HW
LayerCount: 2
Fore
SplineSet
276 325 m 1
 276 446 l 1
 415 446 l 2
 580 446 676 361 676 223 c 0
 676 85 580 0 415 0 c 2
 276 0 l 1
 276 121 l 1
 415 121 l 2
 490 121 537 156 537 223 c 0
 537 290 490 325 415 325 c 2
 276 325 l 1
190 571 m 1
 10 571 l 1
 10 700 l 1
 333 700 l 1
 333 0 l 1
 190 0 l 1
 190 571 l 1
EndSplineSet
EndChar

StartChar: uni042B
Encoding: 1067 1067 427
Width: 864
VWidth: 0
Flags: HW
LayerCount: 2
Fore
SplineSet
643 700 m 1
 789 700 l 1
 789 0 l 1
 643 0 l 1
 643 700 l 1
76 700 m 1
 219 700 l 1
 219 0 l 1
 76 0 l 1
 76 700 l 1
164 325 m 1
 164 446 l 1
 302 446 l 2
 467 446 564 361 564 223 c 0
 564 85 467 0 302 0 c 2
 164 0 l 1
 164 121 l 1
 302 121 l 2
 377 121 425 156 425 223 c 0
 425 290 377 325 302 325 c 2
 164 325 l 1
EndSplineSet
EndChar

StartChar: uni042C
Encoding: 1068 1068 428
Width: 599
VWidth: 0
Flags: HW
LayerCount: 2
Fore
SplineSet
76 700 m 1
 219 700 l 1
 219 0 l 1
 76 0 l 1
 76 700 l 1
164 325 m 1
 164 446 l 1
 302 446 l 2
 467 446 564 361 564 223 c 0
 564 85 467 0 302 0 c 2
 164 0 l 1
 164 121 l 1
 302 121 l 2
 377 121 425 156 425 223 c 0
 425 290 377 325 302 325 c 2
 164 325 l 1
EndSplineSet
EndChar

StartChar: uni042D
Encoding: 1069 1069 429
Width: 695
VWidth: 0
Flags: HW
LayerCount: 2
Fore
SplineSet
135 291 m 1
 135 409 l 1
 524 409 l 1
 524 291 l 1
 135 291 l 1
517 350 m 0
 517 489 400 581 279 581 c 0
 180 581 109 538 66 493 c 1
 66 642 l 1
 123 688 184 714 286 714 c 0
 502 714 660 565 660 350 c 0
 660 135 502 -14 286 -14 c 0
 184 -14 123 12 66 58 c 1
 66 207 l 1
 109 162 180 119 279 119 c 0
 400 119 517 211 517 350 c 0
EndSplineSet
EndChar

StartChar: uni042E
Encoding: 1070 1070 430
Width: 1107
VWidth: 0
Flags: HW
LayerCount: 2
Fore
SplineSet
123 308 m 1
 123 437 l 1
 425 437 l 1
 425 308 l 1
 123 308 l 1
76 700 m 1
 219 700 l 1
 219 0 l 1
 76 0 l 1
 76 700 l 1
484 350 m 0
 484 216 573 120 702 120 c 0
 831 120 920 216 920 350 c 0
 920 484 833 580 702 580 c 0
 573 580 484 484 484 350 c 0
332 350 m 0
 332 563 492 714 702 714 c 0
 915 714 1072 563 1072 350 c 0
 1072 137 917 -19 702 -19 c 0
 487 -19 332 137 332 350 c 0
EndSplineSet
EndChar

StartChar: uni042F
Encoding: 1071 1071 431
Width: 620
VWidth: 0
Flags: HW
LayerCount: 2
Fore
SplineSet
385 326 m 1
 176 0 l 1
 6 0 l 1
 234 326 l 1
 385 326 l 1
545 700 m 1
 545 0 l 1
 401 0 l 1
 401 700 l 1
 545 700 l 1
457 577 m 1
 318 577 l 2
 243 577 195 540 195 473 c 0
 195 406 243 368 318 368 c 2
 457 368 l 1
 457 254 l 1
 309 254 l 2
 144 254 48 344 48 477 c 0
 48 610 144 700 309 700 c 2
 457 700 l 1
 457 577 l 1
EndSplineSet
EndChar

StartChar: uni0430
Encoding: 1072 1072 432
Width: 526
VWidth: 0
Flags: HW
LayerCount: 2
Fore
SplineSet
156 137 m 0
 156 99 191 80 232 80 c 0
 295 80 345 107 345 184 c 1
 361 130 l 1
 361 41 285 -10 190 -10 c 0
 95 -10 26 39 26 131 c 0
 26 224 103 281 224 281 c 0
 299 281 360 248 378 228 c 1
 378 165 l 1
 340 193 303 206 249 206 c 0
 188 206 156 179 156 137 c 0
115 329 m 1
 68 418 l 1
 115 443 184 472 267 472 c 0
 385 472 470 419 470 326 c 2
 470 0 l 1
 345 0 l 1
 345 305 l 2
 345 346 309 371 259 371 c 0
 193 371 137 343 115 329 c 1
EndSplineSet
Substitution2: "alt a" a.alt
EndChar

StartChar: uni0431
Encoding: 1073 1073 433
Width: 589
VWidth: 0
Flags: HW
LayerCount: 2
Fore
SplineSet
299 361 m 1
 308 470 l 1
 452 470 554 369 554 230 c 0
 554 91 451 -10 299 -10 c 0
 147 -10 35 91 35 290 c 1
 176 230 l 1
 176 151 231 100 299 100 c 0
 367 100 421 151 421 230 c 0
 421 309 367 361 299 361 c 1
118 230 m 1
 118 379 193 470 308 470 c 1
 299 361 l 1
 239 361 176 314 176 230 c 1
 118 230 l 1
35 290 m 1
 35 477 77 598 235 660 c 0
 326 695 371 732 381 780 c 1
 506 780 l 1
 496 691 414 618 305 578 c 0
 182 533 148 440 148 340 c 2
 166 233 l 1
 35 290 l 1
EndSplineSet
EndChar

StartChar: uni0432
Encoding: 1074 1074 434
Width: 502
VWidth: 0
Flags: HW
LayerCount: 2
Fore
SplineSet
150 240 m 1
 305 240 l 2
 400 240 473 214 473 125 c 0
 473 56 430 0 325 0 c 2
 150 0 l 1
 150 87 l 1
 283 87 l 2
 330 87 349 112 349 139 c 0
 349 166 330 189 283 189 c 2
 150 189 l 1
 150 240 l 1
150 220 m 1
 150 276 l 1
 273 276 l 2
 308 276 329 298 329 325 c 0
 329 352 308 373 273 373 c 2
 150 373 l 1
 150 460 l 1
 295 460 l 2
 380 460 453 424 453 335 c 0
 453 256 380 220 295 220 c 2
 150 220 l 1
75 460 m 1
 200 460 l 1
 200 0 l 1
 75 0 l 1
 75 460 l 1
EndSplineSet
EndChar

StartChar: uni0433
Encoding: 1075 1075 435
Width: 349
VWidth: 0
Flags: HW
LayerCount: 2
Fore
SplineSet
67 460 m 1
 347 460 l 1
 347 350 l 1
 195 350 l 1
 195 0 l 1
 67 0 l 1
 67 460 l 1
EndSplineSet
EndChar

StartChar: uni0434
Encoding: 1076 1076 436
Width: 689
VWidth: 0
Flags: HW
LayerCount: 2
Fore
SplineSet
342 292 m 1
 225 30 l 1
 96 52 l 1
 342 495 l 1
 589 52 l 1
 460 30 l 1
 342 292 l 1
521 0 m 1
 168 0 l 1
 168 -90 l 1
 40 -90 l 1
 40 105 l 1
 645 105 l 1
 645 -90 l 1
 521 -90 l 1
 521 0 l 1
EndSplineSet
EndChar

StartChar: uni0435
Encoding: 1077 1077 437
Width: 557
VWidth: 0
Flags: HW
LayerCount: 2
Fore
SplineSet
108 201 m 1
 108 281 l 1
 382 281 l 1
 375 341 342 378 280 378 c 0
 213 378 166 333 166 256 c 1
 164 230 l 1
 164 133 214 89 282 89 c 0
 340 89 381 114 406 155 c 1
 520 120 l 1
 474 41 409 -10 281 -10 c 0
 126 -10 33 91 33 230 c 0
 33 247 34 263 37 279 c 0
 56 392 141 470 282 470 c 0
 434 470 521 381 521 236 c 0
 521 228 521 215 520 201 c 1
 108 201 l 1
EndSplineSet
EndChar

StartChar: uni0436
Encoding: 1078 1078 438
Width: 817
VWidth: 0
Flags: HW
LayerCount: 2
Fore
SplineSet
646 460 m 1
 798 460 l 1
 597 264 l 1
 818 0 l 1
 666 0 l 1
 446 270 l 1
 646 460 l 1
470 460 m 1
 470 0 l 1
 348 0 l 1
 348 460 l 1
 470 460 l 1
172 460 m 1
 372 270 l 1
 152 0 l 1
 0 0 l 1
 221 264 l 1
 20 460 l 1
 172 460 l 1
EndSplineSet
EndChar

StartChar: uni0437
Encoding: 1079 1079 439
Width: 519
VWidth: 0
Flags: HW
LayerCount: 2
Fore
SplineSet
265 230 m 1
 265 285 l 1
 308 285 329 303 329 330 c 0
 329 357 304 372 274 372 c 0
 235 372 210 344 210 313 c 1
 90 313 l 1
 90 405 167 470 269 470 c 0
 386 470 454 403 454 334 c 0
 454 265 392 230 265 230 c 1
270 -10 m 0
 148 -10 70 56 60 154 c 1
 184 154 l 1
 194 112 222 86 270 86 c 0
 317 86 352 108 352 145 c 0
 352 182 322 205 265 205 c 1
 265 260 l 1
 392 260 474 214 474 135 c 0
 474 46 382 -10 270 -10 c 0
EndSplineSet
EndChar

StartChar: uni0438
Encoding: 1080 1080 440
Width: 577
VWidth: 0
Flags: HW
LayerCount: 2
Fore
SplineSet
505 345 m 1
 67 -35 l 1
 72 115 l 1
 510 495 l 1
 505 345 l 1
192 460 m 1
 192 97 l 1
 67 -35 l 1
 67 460 l 1
 192 460 l 1
510 495 m 1
 510 0 l 1
 385 0 l 1
 385 363 l 1
 510 495 l 1
EndSplineSet
EndChar

StartChar: uni0439
Encoding: 1081 1081 441
Width: 577
VWidth: 0
Flags: HW
LayerCount: 2
Fore
SplineSet
505 345 m 1
 67 -35 l 1
 72 115 l 1
 510 495 l 1
 505 345 l 1
192 460 m 1
 192 97 l 1
 67 -35 l 1
 67 460 l 1
 192 460 l 1
510 495 m 1
 510 0 l 1
 385 0 l 1
 385 363 l 1
 510 495 l 1
132 695 m 1
 223 695 l 1
 223 663 246 631 294 631 c 0
 342 631 366 663 366 695 c 1
 457 695 l 1
 457 617 399 551 294 551 c 0
 189 551 132 617 132 695 c 1
EndSplineSet
EndChar

StartChar: uni043A
Encoding: 1082 1082 442
Width: 535
VWidth: 0
Flags: HW
LayerCount: 2
Fore
SplineSet
61 460 m 1
 187 460 l 1
 187 0 l 1
 61 0 l 1
 61 460 l 1
355 460 m 1
 511 460 l 1
 313 270 l 1
 531 0 l 1
 377 0 l 1
 157 270 l 1
 355 460 l 1
EndSplineSet
EndChar

StartChar: uni043B
Encoding: 1083 1083 443
Width: 603
VWidth: 0
Flags: HW
LayerCount: 2
Fore
SplineSet
523 460 m 25
 523 0 l 1
 398 0 l 1
 398 342 l 1
 208 342 l 25
 208 160 l 2
 208 51 157 0 10 0 c 1
 10 116 l 1
 50 116 83 129 83 186 c 2
 83 460 l 25
 523 460 l 25
EndSplineSet
EndChar

StartChar: uni043C
Encoding: 1084 1084 444
Width: 641
VWidth: 0
Flags: HW
LayerCount: 2
Fore
SplineSet
503 0 m 1
 437 330 l 1
 504 495 l 1
 637 0 l 1
 503 0 l 1
289 112 m 1
 504 495 l 1
 514 305 l 1
 319 -31 l 1
 289 112 l 1
319 -31 m 1
 128 305 l 1
 138 495 l 1
 349 112 l 1
 319 -31 l 1
5 0 m 1
 138 495 l 1
 205 330 l 1
 138 0 l 1
 5 0 l 1
EndSplineSet
EndChar

StartChar: uni043D
Encoding: 1085 1085 445
Width: 599
VWidth: 0
Flags: HW
LayerCount: 2
Fore
SplineSet
111 192 m 1
 111 293 l 1
 473 293 l 1
 473 192 l 1
 111 192 l 1
410 460 m 1
 535 460 l 1
 535 0 l 1
 410 0 l 1
 410 460 l 1
64 460 m 1
 190 460 l 1
 190 0 l 1
 64 0 l 1
 64 460 l 1
EndSplineSet
EndChar

StartChar: uni043E
Encoding: 1086 1086 446
Width: 576
VWidth: 0
Flags: HW
LayerCount: 2
Fore
SplineSet
33 230 m 0
 33 373 142 470 288 470 c 0
 434 470 543 373 543 230 c 0
 543 87 434 -10 288 -10 c 0
 142 -10 33 87 33 230 c 0
166 230 m 0
 166 151 220 100 288 100 c 0
 356 100 411 151 411 230 c 0
 411 309 356 361 288 361 c 0
 220 361 166 309 166 230 c 0
EndSplineSet
EndChar

StartChar: uni043F
Encoding: 1087 1087 447
Width: 559
VWidth: 0
Flags: HW
LayerCount: 2
Fore
SplineSet
495 460 m 1
 495 0 l 1
 370 0 l 1
 370 346 l 1
 190 346 l 1
 190 0 l 1
 64 0 l 1
 64 460 l 1
 495 460 l 1
EndSplineSet
EndChar

StartChar: uni0440
Encoding: 1088 1088 448
Width: 602
VWidth: 0
Flags: HW
LayerCount: 2
Fore
SplineSet
191 -220 m 1
 61 -220 l 1
 61 460 l 1
 191 460 l 1
 191 -220 l 1
570 230 m 0
 570 72 464 -14 348 -14 c 0
 229 -14 155 81 155 230 c 0
 155 379 229 474 348 474 c 0
 464 474 570 388 570 230 c 0
435 230 m 0
 435 312 378 358 310 358 c 0
 253 358 191 314 191 230 c 0
 191 146 253 102 310 102 c 0
 378 102 435 148 435 230 c 0
EndSplineSet
EndChar

StartChar: uni0441
Encoding: 1089 1089 449
Width: 488
VWidth: 0
Flags: HW
LayerCount: 2
Fore
SplineSet
163 230 m 0
 163 149 221 97 296 97 c 0
 357 97 414 126 439 170 c 1
 439 37 l 1
 407 8 354 -10 287 -10 c 0
 139 -10 30 87 30 230 c 0
 30 373 139 470 287 470 c 0
 354 470 407 451 439 424 c 1
 439 291 l 1
 414 335 353 363 296 363 c 0
 221 363 163 307 163 230 c 0
EndSplineSet
EndChar

StartChar: uni0442
Encoding: 1090 1090 450
Width: 316
VWidth: 0
Flags: HW
LayerCount: 2
Fore
SplineSet
5 460 m 1
 312 460 l 1
 312 350 l 1
 5 350 l 1
 5 460 l 1
96 440 m 1
 221 440 l 1
 221 0 l 1
 96 0 l 1
 96 440 l 1
EndSplineSet
EndChar

StartChar: uni0443
Encoding: 1091 1091 451
Width: 496
VWidth: 0
Flags: HW
LayerCount: 2
Fore
SplineSet
503 460 m 1
 203 -220 l 1
 69 -220 l 1
 186 46 l 1
 -6 460 l 1
 138 460 l 1
 286 94 l 1
 222 96 l 1
 367 460 l 1
 503 460 l 1
EndSplineSet
EndChar

StartChar: uni0444
Encoding: 1092 1092 452
Width: 642
VWidth: 0
Flags: HW
LayerCount: 2
Fore
SplineSet
259 560 m 1
 383 560 l 1
 383 -100 l 1
 259 -100 l 1
 259 560 l 1
33 230 m 0
 33 373 142 470 321 470 c 0
 500 470 609 373 609 230 c 0
 609 87 500 -10 321 -10 c 0
 142 -10 33 87 33 230 c 0
153 230 m 0
 153 151 207 100 321 100 c 0
 435 100 489 151 489 230 c 0
 489 309 435 361 321 361 c 0
 207 361 153 309 153 230 c 0
EndSplineSet
EndChar

StartChar: uni0445
Encoding: 1093 1093 453
Width: 497
VWidth: 0
Flags: HW
LayerCount: 2
Fore
SplineSet
344 460 m 1
 488 460 l 1
 318 237 l 1
 498 0 l 1
 354 0 l 1
 251 146 l 1
 148 0 l 1
 0 0 l 1
 182 237 l 1
 10 460 l 1
 158 460 l 1
 251 327 l 1
 344 460 l 1
EndSplineSet
EndChar

StartChar: uni0446
Encoding: 1094 1094 454
Width: 603
VWidth: 0
Flags: HW
LayerCount: 2
Fore
SplineSet
500 110 m 1
 580 110 l 1
 580 -99 l 1
 460 -99 l 1
 460 0 l 1
 64 0 l 1
 64 460 l 1
 194 460 l 1
 194 110 l 1
 370 110 l 1
 370 460 l 1
 500 460 l 1
 500 110 l 1
EndSplineSet
EndChar

StartChar: uni0447
Encoding: 1095 1095 455
Width: 528
VWidth: 0
Flags: HW
LayerCount: 2
Fore
SplineSet
230 123 m 1
 260 232 l 1
 387 232 l 1
 387 123 l 1
 230 123 l 1
330 460 m 1
 460 460 l 1
 460 0 l 1
 330 0 l 1
 330 460 l 1
180 460 m 1
 180 319 l 2
 180 256 201 232 260 232 c 1
 230 123 l 1
 91 123 50 193 50 328 c 2
 50 460 l 1
 180 460 l 1
EndSplineSet
EndChar

StartChar: uni0448
Encoding: 1096 1096 456
Width: 819
VWidth: 0
Flags: HW
LayerCount: 2
Fore
SplineSet
472 110 m 1
 630 110 l 1
 630 460 l 1
 755 460 l 1
 755 0 l 1
 64 0 l 1
 64 460 l 1
 190 460 l 1
 190 110 l 1
 347 110 l 1
 347 460 l 1
 472 460 l 1
 472 110 l 1
EndSplineSet
EndChar

StartChar: uni0449
Encoding: 1097 1097 457
Width: 858
VWidth: 0
Flags: HW
LayerCount: 2
Fore
SplineSet
472 110 m 1
 629 110 l 1
 629 460 l 1
 755 460 l 1
 755 110 l 1
 835 110 l 1
 835 -99 l 1
 715 -99 l 1
 715 0 l 1
 64 0 l 1
 64 460 l 1
 190 460 l 1
 190 110 l 1
 347 110 l 1
 347 460 l 1
 472 460 l 1
 472 110 l 1
EndSplineSet
EndChar

StartChar: uni044A
Encoding: 1098 1098 458
Width: 601
VWidth: 0
Flags: HW
LayerCount: 2
Fore
SplineSet
243 210 m 1
 243 299 l 1
 386 299 l 2
 481 299 554 255 554 156 c 0
 554 57 481 0 386 0 c 2
 243 0 l 1
 243 102 l 1
 367 102 l 2
 408 102 431 123 431 156 c 0
 431 189 408 210 367 210 c 2
 243 210 l 1
153 350 m 1
 5 350 l 1
 5 460 l 1
 274 460 l 1
 274 0 l 1
 153 0 l 1
 153 350 l 1
EndSplineSet
EndChar

StartChar: uni044B
Encoding: 1099 1099 459
Width: 727
VWidth: 0
Flags: HW
LayerCount: 2
Fore
SplineSet
533 460 m 1
 663 460 l 1
 663 0 l 1
 533 0 l 1
 533 460 l 1
64 460 m 1
 194 460 l 1
 194 0 l 1
 64 0 l 1
 64 460 l 1
161 210 m 1
 161 299 l 1
 304 299 l 2
 399 299 472 255 472 156 c 0
 472 57 399 0 304 0 c 2
 161 0 l 1
 161 102 l 1
 285 102 l 2
 326 102 349 123 349 156 c 0
 349 189 326 210 285 210 c 2
 161 210 l 1
EndSplineSet
EndChar

StartChar: uni044C
Encoding: 1100 1100 460
Width: 526
VWidth: 0
Flags: HW
LayerCount: 2
Fore
SplineSet
69 460 m 1
 198 460 l 1
 198 0 l 1
 69 0 l 1
 69 460 l 1
165 210 m 1
 165 299 l 1
 308 299 l 2
 403 299 476 255 476 156 c 0
 476 57 403 0 308 0 c 2
 165 0 l 1
 165 102 l 1
 290 102 l 2
 331 102 353 123 353 156 c 0
 353 189 331 210 290 210 c 2
 165 210 l 1
EndSplineSet
EndChar

StartChar: uni044D
Encoding: 1101 1101 461
Width: 488
VWidth: 0
Flags: HW
LayerCount: 2
Fore
SplineSet
120 276 m 1
 415 276 l 1
 376 184 l 1
 120 184 l 1
 120 276 l 1
326 230 m 0
 326 320 268 376 193 376 c 0
 136 376 75 348 50 304 c 1
 50 424 l 1
 82 451 134 470 201 470 c 0
 349 470 459 373 459 230 c 0
 459 87 349 -10 201 -10 c 0
 134 -10 82 8 50 37 c 1
 50 157 l 1
 75 113 132 84 193 84 c 0
 268 84 326 136 326 230 c 0
EndSplineSet
EndChar

StartChar: uni044E
Encoding: 1102 1102 462
Width: 797
VWidth: 0
Flags: HW
LayerCount: 2
Fore
SplineSet
111 192 m 1
 111 293 l 1
 350 293 l 1
 350 192 l 1
 111 192 l 1
64 460 m 1
 190 460 l 1
 190 0 l 1
 64 0 l 1
 64 460 l 1
254 230 m 0
 254 373 364 470 510 470 c 0
 656 470 765 373 765 230 c 0
 765 87 656 -10 510 -10 c 0
 364 -10 254 87 254 230 c 0
387 230 m 0
 387 151 442 100 510 100 c 0
 578 100 632 151 632 230 c 0
 632 309 578 361 510 361 c 0
 442 361 387 309 387 230 c 0
EndSplineSet
EndChar

StartChar: uni044F
Encoding: 1103 1103 463
Width: 526
VWidth: 0
Flags: HW
LayerCount: 2
Fore
SplineSet
180 0 m 1
 44 0 l 1
 193 218 l 1
 320 218 l 1
 180 0 l 1
483 0 m 1
 353 0 l 1
 353 460 l 1
 483 460 l 1
 483 0 l 1
399 263 m 1
 399 171 l 1
 256 171 l 2
 161 171 75 215 75 318 c 0
 75 421 161 460 256 460 c 2
 399 460 l 1
 399 355 l 1
 271 355 l 2
 226 355 203 342 203 309 c 0
 203 276 226 263 271 263 c 2
 399 263 l 1
EndSplineSet
EndChar

StartChar: uni0450
Encoding: 1104 1104 464
Width: 515
VWidth: 0
Flags: HW
LayerCount: 2
Fore
SplineSet
108 201 m 1
 108 281 l 1
 382 281 l 1
 375 341 342 378 280 378 c 0
 213 378 166 333 166 256 c 1
 164 230 l 1
 164 133 214 89 282 89 c 0
 340 89 381 114 406 155 c 1
 520 120 l 1
 474 41 409 -10 281 -10 c 0
 126 -10 33 91 33 230 c 0
 33 247 34 263 37 279 c 0
 56 392 141 470 282 470 c 0
 434 470 521 381 521 236 c 0
 521 228 521 215 520 201 c 1
 108 201 l 1
119 680 m 1
 223 729 l 1
 373 569 l 1
 299 530 l 1
 119 680 l 1
EndSplineSet
EndChar

